<svg width="3362" height="2201" xmlns="http://www.w3.org/2000/svg" xmlns:xlink="http://www.w3.org/1999/xlink" overflow="hidden"><defs><clipPath id="clip0"><rect x="-1" y="-1" width="3362" height="2201"/></clipPath><clipPath id="clip1"><rect x="0" y="0" width="3359" height="2197"/></clipPath><clipPath id="clip2"><rect x="0" y="0" width="3359" height="2197"/></clipPath><clipPath id="clip3"><rect x="0" y="0" width="3359" height="2197"/></clipPath><clipPath id="clip4"><rect x="0" y="0" width="3359" height="2197"/></clipPath><clipPath id="clip5"><rect x="0" y="0" width="3359" height="2197"/></clipPath><clipPath id="clip6"><rect x="0" y="0" width="3359" height="2197"/></clipPath><clipPath id="clip7"><rect x="0" y="0" width="3359" height="2197"/></clipPath><clipPath id="clip8"><rect x="0" y="0" width="3359" height="2197"/></clipPath><clipPath id="clip9"><rect x="0" y="0" width="3359" height="2197"/></clipPath><clipPath id="clip10"><rect x="0" y="0" width="3359" height="2197"/></clipPath><clipPath id="clip11"><rect x="0" y="0" width="3359" height="2197"/></clipPath><clipPath id="clip12"><rect x="0" y="0" width="3359" height="2197"/></clipPath><clipPath id="clip13"><rect x="0" y="0" width="3359" height="2197"/></clipPath><clipPath id="clip14"><rect x="0" y="0" width="3359" height="2197"/></clipPath><clipPath id="clip15"><rect x="0" y="0" width="3359" height="2197"/></clipPath><clipPath id="clip16"><rect x="0" y="0" width="3359" height="2197"/></clipPath><clipPath id="clip17"><rect x="0" y="0" width="3359" height="2197"/></clipPath><clipPath id="clip18"><rect x="0" y="0" width="3359" height="2197"/></clipPath><clipPath id="clip19"><rect x="0" y="0" width="3359" height="2197"/></clipPath><clipPath id="clip20"><rect x="0" y="0" width="3359" height="2197"/></clipPath><clipPath id="clip21"><rect x="0" y="0" width="3359" height="2197"/></clipPath><clipPath id="clip22"><rect x="0" y="0" width="3359" height="2197"/></clipPath><clipPath id="clip23"><rect x="0" y="0" width="3359" height="2197"/></clipPath><clipPath id="clip24"><rect x="0" y="0" width="3359" height="2197"/></clipPath><clipPath id="clip25"><rect x="0" y="0" width="3359" height="2197"/></clipPath><clipPath id="clip26"><rect x="0" y="0" width="3359" height="2197"/></clipPath><clipPath id="clip27"><rect x="0" y="0" width="3359" height="2197"/></clipPath><clipPath id="clip28"><rect x="0" y="0" width="3359" height="2197"/></clipPath><clipPath id="clip29"><rect x="0" y="0" width="3359" height="2197"/></clipPath><clipPath id="clip30"><rect x="0" y="0" width="3359" height="2197"/></clipPath><clipPath id="clip31"><rect x="0" y="0" width="3359" height="2197"/></clipPath><clipPath id="clip32"><rect x="0" y="0" width="3359" height="2197"/></clipPath><clipPath id="clip33"><rect x="0" y="0" width="3359" height="2197"/></clipPath></defs><g clip-path="url(#clip0)" transform="translate(1 1)"><rect x="0" y="0" width="3359" height="2198" fill="#FFFFFF"/><g clip-path="url(#clip1)"><path d="M396.5 2012.5 2769.5 2012.5M396.5 1378.55 2769.5 1378.55M396.5 745.525 2769.5 745.525" stroke="#D9D9D9" stroke-width="3.4375" stroke-linejoin="round" stroke-miterlimit="10" fill="none"/></g><g clip-path="url(#clip2)"><path d="M735.524 111.5 735.524 2012.5M1074.54 111.5 1074.54 2012.5M1413.55 111.5 1413.55 2012.5M1752.56 111.5 1752.56 2012.5M2091.57 111.5 2091.57 2012.5M2430.58 111.5 2430.58 2012.5M2769.5 111.5 2769.5 2012.5" stroke="#D9D9D9" stroke-width="3.4375" stroke-linejoin="round" stroke-miterlimit="10" fill="none"/></g><g clip-path="url(#clip3)"><path d="M0 0 0.000360892 1901" stroke="#BFBFBF" stroke-width="3.4375" stroke-linejoin="round" stroke-miterlimit="10" fill="none" fill-rule="evenodd" transform="matrix(1 0 0 -1 396.5 2012.5)"/></g><g clip-path="url(#clip4)"><path d="M396.5 111.5 2769.5 111.5" stroke="#BFBFBF" stroke-width="3.4375" stroke-linejoin="round" stroke-miterlimit="10" fill="none" fill-rule="evenodd"/></g><g clip-path="url(#clip5)"><path d="M556.499 1414.5C556.499 1420.57 551.575 1425.5 545.5 1425.5 539.425 1425.5 534.5 1420.57 534.5 1414.5 534.5 1408.42 539.425 1403.5 545.5 1403.5 551.575 1403.5 556.499 1408.42 556.499 1414.5Z" stroke="#4472C4" stroke-width="3.4375" stroke-linejoin="round" stroke-miterlimit="10" fill="#4472C4"/><path d="M740.499 1115.5C740.499 1121.57 735.575 1126.5 729.5 1126.5 723.425 1126.5 718.5 1121.57 718.5 1115.5 718.5 1109.42 723.425 1104.5 729.5 1104.5 735.575 1104.5 740.499 1109.42 740.499 1115.5Z" stroke="#4472C4" stroke-width="3.4375" stroke-linejoin="round" stroke-miterlimit="10" fill="#4472C4"/><path d="M740.499 1128.5C740.499 1134.57 735.575 1139.5 729.5 1139.5 723.425 1139.5 718.5 1134.57 718.5 1128.5 718.5 1122.42 723.425 1117.5 729.5 1117.5 735.575 1117.5 740.499 1122.42 740.499 1128.5Z" stroke="#4472C4" stroke-width="3.4375" stroke-linejoin="round" stroke-miterlimit="10" fill="#4472C4"/><path d="M942.499 1177.5C942.499 1183.57 937.575 1188.5 931.5 1188.5 925.425 1188.5 920.5 1183.57 920.5 1177.5 920.5 1171.42 925.425 1166.5 931.5 1166.5 937.575 1166.5 942.499 1171.42 942.499 1177.5Z" stroke="#4472C4" stroke-width="3.4375" stroke-linejoin="round" stroke-miterlimit="10" fill="#4472C4"/><path d="M942.499 973.5C942.499 979.575 937.575 984.499 931.5 984.499 925.425 984.499 920.5 979.575 920.5 973.5 920.5 967.425 925.425 962.5 931.5 962.5 937.575 962.5 942.499 967.425 942.499 973.5Z" stroke="#4472C4" stroke-width="3.4375" stroke-linejoin="round" stroke-miterlimit="10" fill="#4472C4"/><path d="M1085.5 933.5C1085.5 939.575 1080.57 944.499 1074.5 944.499 1068.42 944.499 1063.5 939.575 1063.5 933.5 1063.5 927.425 1068.42 922.5 1074.5 922.5 1080.57 922.5 1085.5 927.425 1085.5 933.5Z" stroke="#4472C4" stroke-width="3.4375" stroke-linejoin="round" stroke-miterlimit="10" fill="#4472C4"/><path d="M1506.5 893.5C1506.5 899.574 1501.57 904.499 1495.5 904.499 1489.42 904.499 1484.5 899.574 1484.5 893.5 1484.5 887.425 1489.42 882.5 1495.5 882.5 1501.57 882.5 1506.5 887.425 1506.5 893.5Z" stroke="#4472C4" stroke-width="3.4375" stroke-linejoin="round" stroke-miterlimit="10" fill="#4472C4"/><path d="M2481.5 875.5C2481.5 881.575 2476.57 886.499 2470.5 886.499 2464.42 886.499 2459.5 881.575 2459.5 875.5 2459.5 869.425 2464.42 864.5 2470.5 864.5 2476.57 864.5 2481.5 869.425 2481.5 875.5Z" stroke="#4472C4" stroke-width="3.4375" stroke-linejoin="round" stroke-miterlimit="10" fill="#4472C4"/></g><g clip-path="url(#clip6)"><path d="M556.499 992.5C556.499 998.574 551.575 1003.5 545.5 1003.5 539.425 1003.5 534.5 998.574 534.5 992.5 534.5 986.425 539.425 981.5 545.5 981.5 551.575 981.5 556.499 986.425 556.499 992.5Z" stroke="#ED7D31" stroke-width="3.4375" stroke-linejoin="round" stroke-miterlimit="10" fill="#ED7D31"/><path d="M740.499 676.5C740.499 682.575 735.575 687.499 729.5 687.499 723.425 687.499 718.5 682.575 718.5 676.5 718.5 670.425 723.425 665.5 729.5 665.5 735.575 665.5 740.499 670.425 740.499 676.5Z" stroke="#ED7D31" stroke-width="3.4375" stroke-linejoin="round" stroke-miterlimit="10" fill="#ED7D31"/><path d="M942.499 452.5C942.499 458.574 937.575 463.499 931.5 463.499 925.425 463.499 920.5 458.574 920.5 452.5 920.5 446.425 925.425 441.5 931.5 441.5 937.575 441.5 942.499 446.425 942.499 452.5Z" stroke="#ED7D31" stroke-width="3.4375" stroke-linejoin="round" stroke-miterlimit="10" fill="#ED7D31"/><path d="M1085.5 326.5C1085.5 332.575 1080.57 337.499 1074.5 337.499 1068.42 337.499 1063.5 332.575 1063.5 326.5 1063.5 320.425 1068.42 315.5 1074.5 315.5 1080.57 315.5 1085.5 320.425 1085.5 326.5Z" stroke="#ED7D31" stroke-width="3.4375" stroke-linejoin="round" stroke-miterlimit="10" fill="#ED7D31"/><path d="M1506.5 297.5C1506.5 303.575 1501.57 308.499 1495.5 308.499 1489.42 308.499 1484.5 303.575 1484.5 297.5 1484.5 291.425 1489.42 286.5 1495.5 286.5 1501.57 286.5 1506.5 291.425 1506.5 297.5Z" stroke="#ED7D31" stroke-width="3.4375" stroke-linejoin="round" stroke-miterlimit="10" fill="#ED7D31"/><path d="M2481.5 376.5C2481.5 382.574 2476.57 387.499 2470.5 387.499 2464.42 387.499 2459.5 382.574 2459.5 376.5 2459.5 370.425 2464.42 365.5 2470.5 365.5 2476.57 365.5 2481.5 370.425 2481.5 376.5Z" stroke="#ED7D31" stroke-width="3.4375" stroke-linejoin="round" stroke-miterlimit="10" fill="#ED7D31"/><path d="M2481.5 426.5C2481.5 432.575 2476.57 437.499 2470.5 437.499 2464.42 437.499 2459.5 432.575 2459.5 426.5 2459.5 420.425 2464.42 415.5 2470.5 415.5 2476.57 415.5 2481.5 420.425 2481.5 426.5Z" stroke="#ED7D31" stroke-width="3.4375" stroke-linejoin="round" stroke-miterlimit="10" fill="#ED7D31"/></g><g clip-path="url(#clip7)"><path d="M543.499 1773.5C543.499 1779.57 538.575 1784.5 532.5 1784.5 526.425 1784.5 521.5 1779.57 521.5 1773.5 521.5 1767.42 526.425 1762.5 532.5 1762.5 538.575 1762.5 543.499 1767.42 543.499 1773.5Z" stroke="#A5A5A5" stroke-width="3.4375" stroke-linejoin="round" stroke-miterlimit="10" fill="#A5A5A5"/><path d="M611.499 1774.5C611.499 1780.57 606.575 1785.5 600.5 1785.5 594.425 1785.5 589.5 1780.57 589.5 1774.5 589.5 1768.42 594.425 1763.5 600.5 1763.5 606.575 1763.5 611.499 1768.42 611.499 1774.5Z" stroke="#A5A5A5" stroke-width="3.4375" stroke-linejoin="round" stroke-miterlimit="10" fill="#A5A5A5"/><path d="M679.499 1780.5C679.499 1786.57 674.575 1791.5 668.5 1791.5 662.425 1791.5 657.5 1786.57 657.5 1780.5 657.5 1774.42 662.425 1769.5 668.5 1769.5 674.575 1769.5 679.499 1774.42 679.499 1780.5Z" stroke="#A5A5A5" stroke-width="3.4375" stroke-linejoin="round" stroke-miterlimit="10" fill="#A5A5A5"/><path d="M746.499 1782.5C746.499 1788.57 741.575 1793.5 735.5 1793.5 729.425 1793.5 724.5 1788.57 724.5 1782.5 724.5 1776.42 729.425 1771.5 735.5 1771.5 741.575 1771.5 746.499 1776.42 746.499 1782.5Z" stroke="#A5A5A5" stroke-width="3.4375" stroke-linejoin="round" stroke-miterlimit="10" fill="#A5A5A5"/><path d="M882.499 1785.5C882.499 1791.57 877.574 1796.5 871.5 1796.5 865.425 1796.5 860.5 1791.57 860.5 1785.5 860.5 1779.42 865.425 1774.5 871.5 1774.5 877.574 1774.5 882.499 1779.42 882.499 1785.5Z" stroke="#A5A5A5" stroke-width="3.4375" stroke-linejoin="round" stroke-miterlimit="10" fill="#A5A5A5"/><path d="M1085.5 1786.5C1085.5 1792.57 1080.57 1797.5 1074.5 1797.5 1068.42 1797.5 1063.5 1792.57 1063.5 1786.5 1063.5 1780.42 1068.42 1775.5 1074.5 1775.5 1080.57 1775.5 1085.5 1780.42 1085.5 1786.5Z" stroke="#A5A5A5" stroke-width="3.4375" stroke-linejoin="round" stroke-miterlimit="10" fill="#A5A5A5"/><path d="M1424.5 1809.5C1424.5 1815.57 1419.57 1820.5 1413.5 1820.5 1407.42 1820.5 1402.5 1815.57 1402.5 1809.5 1402.5 1803.42 1407.42 1798.5 1413.5 1798.5 1419.57 1798.5 1424.5 1803.42 1424.5 1809.5Z" stroke="#A5A5A5" stroke-width="3.4375" stroke-linejoin="round" stroke-miterlimit="10" fill="#A5A5A5"/><path d="M1763.5 1784.5C1763.5 1790.57 1758.57 1795.5 1752.5 1795.5 1746.42 1795.5 1741.5 1790.57 1741.5 1784.5 1741.5 1778.42 1746.42 1773.5 1752.5 1773.5 1758.57 1773.5 1763.5 1778.42 1763.5 1784.5Z" stroke="#A5A5A5" stroke-width="3.4375" stroke-linejoin="round" stroke-miterlimit="10" fill="#A5A5A5"/><path d="M2102.5 1781.5C2102.5 1787.57 2097.57 1792.5 2091.5 1792.5 2085.42 1792.5 2080.5 1787.57 2080.5 1781.5 2080.5 1775.42 2085.42 1770.5 2091.5 1770.5 2097.57 1770.5 2102.5 1775.42 2102.5 1781.5Z" stroke="#A5A5A5" stroke-width="3.4375" stroke-linejoin="round" stroke-miterlimit="10" fill="#A5A5A5"/><path d="M2102.5 1781.5C2102.5 1787.57 2097.57 1792.5 2091.5 1792.5 2085.42 1792.5 2080.5 1787.57 2080.5 1781.5 2080.5 1775.42 2085.42 1770.5 2091.5 1770.5 2097.57 1770.5 2102.5 1775.42 2102.5 1781.5Z" stroke="#A5A5A5" stroke-width="3.4375" stroke-linejoin="round" stroke-miterlimit="10" fill="#A5A5A5"/><path d="M2441.5 1778.5C2441.5 1784.57 2436.57 1789.5 2430.5 1789.5 2424.42 1789.5 2419.5 1784.57 2419.5 1778.5 2419.5 1772.42 2424.42 1767.5 2430.5 1767.5 2436.57 1767.5 2441.5 1772.42 2441.5 1778.5Z" stroke="#A5A5A5" stroke-width="3.4375" stroke-linejoin="round" stroke-miterlimit="10" fill="#A5A5A5"/></g><g clip-path="url(#clip8)"><path d="M543.499 1191.5C543.499 1197.57 538.575 1202.5 532.5 1202.5 526.425 1202.5 521.5 1197.57 521.5 1191.5 521.5 1185.42 526.425 1180.5 532.5 1180.5 538.575 1180.5 543.499 1185.42 543.499 1191.5Z" stroke="#FFC000" stroke-width="3.4375" stroke-linejoin="round" stroke-miterlimit="10" fill="#FFC000"/><path d="M611.499 1187.5C611.499 1193.57 606.575 1198.5 600.5 1198.5 594.425 1198.5 589.5 1193.57 589.5 1187.5 589.5 1181.42 594.425 1176.5 600.5 1176.5 606.575 1176.5 611.499 1181.42 611.499 1187.5Z" stroke="#FFC000" stroke-width="3.4375" stroke-linejoin="round" stroke-miterlimit="10" fill="#FFC000"/><path d="M679.499 1186.5C679.499 1192.57 674.575 1197.5 668.5 1197.5 662.425 1197.5 657.5 1192.57 657.5 1186.5 657.5 1180.42 662.425 1175.5 668.5 1175.5 674.575 1175.5 679.499 1180.42 679.499 1186.5Z" stroke="#FFC000" stroke-width="3.4375" stroke-linejoin="round" stroke-miterlimit="10" fill="#FFC000"/><path d="M746.499 1184.5C746.499 1190.57 741.575 1195.5 735.5 1195.5 729.425 1195.5 724.5 1190.57 724.5 1184.5 724.5 1178.42 729.425 1173.5 735.5 1173.5 741.575 1173.5 746.499 1178.42 746.499 1184.5Z" stroke="#FFC000" stroke-width="3.4375" stroke-linejoin="round" stroke-miterlimit="10" fill="#FFC000"/><path d="M882.499 1180.5C882.499 1186.57 877.574 1191.5 871.5 1191.5 865.425 1191.5 860.5 1186.57 860.5 1180.5 860.5 1174.42 865.425 1169.5 871.5 1169.5 877.574 1169.5 882.499 1174.42 882.499 1180.5Z" stroke="#FFC000" stroke-width="3.4375" stroke-linejoin="round" stroke-miterlimit="10" fill="#FFC000"/><path d="M1085.5 1178.5C1085.5 1184.57 1080.57 1189.5 1074.5 1189.5 1068.42 1189.5 1063.5 1184.57 1063.5 1178.5 1063.5 1172.42 1068.42 1167.5 1074.5 1167.5 1080.57 1167.5 1085.5 1172.42 1085.5 1178.5Z" stroke="#FFC000" stroke-width="3.4375" stroke-linejoin="round" stroke-miterlimit="10" fill="#FFC000"/><path d="M1424.5 1198.5C1424.5 1204.57 1419.57 1209.5 1413.5 1209.5 1407.42 1209.5 1402.5 1204.57 1402.5 1198.5 1402.5 1192.42 1407.42 1187.5 1413.5 1187.5 1419.57 1187.5 1424.5 1192.42 1424.5 1198.5Z" stroke="#FFC000" stroke-width="3.4375" stroke-linejoin="round" stroke-miterlimit="10" fill="#FFC000"/><path d="M1763.5 1140.5C1763.5 1146.57 1758.57 1151.5 1752.5 1151.5 1746.42 1151.5 1741.5 1146.57 1741.5 1140.5 1741.5 1134.42 1746.42 1129.5 1752.5 1129.5 1758.57 1129.5 1763.5 1134.42 1763.5 1140.5Z" stroke="#FFC000" stroke-width="3.4375" stroke-linejoin="round" stroke-miterlimit="10" fill="#FFC000"/><path d="M2102.5 1168.5C2102.5 1174.57 2097.57 1179.5 2091.5 1179.5 2085.42 1179.5 2080.5 1174.57 2080.5 1168.5 2080.5 1162.42 2085.42 1157.5 2091.5 1157.5 2097.57 1157.5 2102.5 1162.42 2102.5 1168.5Z" stroke="#FFC000" stroke-width="3.4375" stroke-linejoin="round" stroke-miterlimit="10" fill="#FFC000"/><path d="M2441.5 1162.5C2441.5 1168.57 2436.57 1173.5 2430.5 1173.5 2424.42 1173.5 2419.5 1168.57 2419.5 1162.5 2419.5 1156.42 2424.42 1151.5 2430.5 1151.5 2436.57 1151.5 2441.5 1156.42 2441.5 1162.5Z" stroke="#FFC000" stroke-width="3.4375" stroke-linejoin="round" stroke-miterlimit="10" fill="#FFC000"/></g><g clip-path="url(#clip9)"><path d="M543.499 1264.5C543.499 1270.57 538.575 1275.5 532.5 1275.5 526.425 1275.5 521.5 1270.57 521.5 1264.5 521.5 1258.42 526.425 1253.5 532.5 1253.5 538.575 1253.5 543.499 1258.42 543.499 1264.5Z" stroke="#5B9BD5" stroke-width="3.4375" stroke-linejoin="round" stroke-miterlimit="10" fill="#5B9BD5"/><path d="M611.499 1274.5C611.499 1280.57 606.575 1285.5 600.5 1285.5 594.425 1285.5 589.5 1280.57 589.5 1274.5 589.5 1268.42 594.425 1263.5 600.5 1263.5 606.575 1263.5 611.499 1268.42 611.499 1274.5Z" stroke="#5B9BD5" stroke-width="3.4375" stroke-linejoin="round" stroke-miterlimit="10" fill="#5B9BD5"/><path d="M679.499 1279.5C679.499 1285.57 674.575 1290.5 668.5 1290.5 662.425 1290.5 657.5 1285.57 657.5 1279.5 657.5 1273.42 662.425 1268.5 668.5 1268.5 674.575 1268.5 679.499 1273.42 679.499 1279.5Z" stroke="#5B9BD5" stroke-width="3.4375" stroke-linejoin="round" stroke-miterlimit="10" fill="#5B9BD5"/><path d="M746.499 1282.5C746.499 1288.57 741.575 1293.5 735.5 1293.5 729.425 1293.5 724.5 1288.57 724.5 1282.5 724.5 1276.42 729.425 1271.5 735.5 1271.5 741.575 1271.5 746.499 1276.42 746.499 1282.5Z" stroke="#5B9BD5" stroke-width="3.4375" stroke-linejoin="round" stroke-miterlimit="10" fill="#5B9BD5"/><path d="M882.499 1287.5C882.499 1293.57 877.574 1298.5 871.5 1298.5 865.425 1298.5 860.5 1293.57 860.5 1287.5 860.5 1281.42 865.425 1276.5 871.5 1276.5 877.574 1276.5 882.499 1281.42 882.499 1287.5Z" stroke="#5B9BD5" stroke-width="3.4375" stroke-linejoin="round" stroke-miterlimit="10" fill="#5B9BD5"/><path d="M1085.5 1289.5C1085.5 1295.57 1080.57 1300.5 1074.5 1300.5 1068.42 1300.5 1063.5 1295.57 1063.5 1289.5 1063.5 1283.42 1068.42 1278.5 1074.5 1278.5 1080.57 1278.5 1085.5 1283.42 1085.5 1289.5Z" stroke="#5B9BD5" stroke-width="3.4375" stroke-linejoin="round" stroke-miterlimit="10" fill="#5B9BD5"/><path d="M1424.5 1268.5C1424.5 1274.57 1419.57 1279.5 1413.5 1279.5 1407.42 1279.5 1402.5 1274.57 1402.5 1268.5 1402.5 1262.42 1407.42 1257.5 1413.5 1257.5 1419.57 1257.5 1424.5 1262.42 1424.5 1268.5Z" stroke="#5B9BD5" stroke-width="3.4375" stroke-linejoin="round" stroke-miterlimit="10" fill="#5B9BD5"/><path d="M1763.5 1291.5C1763.5 1297.57 1758.57 1302.5 1752.5 1302.5 1746.42 1302.5 1741.5 1297.57 1741.5 1291.5 1741.5 1285.42 1746.42 1280.5 1752.5 1280.5 1758.57 1280.5 1763.5 1285.42 1763.5 1291.5Z" stroke="#5B9BD5" stroke-width="3.4375" stroke-linejoin="round" stroke-miterlimit="10" fill="#5B9BD5"/><path d="M2102.5 1289.5C2102.5 1295.57 2097.57 1300.5 2091.5 1300.5 2085.42 1300.5 2080.5 1295.57 2080.5 1289.5 2080.5 1283.42 2085.42 1278.5 2091.5 1278.5 2097.57 1278.5 2102.5 1283.42 2102.5 1289.5Z" stroke="#5B9BD5" stroke-width="3.4375" stroke-linejoin="round" stroke-miterlimit="10" fill="#5B9BD5"/><path d="M2441.5 1285.5C2441.5 1291.57 2436.57 1296.5 2430.5 1296.5 2424.42 1296.5 2419.5 1291.57 2419.5 1285.5 2419.5 1279.42 2424.42 1274.5 2430.5 1274.5 2436.57 1274.5 2441.5 1279.42 2441.5 1285.5Z" stroke="#5B9BD5" stroke-width="3.4375" stroke-linejoin="round" stroke-miterlimit="10" fill="#5B9BD5"/></g><g clip-path="url(#clip10)"><text fill="#595959" font-family="Calibri,Calibri_MSFontService,sans-serif" font-weight="400" font-size="41" transform="matrix(1 0 0 1 231.768 2024)">1.0E-06</text></g><g clip-path="url(#clip11)"><text fill="#595959" font-family="Calibri,Calibri_MSFontService,sans-serif" font-weight="400" font-size="41" transform="matrix(1 0 0 1 231.768 1391)">1.0E-05</text></g><g clip-path="url(#clip12)"><text fill="#595959" font-family="Calibri,Calibri_MSFontService,sans-serif" font-weight="400" font-size="41" transform="matrix(1 0 0 1 231.768 757)">1.0E-04</text></g><g clip-path="url(#clip13)"><text fill="#595959" font-family="Calibri,Calibri_MSFontService,sans-serif" font-weight="400" font-size="41" transform="matrix(1 0 0 1 231.768 123)">1.0E-03</text></g><g clip-path="url(#clip14)"><text fill="#595959" font-family="Calibri,Calibri_MSFontService,sans-serif" font-weight="400" font-size="41" transform="matrix(1 0 0 1 386.361 177)">0</text></g><g clip-path="url(#clip15)"><text fill="#595959" font-family="Calibri,Calibri_MSFontService,sans-serif" font-weight="400" font-size="41" transform="matrix(1 0 0 1 725.387 177)">5</text></g><g clip-path="url(#clip16)"><text fill="#595959" font-family="Calibri,Calibri_MSFontService,sans-serif" font-weight="400" font-size="41" transform="matrix(1 0 0 1 1053.96 177)">10</text></g><g clip-path="url(#clip17)"><text fill="#595959" font-family="Calibri,Calibri_MSFontService,sans-serif" font-weight="400" font-size="41" transform="matrix(1 0 0 1 1392.99 177)">15</text></g><g clip-path="url(#clip18)"><text fill="#595959" font-family="Calibri,Calibri_MSFontService,sans-serif" font-weight="400" font-size="41" transform="matrix(1 0 0 1 1732.02 177)">20</text></g><g clip-path="url(#clip19)"><text fill="#595959" font-family="Calibri,Calibri_MSFontService,sans-serif" font-weight="400" font-size="41" transform="matrix(1 0 0 1 2071.04 177)">25</text></g><g clip-path="url(#clip20)"><text fill="#595959" font-family="Calibri,Calibri_MSFontService,sans-serif" font-weight="400" font-size="41" transform="matrix(1 0 0 1 2410.07 177)">30</text></g><g clip-path="url(#clip21)"><text fill="#595959" font-family="Calibri,Calibri_MSFontService,sans-serif" font-weight="400" font-size="41" transform="matrix(1 0 0 1 2749.1 177)">35</text></g><g clip-path="url(#clip22)"><text fill="#595959" font-family="Calibri,Calibri_MSFontService,sans-serif" font-weight="400" font-size="46" transform="matrix(6.12323e-17 -1 1 6.12323e-17 185.545 1096)">PTE</text></g><g clip-path="url(#clip23)"><text fill="#595959" font-family="Calibri,Calibri_MSFontService,sans-serif" font-weight="400" font-size="46" transform="matrix(1 0 0 1 1432.94 2063)">Frequency / kHz</text></g><g clip-path="url(#clip24)"><path d="M3129 944C3129 950.075 3124.07 955 3118 955 3111.93 955 3107 950.075 3107 944 3107 937.925 3111.93 933 3118 933 3124.07 933 3129 937.925 3129 944Z" stroke="#4472C4" stroke-width="3.4375" stroke-linejoin="round" stroke-miterlimit="10" fill="#4472C4"/></g><g clip-path="url(#clip25)"><text fill="#595959" font-family="Calibri,Calibri_MSFontService,sans-serif" font-weight="400" font-size="41" transform="matrix(1 0 0 1 3139.9 956)">RLC: None</text></g><g clip-path="url(#clip26)"><path d="M3129 1021C3129 1027.07 3124.07 1032 3118 1032 3111.93 1032 3107 1027.07 3107 1021 3107 1014.92 3111.93 1010 3118 1010 3124.07 1010 3129 1014.92 3129 1021Z" stroke="#ED7D31" stroke-width="3.4375" stroke-linejoin="round" stroke-miterlimit="10" fill="#ED7D31"/></g><g clip-path="url(#clip27)"><text fill="#595959" font-family="Calibri,Calibri_MSFontService,sans-serif" font-weight="400" font-size="41" transform="matrix(1 0 0 1 3139.9 1033)">RLC: Full</text></g><g clip-path="url(#clip28)"><path d="M3129 1098C3129 1104.07 3124.07 1109 3118 1109 3111.93 1109 3107 1104.07 3107 1098 3107 1091.92 3111.93 1087 3118 1087 3124.07 1087 3129 1091.92 3129 1098Z" stroke="#A5A5A5" stroke-width="3.4375" stroke-linejoin="round" stroke-miterlimit="10" fill="#A5A5A5"/></g><g clip-path="url(#clip29)"><text fill="#595959" font-family="Calibri,Calibri_MSFontService,sans-serif" font-weight="400" font-size="41" transform="matrix(1 0 0 1 3139.9 1110)">RL: None</text></g><g clip-path="url(#clip30)"><path d="M3129 1176C3129 1182.07 3124.07 1187 3118 1187 3111.93 1187 3107 1182.07 3107 1176 3107 1169.92 3111.93 1165 3118 1165 3124.07 1165 3129 1169.92 3129 1176Z" stroke="#FFC000" stroke-width="3.4375" stroke-linejoin="round" stroke-miterlimit="10" fill="#FFC000"/></g><g clip-path="url(#clip31)"><text fill="#595959" font-family="Calibri,Calibri_MSFontService,sans-serif" font-weight="400" font-size="41" transform="matrix(1 0 0 1 3139.9 1188)">RL: Full</text></g><g clip-path="url(#clip32)"><path d="M3129 1253C3129 1259.07 3124.07 1264 3118 1264 3111.93 1264 3107 1259.07 3107 1253 3107 1246.92 3111.93 1242 3118 1242 3124.07 1242 3129 1246.92 3129 1253Z" stroke="#5B9BD5" stroke-width="3.4375" stroke-linejoin="round" stroke-miterlimit="10" fill="#5B9BD5"/></g><g clip-path="url(#clip33)"><text fill="#595959" font-family="Calibri,Calibri_MSFontService,sans-serif" font-weight="400" font-size="41" transform="matrix(1 0 0 1 3139.9 1265)">RL: 18 Mu</text></g><rect x="0.499836" y="0.499836" width="3359" height="2198" stroke="#D9D9D9" stroke-width="3.4375" stroke-linejoin="round" stroke-miterlimit="10" fill="none"/></g></svg>