<svg width="1644" height="990" xmlns="http://www.w3.org/2000/svg" xmlns:xlink="http://www.w3.org/1999/xlink" overflow="hidden"><defs><clipPath id="clip0"><rect x="1753" y="275" width="1644" height="990"/></clipPath><clipPath id="clip1"><rect x="1753" y="275" width="1644" height="990"/></clipPath><clipPath id="clip2"><rect x="1753" y="275" width="1644" height="990"/></clipPath><clipPath id="clip3"><rect x="1753" y="275" width="1644" height="990"/></clipPath><clipPath id="clip4"><rect x="1753" y="275" width="1644" height="990"/></clipPath><clipPath id="clip5"><rect x="2031" y="325" width="1287" height="851"/></clipPath><clipPath id="clip6"><rect x="2031" y="325" width="1287" height="851"/></clipPath><clipPath id="clip7"><rect x="1753" y="275" width="1644" height="990"/></clipPath><clipPath id="clip8"><rect x="1753" y="275" width="1644" height="990"/></clipPath><clipPath id="clip9"><rect x="1753" y="275" width="1644" height="990"/></clipPath><clipPath id="clip10"><rect x="1753" y="275" width="1644" height="990"/></clipPath><clipPath id="clip11"><rect x="1753" y="275" width="1644" height="990"/></clipPath><clipPath id="clip12"><rect x="1753" y="275" width="1644" height="990"/></clipPath><clipPath id="clip13"><rect x="1753" y="275" width="1644" height="990"/></clipPath><clipPath id="clip14"><rect x="1753" y="275" width="1644" height="990"/></clipPath><clipPath id="clip15"><rect x="1753" y="275" width="1644" height="990"/></clipPath><clipPath id="clip16"><rect x="1753" y="275" width="1644" height="990"/></clipPath><clipPath id="clip17"><rect x="1753" y="275" width="1644" height="990"/></clipPath><clipPath id="clip18"><rect x="1753" y="275" width="1644" height="990"/></clipPath><clipPath id="clip19"><rect x="1753" y="275" width="1644" height="990"/></clipPath><clipPath id="clip20"><rect x="1753" y="275" width="1644" height="990"/></clipPath><clipPath id="clip21"><rect x="1753" y="275" width="1644" height="990"/></clipPath><clipPath id="clip22"><rect x="1753" y="275" width="1644" height="990"/></clipPath><clipPath id="clip23"><rect x="1753" y="275" width="1644" height="990"/></clipPath><clipPath id="clip24"><rect x="1753" y="275" width="1644" height="990"/></clipPath><clipPath id="clip25"><rect x="1753" y="275" width="1644" height="990"/></clipPath><clipPath id="clip26"><rect x="1753" y="275" width="1644" height="990"/></clipPath><clipPath id="clip27"><rect x="1753" y="275" width="1644" height="990"/></clipPath><clipPath id="clip28"><rect x="1753" y="275" width="1644" height="990"/></clipPath><clipPath id="clip29"><rect x="2510" y="797" width="479" height="116"/></clipPath><clipPath id="clip30"><rect x="2510" y="797" width="479" height="116"/></clipPath><clipPath id="clip31"><rect x="2510" y="797" width="479" height="116"/></clipPath><clipPath id="clip32"><rect x="2510" y="797" width="479" height="116"/></clipPath><clipPath id="clip33"><rect x="2510" y="797" width="479" height="116"/></clipPath></defs><g clip-path="url(#clip0)" transform="translate(-1753 -275)"><rect x="1753" y="275" width="1644" height="990" fill="#FFFFFF"/><g clip-path="url(#clip1)"><path d="M2031.5 1172.5 3315.5 1172.5M2031.5 1051.53 3315.5 1051.53M2031.5 930.531 3315.5 930.531M2031.5 809.527 3315.5 809.527M2031.5 688.523 3315.5 688.523M2031.5 567.519 3315.5 567.519M2031.5 446.515 3315.5 446.515" stroke="#D9D9D9" stroke-width="3.4375" stroke-linejoin="round" stroke-miterlimit="10" fill="none"/></g><g clip-path="url(#clip2)"><path d="M2215.57 325.5 2215.57 1172.5M2398.58 325.5 2398.58 1172.5M2581.58 325.5 2581.58 1172.5M2765.59 325.5 2765.59 1172.5M2948.6 325.5 2948.6 1172.5M3131.6 325.5 3131.6 1172.5M3315.5 325.5 3315.5 1172.5" stroke="#D9D9D9" stroke-width="3.4375" stroke-linejoin="round" stroke-miterlimit="10" fill="none"/></g><g clip-path="url(#clip3)"><path d="M0 0 0.000360892 847" stroke="#BFBFBF" stroke-width="3.4375" stroke-linejoin="round" stroke-miterlimit="10" fill="none" fill-rule="evenodd" transform="matrix(1 0 0 -1 2031.5 1172.5)"/></g><g clip-path="url(#clip4)"><path d="M2031.5 325.5 3315.5 325.5" stroke="#BFBFBF" stroke-width="3.4375" stroke-linejoin="round" stroke-miterlimit="10" fill="none" fill-rule="evenodd"/></g><g clip-path="url(#clip5)"><path d="M2123.5 325.5 2125.57 331.511 2127.57 337.511 2128.57 343.511 2130.57 349.512 2132.57 355.512 2134.57 361.512 2136.57 366.512 2138.57 372.512 2139.57 377.513 2141.57 382.513 2143.57 388.513 2145.57 393.513 2147.57 398.513 2149.57 403.513 2150.57 408.514 2152.57 412.514 2154.57 417.514 2156.57 422.514 2158.57 427.514 2160.57 431.514 2161.57 436.514 2163.57 440.515 2165.57 444.515 2167.57 449.515 2169.57 453.515 2171.57 457.515 2172.57 461.515 2174.57 465.515 2176.57 469.516 2178.57 473.516 2180.57 477.516 2182.57 481.516 2183.57 485.516 2185.57 489.516 2187.57 492.516 2189.57 496.516 2191.57 500.517 2193.57 503.517 2194.57 507.517 2196.57 510.517 2198.57 514.517 2200.57 517.517 2202.57 521.517 2204.57 524.517 2205.57 527.517 2207.57 531.518 2209.57 534.518 2211.57 537.518 2213.57 540.518 2215.57 544.518 2216.57 547.518 2218.57 550.518 2220.57 553.518 2222.57 556.518 2224.57 559.519 2226.57 562.519 2227.57 565.519 2229.57 568.519 2231.57 571.519 2233.57 574.519 2235.57 577.519 2237.57 579.519 2238.57 582.519 2240.57 585.519 2242.57 588.519 2244.57 590.52 2246.57 593.52 2248.57 596.52 2249.57 598.52 2251.57 601.52 2253.57 604.52 2255.57 606.52 2257.57 609.52 2259.57 611.52 2260.57 614.52 2262.57 617.52 2264.57 619.521 2266.57 621.521 2268.57 624.521 2270.57 626.521 2271.57 629.521 2273.57 631.521 2275.57 634.521 2277.57 636.521 2279.57 638.521 2281.57 641.521 2282.57 643.521 2284.57 645.521 2286.58 647.521 2288.58 650.521 2290.58 652.522 2292.58 654.522 2293.58 656.522 2295.58 659.522 2297.58 661.522 2299.58 663.522 2301.58 665.522 2303.58 667.522 2304.58 669.522 2306.58 672.522 2308.58 674.522 2310.58 676.522 2312.58 678.522 2314.58 680.522 2315.58 682.523 2317.58 684.523 2319.58 686.523 2321.58 688.523 2323.58 690.523 2325.58 692.523 2326.58 694.523 2328.58 696.523 2330.58 698.523 2332.58 700.523 2334.58 702.523 2336.58 703.523 2337.58 705.523 2339.58 707.523 2341.58 709.523 2343.58 711.524 2345.58 713.524 2347.58 715.524 2348.58 717.524 2350.58 718.524 2352.58 720.524 2354.58 722.524 2356.58 724.524 2358.58 726.524 2359.58 727.524 2361.58 729.524 2363.58 731.524 2365.58 733.524 2367.58 734.524 2369.58 736.524 2370.58 738.524 2372.58 739.524 2374.58 741.525 2376.58 743.525 2378.58 744.525 2380.58 746.525 2381.58 748.525 2383.58 749.525 2385.58 751.525 2387.58 753.525 2389.58 754.525 2391.58 756.525 2392.58 758.525 2394.58 759.525 2396.58 761.525 2398.58 762.525 2400.58 764.525 2402.58 765.525 2403.58 767.525 2405.58 769.525 2407.58 770.525 2409.58 772.526 2411.58 773.526 2413.58 775.526 2414.58 776.526 2416.58 778.526 2418.58 779.526 2420.58 781.526 2422.58 782.526 2424.58 784.526 2425.58 785.526 2427.58 787.526 2429.58 788.526 2431.58 789.526 2433.58 791.526 2435.58 792.526 2436.58 794.526 2438.58 795.526 2440.58 797.526 2442.58 798.526 2444.58 799.526 2446.58 801.526 2447.58 802.526 2449.58 804.527 2451.58 805.527 2453.58 806.527 2455.58 808.527 2457.58 809.527 2458.58 810.527 2460.58 812.527 2462.58 813.527 2464.58 814.527 2466.58 816.527 2468.58 817.527 2469.58 818.527 2471.58 820.527 2473.58 821.527 2475.58 822.527 2477.58 824.527 2479.58 825.527 2480.58 826.527 2482.58 828.527 2484.58 829.527 2486.58 830.527 2488.58 831.527 2490.58 833.528 2491.58 834.528 2493.58 835.528 2495.58 836.528 2497.58 838.528 2499.58 839.528 2501.58 840.528 2502.58 841.528 2504.58 843.528 2506.58 844.528 2508.58 845.528 2510.58 846.528 2512.58 847.528 2513.58 849.528 2515.58 850.528 2517.58 851.528 2519.58 852.528 2521.58 853.528 2523.58 855.528 2524.58 856.528 2526.58 857.528 2528.58 858.528 2530.58 859.528 2532.58 860.528 2534.58 862.528 2535.58 863.529 2537.58 864.529 2539.58 865.529 2541.58 866.529 2543.58 867.529 2545.58 868.529 2546.58 870.529 2548.58 871.529 2550.58 872.529 2552.58 873.529 2554.58 874.529 2556.58 875.529 2557.58 876.529 2559.58 877.529 2561.58 878.529 2563.58 879.529 2565.58 881.529 2567.58 882.529 2568.58 883.529 2570.58 884.529 2572.58 885.529 2574.58 886.529 2576.58 887.529 2578.58 888.529 2579.58 889.529 2581.58 890.529 2583.58 891.529 2585.58 892.529 2587.58 893.53 2589.58 894.53 2590.58 895.53 2592.59 896.53 2594.59 897.53 2596.59 898.53 2598.59 900.53 2600.59 901.53 2601.59 902.53 2603.59 903.53 2605.59 904.53 2607.59 905.53 2609.59 906.53 2611.59 907.53 2612.59 908.53 2614.59 909.53 2616.59 910.53 2618.59 911.53 2620.59 912.53 2622.59 913.53 2623.59 913.53 2625.59 914.53 2627.59 915.53 2629.59 916.53 2631.59 917.53 2633.59 918.53 2634.59 919.53 2636.59 920.53 2638.59 921.53 2640.59 922.53 2642.59 923.531 2644.59 924.531 2645.59 925.531 2647.59 926.531 2649.59 927.531 2651.59 928.531 2653.59 929.531 2655.59 930.531 2656.59 931.531 2658.59 932.531 2660.59 932.531 2662.59 933.531 2664.59 934.531 2666.59 935.531 2667.59 936.531 2669.59 937.531 2671.59 938.531 2673.59 939.531 2675.59 940.531 2677.59 941.531 2678.59 942.531 2680.59 942.531 2682.59 943.531 2684.59 944.531 2686.59 945.531 2688.59 946.531 2689.59 947.531 2691.59 948.531 2693.59 949.531 2695.59 949.531 2697.59 950.531 2699.59 951.531 2700.59 952.531 2702.59 953.531 2704.59 954.531 2706.59 955.531 2708.59 956.532 2710.59 956.532 2711.59 957.532 2713.59 958.532 2715.59 959.532 2717.59 960.532 2719.59 961.532 2721.59 961.532 2722.59 962.532 2724.59 963.532 2726.59 964.532 2728.59 965.532 2730.59 966.532 2732.59 966.532 2733.59 967.532 2735.59 968.532 2737.59 969.532 2739.59 970.532 2741.59 971.532 2743.59 971.532 2744.59 972.532 2746.59 973.532 2748.59 974.532 2750.59 975.532 2752.59 975.532 2754.59 976.532 2755.59 977.532 2757.59 978.532 2759.59 979.532 2761.59 979.532 2763.59 980.532 2765.59 981.532 2767.59 982.532 2768.59 983.532 2770.59 983.532 2772.59 984.532 2774.59 985.532 2776.59 986.533 2778.59 986.533 2779.59 987.533 2781.59 988.533 2783.59 989.533 2785.59 990.533 2787.59 990.533 2789.59 991.533 2790.59 992.533 2792.59 993.533 2794.59 993.533 2796.59 994.533 2798.59 995.533 2800.59 996.533 2801.59 996.533 2803.59 997.533 2805.59 998.533 2807.59 999.533 2809.59 999.533 2811.59 1000.53 2812.59 1001.53 2814.59 1002.53 2816.59 1002.53 2818.59 1003.53 2820.59 1004.53 2822.59 1005.53 2823.59 1005.53 2825.59 1006.53 2827.59 1007.53 2829.59 1007.53 2831.59 1008.53 2833.59 1009.53 2834.59 1010.53 2836.59 1010.53 2838.59 1011.53 2840.59 1012.53 2842.59 1012.53 2844.59 1013.53 2845.59 1014.53 2847.59 1015.53 2849.59 1015.53 2851.59 1016.53 2853.59 1017.53 2855.59 1017.53 2856.59 1018.53 2858.59 1019.53 2860.59 1020.53 2862.59 1020.53 2864.59 1021.53 2866.59 1022.53 2867.59 1022.53 2869.59 1023.53 2871.59 1024.53 2873.59 1024.53 2875.59 1025.53 2877.59 1026.53 2878.59 1026.53 2880.59 1027.53 2882.59 1028.53 2884.59 1028.53 2886.59 1029.53 2888.59 1030.53 2889.59 1030.53 2891.59 1031.53 2893.59 1032.53 2895.6 1033.53 2897.6 1033.53 2899.6 1034.53 2900.6 1035.53 2902.6 1035.53 2904.6 1036.53 2906.6 1036.53 2908.6 1037.53 2910.6 1038.53 2911.6 1038.53 2913.6 1039.53 2915.6 1040.53 2917.6 1040.53 2919.6 1041.53 2921.6 1042.53 2922.6 1042.53 2924.6 1043.53 2926.6 1044.53 2928.6 1044.53 2930.6 1045.53 2932.6 1046.53 2933.6 1046.53 2935.6 1047.53 2937.6 1048.53 2939.6 1048.53 2941.6 1049.53 2943.6 1049.53 2944.6 1050.53 2946.6 1051.53 2948.6 1051.53 2950.6 1052.53 2952.6 1053.53 2954.6 1053.53 2955.6 1054.53 2957.6 1054.53 2959.6 1055.53 2961.6 1056.53 2963.6 1056.53 2965.6 1057.53 2966.6 1058.53 2968.6 1058.53 2970.6 1059.53 2972.6 1059.53 2974.6 1060.53 2976.6 1061.54 2977.6 1061.54 2979.6 1062.54 2981.6 1063.54 2983.6 1063.54 2985.6 1064.54 2987.6 1064.54 2988.6 1065.54 2990.6 1066.54 2992.6 1066.54 2994.6 1067.54 2996.6 1067.54 2998.6 1068.54 2999.6 1069.54 3001.6 1069.54 3003.6 1070.54 3005.6 1070.54 3007.6 1071.54 3009.6 1072.54 3010.6 1072.54 3012.6 1073.54 3014.6 1073.54 3016.6 1074.54 3018.6 1074.54 3020.6 1075.54 3021.6 1076.54 3023.6 1076.54 3025.6 1077.54 3027.6 1077.54 3029.6 1078.54 3031.6 1079.54 3032.6 1079.54 3034.6 1080.54 3036.6 1080.54 3038.6 1081.54 3040.6 1081.54 3042.6 1082.54 3043.6 1083.54 3045.6 1083.54 3047.6 1084.54 3049.6 1084.54 3051.6 1085.54 3053.6 1085.54 3054.6 1086.54 3056.6 1087.54 3058.6 1087.54 3060.6 1088.54 3062.6 1088.54 3064.6 1089.54 3065.6 1089.54 3067.6 1090.54 3069.6 1090.54 3071.6 1091.54 3073.6 1092.54 3075.6 1092.54 3076.6 1093.54 3078.6 1093.54 3080.6 1094.54 3082.6 1094.54 3084.6 1095.54 3086.6 1095.54 3087.6 1096.54 3089.6 1097.54 3091.6 1097.54 3093.6 1098.54 3095.6 1098.54 3097.6 1099.54 3098.6 1099.54 3100.6 1100.54 3102.6 1100.54 3104.6 1101.54 3106.6 1101.54 3108.6 1102.54 3109.6 1103.54 3111.6 1103.54 3113.6 1104.54 3115.6 1104.54 3117.6 1105.54 3119.6 1105.54 3120.6 1106.54 3122.6 1106.54 3124.6 1107.54 3126.6 1107.54 3128.6 1108.54 3130.6 1108.54 3131.6 1109.54 3133.6 1109.54 3135.6 1110.54 3137.6 1110.54 3139.6 1111.54 3141.6 1111.54 3142.6 1112.54 3144.6 1113.54 3146.6 1113.54 3148.6 1114.54 3150.6 1114.54 3152.6 1115.54 3153.6 1115.54 3155.6 1116.54 3157.6 1116.54 3159.6 1117.54 3161.6 1117.54 3163.6 1118.54 3164.6 1118.54 3166.6 1119.54 3168.6 1119.54 3170.6 1120.54 3172.6 1120.54 3174.6 1121.54 3175.6 1121.54 3177.6 1122.54 3179.6 1122.54 3181.6 1123.54 3183.6 1123.54 3185.6 1124.54 3186.6 1124.54 3188.6 1125.54 3190.6 1125.54 3192.6 1126.54 3194.5 1126.5" stroke="#ED7D31" stroke-width="6.875" stroke-linecap="round" stroke-linejoin="round" stroke-miterlimit="10" fill="none"/></g><g clip-path="url(#clip6)"><path d="M2123.5 687.5 2125.57 688.523 2127.57 689.523 2128.57 691.523 2130.57 692.523 2132.57 693.523 2134.57 694.523 2136.57 696.523 2138.57 697.523 2139.57 698.523 2141.57 699.523 2143.57 700.523 2145.57 702.523 2147.57 703.523 2149.57 704.523 2150.57 705.523 2152.57 706.523 2154.57 708.523 2156.57 709.523 2158.57 710.523 2160.57 711.523 2161.57 712.524 2163.57 713.524 2165.57 715.524 2167.57 716.524 2169.57 717.524 2171.57 718.524 2172.57 719.524 2174.57 720.524 2176.57 722.524 2178.57 723.524 2180.57 724.524 2182.57 725.524 2183.57 726.524 2185.57 727.524 2187.57 728.524 2189.57 729.524 2191.57 730.524 2193.57 732.524 2194.57 733.524 2196.57 734.524 2198.57 735.524 2200.57 736.524 2202.57 737.524 2204.57 738.524 2205.57 739.524 2207.57 740.524 2209.57 741.525 2211.57 742.525 2213.57 743.525 2215.57 744.525 2216.57 745.525 2218.57 746.525 2220.57 748.525 2222.57 749.525 2224.57 750.525 2226.57 751.525 2227.57 752.525 2229.57 753.525 2231.57 754.525 2233.57 755.525 2235.57 756.525 2237.57 757.525 2238.57 758.525 2240.57 759.525 2242.57 760.525 2244.57 761.525 2246.57 762.525 2248.57 763.525 2249.57 764.525 2251.57 765.525 2253.57 766.525 2255.57 767.525 2257.57 768.525 2259.57 769.525 2260.57 770.525 2262.57 771.526 2264.57 772.526 2266.57 773.526 2268.57 774.526 2270.57 774.526 2271.57 775.526 2273.57 776.526 2275.57 777.526 2277.57 778.526 2279.57 779.526 2281.57 780.526 2282.57 781.526 2284.57 782.526 2286.58 783.526 2288.58 784.526 2290.58 785.526 2292.58 786.526 2293.58 787.526 2295.58 788.526 2297.58 788.526 2299.58 789.526 2301.58 790.526 2303.58 791.526 2304.58 792.526 2306.58 793.526 2308.58 794.526 2310.58 795.526 2312.58 796.526 2314.58 797.526 2315.58 798.526 2317.58 798.526 2319.58 799.526 2321.58 800.526 2323.58 801.526 2325.58 802.526 2326.58 803.527 2328.58 804.527 2330.58 805.527 2332.58 805.527 2334.58 806.527 2336.58 807.527 2337.58 808.527 2339.58 809.527 2341.58 810.527 2343.58 811.527 2345.58 811.527 2347.58 812.527 2348.58 813.527 2350.58 814.527 2352.58 815.527 2354.58 816.527 2356.58 816.527 2358.58 817.527 2359.58 818.527 2361.58 819.527 2363.58 820.527 2365.58 821.527 2367.58 821.527 2369.58 822.527 2370.58 823.527 2372.58 824.527 2374.58 825.527 2376.58 826.527 2378.58 826.527 2380.58 827.527 2381.58 828.527 2383.58 829.527 2385.58 830.527 2387.58 830.527 2389.58 831.527 2391.58 832.527 2392.58 833.528 2394.58 834.528 2396.58 834.528 2398.58 835.528 2400.58 836.528 2402.58 837.528 2403.58 838.528 2405.58 838.528 2407.58 839.528 2409.58 840.528 2411.58 841.528 2413.58 841.528 2414.58 842.528 2416.58 843.528 2418.58 844.528 2420.58 844.528 2422.58 845.528 2424.58 846.528 2425.58 847.528 2427.58 848.528 2429.58 848.528 2431.58 849.528 2433.58 850.528 2435.58 851.528 2436.58 851.528 2438.58 852.528 2440.58 853.528 2442.58 854.528 2444.58 854.528 2446.58 855.528 2447.58 856.528 2449.58 857.528 2451.58 857.528 2453.58 858.528 2455.58 859.528 2457.58 859.528 2458.58 860.528 2460.58 861.528 2462.58 862.528 2464.58 862.528 2466.58 863.529 2468.58 864.529 2469.58 865.529 2471.58 865.529 2473.58 866.529 2475.58 867.529 2477.58 867.529 2479.58 868.529 2480.58 869.529 2482.58 870.529 2484.58 870.529 2486.58 871.529 2488.58 872.529 2490.58 872.529 2491.58 873.529 2493.58 874.529 2495.58 874.529 2497.58 875.529 2499.58 876.529 2501.58 877.529 2502.58 877.529 2504.58 878.529 2506.58 879.529 2508.58 879.529 2510.58 880.529 2512.58 881.529 2513.58 881.529 2515.58 882.529 2517.58 883.529 2519.58 883.529 2521.58 884.529 2523.58 885.529 2524.58 885.529 2526.58 886.529 2528.58 887.529 2530.58 887.529 2532.58 888.529 2534.58 889.529 2535.58 889.529 2537.58 890.529 2539.58 891.529 2541.58 891.529 2543.58 892.529 2545.58 893.529 2546.58 893.529 2548.58 894.53 2550.58 895.53 2552.58 895.53 2554.58 896.53 2556.58 897.53 2557.58 897.53 2559.58 898.53 2561.58 899.53 2563.58 899.53 2565.58 900.53 2567.58 900.53 2568.58 901.53 2570.58 902.53 2572.58 902.53 2574.58 903.53 2576.58 904.53 2578.58 904.53 2579.58 905.53 2581.58 906.53 2583.58 906.53 2585.58 907.53 2587.58 907.53 2589.58 908.53 2590.58 909.53 2592.59 909.53 2594.59 910.53 2596.59 911.53 2598.59 911.53 2600.59 912.53 2601.59 912.53 2603.59 913.53 2605.59 914.53 2607.59 914.53 2609.59 915.53 2611.59 916.53 2612.59 916.53 2614.59 917.53 2616.59 917.53 2618.59 918.53 2620.59 919.53 2622.59 919.53 2623.59 920.53 2625.59 920.53 2627.59 921.53 2629.59 922.53 2631.59 922.53 2633.59 923.53 2634.59 923.53 2636.59 924.531 2638.59 925.531 2640.59 925.531 2642.59 926.531 2644.59 926.531 2645.59 927.531 2647.59 927.531 2649.59 928.531 2651.59 929.531 2653.59 929.531 2655.59 930.531 2656.59 930.531 2658.59 931.531 2660.59 932.531 2662.59 932.531 2664.59 933.531 2666.59 933.531 2667.59 934.531 2669.59 934.531 2671.59 935.531 2673.59 936.531 2675.59 936.531 2677.59 937.531 2678.59 937.531 2680.59 938.531 2682.59 938.531 2684.59 939.531 2686.59 940.531 2688.59 940.531 2689.59 941.531 2691.59 941.531 2693.59 942.531 2695.59 942.531 2697.59 943.531 2699.59 944.531 2700.59 944.531 2702.59 945.531 2704.59 945.531 2706.59 946.531 2708.59 946.531 2710.59 947.531 2711.59 947.531 2713.59 948.531 2715.59 949.531 2717.59 949.531 2719.59 950.531 2721.59 950.531 2722.59 951.531 2724.59 951.531 2726.59 952.531 2728.59 952.531 2730.59 953.531 2732.59 953.531 2733.59 954.531 2735.59 955.531 2737.59 955.531 2739.59 956.532 2741.59 956.532 2743.59 957.532 2744.59 957.532 2746.59 958.532 2748.59 958.532 2750.59 959.532 2752.59 959.532 2754.59 960.532 2755.59 960.532 2757.59 961.532 2759.59 962.532 2761.59 962.532 2763.59 963.532 2765.59 963.532 2767.59 964.532 2768.59 964.532 2770.59 965.532 2772.59 965.532 2774.59 966.532 2776.59 966.532 2778.59 967.532 2779.59 967.532 2781.59 968.532 2783.59 968.532 2785.59 969.532 2787.59 969.532 2789.59 970.532 2790.59 970.532 2792.59 971.532 2794.59 971.532 2796.59 972.532 2798.59 972.532 2800.59 973.532 2801.59 973.532 2803.59 974.532 2805.59 974.532 2807.59 975.532 2809.59 975.532 2811.59 976.532 2812.59 976.532 2814.59 977.532 2816.59 977.532 2818.59 978.532 2820.59 978.532 2822.59 979.532 2823.59 979.532 2825.59 980.532 2827.59 980.532 2829.59 981.532 2831.59 981.532 2833.59 982.532 2834.59 982.532 2836.59 983.532 2838.59 983.532 2840.59 984.532 2842.59 984.532 2844.59 985.532 2845.59 985.532 2847.59 986.533 2849.59 986.533 2851.59 987.533 2853.59 987.533 2855.59 988.533 2856.59 988.533 2858.59 989.533 2860.59 989.533 2862.59 990.533 2864.59 990.533 2866.59 991.533 2867.59 991.533 2869.59 992.533 2871.59 992.533 2873.59 993.533 2875.59 993.533 2877.59 994.533 2878.59 994.533 2880.59 995.533 2882.59 995.533 2884.59 996.533 2886.59 996.533 2888.59 996.533 2889.59 997.533 2891.59 997.533 2893.59 998.533 2895.6 998.533 2897.6 999.533 2899.6 999.533 2900.6 1000.53 2902.6 1000.53 2904.6 1001.53 2906.6 1001.53 2908.6 1002.53 2910.6 1002.53 2911.6 1003.53 2913.6 1003.53 2915.6 1004.53 2917.6 1004.53 2919.6 1004.53 2921.6 1005.53 2922.6 1005.53 2924.6 1006.53 2926.6 1006.53 2928.6 1007.53 2930.6 1007.53 2932.6 1008.53 2933.6 1008.53 2935.6 1009.53 2937.6 1009.53 2939.6 1009.53 2941.6 1010.53 2943.6 1010.53 2944.6 1011.53 2946.6 1011.53 2948.6 1012.53 2950.6 1012.53 2952.6 1013.53 2954.6 1013.53 2955.6 1014.53 2957.6 1014.53 2959.6 1014.53 2961.6 1015.53 2963.6 1015.53 2965.6 1016.53 2966.6 1016.53 2968.6 1017.53 2970.6 1017.53 2972.6 1018.53 2974.6 1018.53 2976.6 1018.53 2977.6 1019.53 2979.6 1019.53 2981.6 1020.53 2983.6 1020.53 2985.6 1021.53 2987.6 1021.53 2988.6 1021.53 2990.6 1022.53 2992.6 1022.53 2994.6 1023.53 2996.6 1023.53 2998.6 1024.53 2999.6 1024.53 3001.6 1025.53 3003.6 1025.53 3005.6 1025.53 3007.6 1026.53 3009.6 1026.53 3010.6 1027.53 3012.6 1027.53 3014.6 1028.53 3016.6 1028.53 3018.6 1028.53 3020.6 1029.53 3021.6 1029.53 3023.6 1030.53 3025.6 1030.53 3027.6 1031.53 3029.6 1031.53 3031.6 1031.53 3032.6 1032.53 3034.6 1032.53 3036.6 1033.53 3038.6 1033.53 3040.6 1033.53 3042.6 1034.53 3043.6 1034.53 3045.6 1035.53 3047.6 1035.53 3049.6 1036.53 3051.6 1036.53 3053.6 1036.53 3054.6 1037.53 3056.6 1037.53 3058.6 1038.53 3060.6 1038.53 3062.6 1038.53 3064.6 1039.53 3065.6 1039.53 3067.6 1040.53 3069.6 1040.53 3071.6 1041.53 3073.6 1041.53 3075.6 1041.53 3076.6 1042.53 3078.6 1042.53 3080.6 1043.53 3082.6 1043.53 3084.6 1043.53 3086.6 1044.53 3087.6 1044.53 3089.6 1045.53 3091.6 1045.53 3093.6 1045.53 3095.6 1046.53 3097.6 1046.53 3098.6 1047.53 3100.6 1047.53 3102.6 1047.53 3104.6 1048.53 3106.6 1048.53 3108.6 1049.53 3109.6 1049.53 3111.6 1049.53 3113.6 1050.53 3115.6 1050.53 3117.6 1051.53 3119.6 1051.53 3120.6 1051.53 3122.6 1052.53 3124.6 1052.53 3126.6 1053.53 3128.6 1053.53 3130.6 1053.53 3131.6 1054.53 3133.6 1054.53 3135.6 1055.53 3137.6 1055.53 3139.6 1055.53 3141.6 1056.53 3142.6 1056.53 3144.6 1057.53 3146.6 1057.53 3148.6 1057.53 3150.6 1058.53 3152.6 1058.53 3153.6 1059.53 3155.6 1059.53 3157.6 1059.53 3159.6 1060.53 3161.6 1060.53 3163.6 1060.53 3164.6 1061.54 3166.6 1061.54 3168.6 1062.54 3170.6 1062.54 3172.6 1062.54 3174.6 1063.54 3175.6 1063.54 3177.6 1064.54 3179.6 1064.54 3181.6 1064.54 3183.6 1065.54 3185.6 1065.54 3186.6 1065.54 3188.6 1066.54 3190.6 1066.54 3192.6 1067.54 3194.5 1067.5" stroke="#4472C4" stroke-width="6.875" stroke-linecap="round" stroke-linejoin="round" stroke-miterlimit="10" fill="none"/></g><g clip-path="url(#clip7)"><text fill="#595959" font-family="Calibri,Calibri_MSFontService,sans-serif" font-weight="400" font-size="41" transform="matrix(1 0 0 1 1866.77 1185)">1.0E-07</text></g><g clip-path="url(#clip8)"><text fill="#595959" font-family="Calibri,Calibri_MSFontService,sans-serif" font-weight="400" font-size="41" transform="matrix(1 0 0 1 1866.77 1063)">1.0E-06</text></g><g clip-path="url(#clip9)"><text fill="#595959" font-family="Calibri,Calibri_MSFontService,sans-serif" font-weight="400" font-size="41" transform="matrix(1 0 0 1 1866.77 942)">1.0E-05</text></g><g clip-path="url(#clip10)"><text fill="#595959" font-family="Calibri,Calibri_MSFontService,sans-serif" font-weight="400" font-size="41" transform="matrix(1 0 0 1 1866.77 821)">1.0E-04</text></g><g clip-path="url(#clip11)"><text fill="#595959" font-family="Calibri,Calibri_MSFontService,sans-serif" font-weight="400" font-size="41" transform="matrix(1 0 0 1 1866.77 700)">1.0E-03</text></g><g clip-path="url(#clip12)"><text fill="#595959" font-family="Calibri,Calibri_MSFontService,sans-serif" font-weight="400" font-size="41" transform="matrix(1 0 0 1 1866.77 579)">1.0E-02</text></g><g clip-path="url(#clip13)"><text fill="#595959" font-family="Calibri,Calibri_MSFontService,sans-serif" font-weight="400" font-size="41" transform="matrix(1 0 0 1 1866.77 458)">1.0E-01</text></g><g clip-path="url(#clip14)"><text fill="#595959" font-family="Calibri,Calibri_MSFontService,sans-serif" font-weight="400" font-size="41" transform="matrix(1 0 0 1 1858.86 337)">1.0E+00</text></g><g clip-path="url(#clip15)"><text fill="#595959" font-family="Calibri,Calibri_MSFontService,sans-serif" font-weight="400" font-size="41" transform="matrix(1 0 0 1 2021.36 391)">0</text></g><g clip-path="url(#clip16)"><text fill="#595959" font-family="Calibri,Calibri_MSFontService,sans-serif" font-weight="400" font-size="41" transform="matrix(1 0 0 1 2194.27 391)">20</text></g><g clip-path="url(#clip17)"><text fill="#595959" font-family="Calibri,Calibri_MSFontService,sans-serif" font-weight="400" font-size="41" transform="matrix(1 0 0 1 2377.63 391)">40</text></g><g clip-path="url(#clip18)"><text fill="#595959" font-family="Calibri,Calibri_MSFontService,sans-serif" font-weight="400" font-size="41" transform="matrix(1 0 0 1 2561 391)">60</text></g><g clip-path="url(#clip19)"><text fill="#595959" font-family="Calibri,Calibri_MSFontService,sans-serif" font-weight="400" font-size="41" transform="matrix(1 0 0 1 2744.36 391)">80</text></g><g clip-path="url(#clip20)"><text fill="#595959" font-family="Calibri,Calibri_MSFontService,sans-serif" font-weight="400" font-size="41" transform="matrix(1 0 0 1 2917.27 391)">100</text></g><g clip-path="url(#clip21)"><text fill="#595959" font-family="Calibri,Calibri_MSFontService,sans-serif" font-weight="400" font-size="41" transform="matrix(1 0 0 1 3100.63 391)">120</text></g><g clip-path="url(#clip22)"><text fill="#595959" font-family="Calibri,Calibri_MSFontService,sans-serif" font-weight="400" font-size="41" transform="matrix(1 0 0 1 3283.99 391)">140</text></g><g clip-path="url(#clip23)"><text fill="#595959" font-family="Calibri,Calibri_MSFontService,sans-serif" font-weight="400" font-size="55" transform="matrix(6.12323e-17 -1 1 6.12323e-17 1825.75 981)">Power transfered / W</text></g><g clip-path="url(#clip24)"><text fill="#595959" font-family="Calibri,Calibri_MSFontService,sans-serif" font-weight="400" font-size="55" transform="matrix(1 0 0 1 2388.18 1232)">Free space distance / mm</text></g><g clip-path="url(#clip25)"><path d="M2041.5 1134.5 2129.5 1134.5" stroke="#ED7D31" stroke-width="6.875" stroke-linecap="round" stroke-linejoin="round" stroke-miterlimit="10" fill="none" fill-rule="evenodd"/></g><g clip-path="url(#clip26)"><text fill="#595959" font-family="Calibri,Calibri_MSFontService,sans-serif" font-weight="400" font-size="41" transform="matrix(1 0 0 1 2139.01 1146)">No Shell</text></g><g clip-path="url(#clip27)"><path d="M2294.5 1134.5 2382.5 1134.5" stroke="#4472C4" stroke-width="6.875" stroke-linecap="round" stroke-linejoin="round" stroke-miterlimit="10" fill="none" fill-rule="evenodd"/></g><g clip-path="url(#clip28)"><text fill="#595959" font-family="Calibri,Calibri_MSFontService,sans-serif" font-weight="400" font-size="41" transform="matrix(1 0 0 1 2391.62 1146)">Shell R=4</text></g><path d="M2622.65 841.34 2624.07 841.34 2619.28 862.654 2620.06 862.654C2621.28 862.654 2622.66 862.121 2624.18 861.055 2625.7 859.988 2626.92 859 2627.83 858.088 2628.74 857.177 2629.19 856.298 2629.19 855.451 2629.19 854.654 2628.64 854.206 2627.53 854.109L2627.8 852.912 2635.71 852.912 2636.18 854.109C2634.83 855.329 2633.39 856.526 2631.88 857.698L2625.83 862.385 2628.22 871.199C2628.41 871.947 2628.59 872.488 2628.74 872.822 2628.9 873.156 2629.08 873.404 2629.28 873.567 2629.48 873.729 2629.76 873.811 2630.1 873.811 2630.52 873.811 2631.03 873.583 2631.61 873.127 2632.2 872.672 2632.86 872.012 2633.61 871.15L2635.01 872.517C2633.54 874.063 2632.33 875.137 2631.37 875.74 2630.41 876.342 2629.48 876.643 2628.58 876.643 2627.48 876.643 2626.6 876.33 2625.95 875.703 2625.3 875.076 2624.78 874.031 2624.41 872.566L2622.8 866.218C2622.64 865.583 2622.47 865.144 2622.31 864.9 2622.15 864.656 2621.96 864.493 2621.75 864.411 2621.54 864.33 2621.16 864.289 2620.63 864.289L2618.94 864.289 2616.4 876.252 2612.18 876.252 2618.45 848.347C2618.66 847.403 2618.81 846.667 2618.9 846.138 2618.99 845.609 2619.04 845.141 2619.04 844.734 2619.04 844.05 2618.83 843.57 2618.42 843.293 2618 843.017 2617.26 842.862 2616.18 842.829L2616.48 841.56Z" fill-rule="evenodd"/><text fill="#000000" fill-opacity="0" font-family="Arial,Arial_MSFontService,sans-serif" font-size="35.3027" x="2612.18" y="872.23">ğ‘˜</text><path d="M2656.86 865.412 2686.94 865.412 2686.94 868.659 2656.86 868.659ZM2656.86 855.281 2686.94 855.281 2686.94 858.528 2656.86 858.528Z" fill-rule="evenodd"/><text fill="#000000" fill-opacity="0" font-family="Arial,Arial_MSFontService,sans-serif" font-size="13.3789" x="2656.86" y="866.987">=</text><g clip-path="url(#clip29)"><path d="M2797.28 806.919C2796.41 806.919 2795.5 806.952 2794.54 807.017L2791.42 821.153 2794.3 821.153C2796.66 821.153 2798.52 820.835 2799.89 820.201 2801.26 819.566 2802.34 818.524 2803.14 817.076 2803.93 815.627 2804.33 814.064 2804.33 812.388 2804.33 811.688 2804.27 811.066 2804.14 810.52 2804.01 809.975 2803.84 809.523 2803.62 809.165 2803.41 808.807 2803.14 808.49 2802.82 808.213 2802.49 807.937 2802.09 807.696 2801.6 807.493 2801.11 807.29 2800.54 807.143 2799.9 807.054 2799.26 806.964 2798.38 806.919 2797.28 806.919ZM2787.49 804.771 2798.35 804.771C2800.08 804.771 2801.48 804.873 2802.57 805.076 2803.67 805.279 2804.6 805.585 2805.37 805.992 2806.14 806.398 2806.79 806.923 2807.31 807.566 2807.83 808.209 2808.22 808.933 2808.48 809.739 2808.74 810.545 2808.87 811.403 2808.87 812.315 2808.87 814.821 2808.11 816.953 2806.58 818.711 2805.05 820.469 2802.79 821.804 2799.82 822.715L2799.82 822.984C2800.6 823.57 2801.23 824.27 2801.71 825.083 2802.19 825.897 2802.57 827.028 2802.87 828.477L2803.43 831.309C2803.61 832.204 2803.81 833.01 2804.04 833.726 2804.27 834.442 2804.54 835.012 2804.86 835.435 2805.17 835.858 2805.53 836.175 2805.93 836.387 2806.33 836.599 2806.91 836.77 2807.68 836.9L2807.43 838.096 2800.67 838.096C2800.15 836.647 2799.69 834.922 2799.28 832.92L2798.2 827.744C2798.03 826.849 2797.81 826.096 2797.56 825.486 2797.31 824.876 2797 824.404 2796.65 824.07 2796.3 823.736 2795.9 823.517 2795.43 823.411 2794.97 823.305 2794.4 823.252 2793.74 823.252L2790.95 823.252 2789.24 830.992C2789.1 831.626 2789 832.131 2788.94 832.505 2788.88 832.88 2788.83 833.274 2788.79 833.689 2788.75 834.104 2788.73 834.475 2788.73 834.8 2788.73 835.305 2788.81 835.699 2788.98 835.984 2789.14 836.269 2789.38 836.477 2789.71 836.607 2790.03 836.737 2790.6 836.835 2791.39 836.9L2791.12 838.096 2781.09 838.096 2781.36 836.9C2781.98 836.802 2782.44 836.643 2782.75 836.424 2783.06 836.204 2783.32 835.899 2783.53 835.508 2783.74 835.117 2783.94 834.641 2784.12 834.08 2784.3 833.518 2784.57 832.432 2784.92 830.821L2789.07 812.022C2789.43 810.394 2789.61 809.108 2789.61 808.164 2789.61 807.367 2789.42 806.813 2789.05 806.504 2788.68 806.195 2788.06 806.016 2787.22 805.967Z" fill-rule="evenodd"/><text fill="#000000" fill-opacity="0" font-family="Arial,Arial_MSFontService,sans-serif" font-size="33.3252" x="2781.09" y="833.93">ğ‘…</text></g><g clip-path="url(#clip30)"><path d="M2722.48 879.588C2721.61 879.588 2720.7 879.621 2719.74 879.686L2716.62 893.821 2719.5 893.821C2721.86 893.821 2723.72 893.504 2725.09 892.869 2726.46 892.234 2727.54 891.193 2728.34 889.744 2729.13 888.296 2729.53 886.733 2729.53 885.057 2729.53 884.357 2729.47 883.734 2729.34 883.189 2729.21 882.644 2729.04 882.192 2728.82 881.834 2728.61 881.476 2728.34 881.159 2728.02 880.882 2727.69 880.605 2727.29 880.365 2726.8 880.162 2726.31 879.958 2725.74 879.812 2725.1 879.722 2724.46 879.633 2723.58 879.588 2722.48 879.588ZM2712.69 877.44 2723.55 877.44C2725.28 877.44 2726.68 877.541 2727.77 877.745 2728.87 877.948 2729.8 878.253 2730.57 878.66 2731.34 879.067 2731.99 879.592 2732.51 880.235 2733.03 880.878 2733.42 881.602 2733.68 882.408 2733.94 883.214 2734.07 884.072 2734.07 884.984 2734.07 887.49 2733.31 889.622 2731.78 891.38 2730.25 893.138 2727.99 894.472 2725.02 895.384L2725.02 895.652C2725.8 896.238 2726.43 896.938 2726.91 897.752 2727.39 898.566 2727.77 899.697 2728.07 901.146L2728.63 903.978C2728.81 904.873 2729.01 905.679 2729.24 906.395 2729.47 907.111 2729.74 907.68 2730.06 908.104 2730.37 908.527 2730.73 908.844 2731.13 909.056 2731.53 909.267 2732.11 909.438 2732.88 909.568L2732.63 910.765 2725.87 910.765C2725.35 909.316 2724.89 907.591 2724.48 905.589L2723.4 900.413C2723.23 899.518 2723.01 898.765 2722.76 898.155 2722.51 897.545 2722.2 897.073 2721.85 896.739 2721.5 896.405 2721.1 896.185 2720.63 896.08 2720.17 895.974 2719.6 895.921 2718.94 895.921L2716.15 895.921 2714.44 903.66C2714.3 904.295 2714.2 904.8 2714.14 905.174 2714.08 905.548 2714.03 905.943 2713.99 906.358 2713.95 906.773 2713.93 907.143 2713.93 907.469 2713.93 907.973 2714.01 908.368 2714.18 908.653 2714.34 908.938 2714.58 909.145 2714.91 909.276 2715.23 909.406 2715.8 909.503 2716.59 909.568L2716.32 910.765 2706.29 910.765 2706.56 909.568C2707.18 909.471 2707.64 909.312 2707.95 909.092 2708.26 908.873 2708.52 908.568 2708.73 908.177 2708.94 907.786 2709.14 907.31 2709.32 906.749 2709.5 906.187 2709.77 905.101 2710.12 903.489L2714.27 884.691C2714.63 883.063 2714.81 881.777 2714.81 880.833 2714.81 880.036 2714.62 879.482 2714.25 879.173 2713.88 878.864 2713.26 878.685 2712.42 878.636Z" fill-rule="evenodd"/><text fill="#000000" fill-opacity="0" font-family="Arial,Arial_MSFontService,sans-serif" font-size="33.3252" x="2706.29" y="906.599">ğ‘…</text></g><path d="M2749.61 872.347 2750.71 872.347C2750.69 873.01 2750.67 873.603 2750.66 874.127 2750.65 874.651 2750.64 875.16 2750.63 875.653 2750.63 876.147 2750.62 876.635 2750.62 877.117L2750.62 890.847C2750.62 891.221 2750.64 891.543 2750.66 891.814 2750.68 892.085 2750.72 892.314 2750.78 892.5 2750.83 892.687 2750.9 892.847 2750.99 892.979 2751.08 893.112 2751.19 893.226 2751.31 893.322 2751.46 893.467 2751.65 893.578 2751.89 893.657 2752.13 893.735 2752.44 893.801 2752.81 893.855 2753.18 893.91 2753.63 893.952 2754.16 893.982 2754.68 894.012 2755.31 894.033 2756.04 894.045L2756.04 895.617 2741.72 895.617 2741.72 894.045C2742.43 894.021 2743.03 893.994 2743.52 893.964 2744.02 893.934 2744.44 893.891 2744.79 893.837 2745.14 893.783 2745.42 893.723 2745.63 893.657 2745.84 893.59 2746.02 893.509 2746.18 893.413 2746.35 893.304 2746.49 893.187 2746.61 893.06 2746.73 892.934 2746.83 892.774 2746.9 892.582 2746.97 892.389 2747.03 892.154 2747.07 891.877 2747.12 891.6 2747.14 891.257 2747.14 890.847L2747.14 877.894C2747.14 877.424 2747.05 877.093 2746.87 876.9 2746.69 876.707 2746.43 876.611 2746.09 876.611 2745.72 876.611 2745.16 876.804 2744.43 877.189 2743.69 877.575 2742.74 878.147 2741.57 878.905 2741.42 878.628 2741.27 878.351 2741.14 878.074 2741.01 877.797 2740.87 877.514 2740.72 877.225 2742.22 876.406 2743.7 875.59 2745.16 874.777 2746.62 873.964 2748.11 873.154 2749.61 872.347Z" fill-rule="evenodd"/><text fill="#000000" fill-opacity="0" font-family="Arial,Arial_MSFontService,sans-serif" font-size="23.2695" x="2740.72" y="892.708">1</text><g clip-path="url(#clip31)"><path d="M2772.91 869.764 2775.71 869.764 2762.66 903.385 2759.83 903.385Z" fill-rule="evenodd"/><text fill="#000000" fill-opacity="0" font-family="Arial,Arial_MSFontService,sans-serif" font-size="33.6216" x="2759.83" y="899.183">/</text></g><path d="M2787.49 872.221C2788.46 872.221 2789.36 872.323 2790.19 872.528 2791.03 872.733 2791.76 873.043 2792.37 873.458 2792.98 873.874 2793.46 874.392 2793.81 875.012 2794.15 875.632 2794.32 876.352 2794.32 877.171 2794.32 877.942 2794.21 878.622 2794 879.213 2793.78 879.803 2793.44 880.339 2792.99 880.82 2792.54 881.302 2791.99 881.739 2791.33 882.13 2790.67 882.522 2789.92 882.898 2789.06 883.259L2789.06 883.476C2789.87 883.621 2790.62 883.853 2791.32 884.172 2792.02 884.491 2792.63 884.894 2793.16 885.382 2793.68 885.87 2794.09 886.433 2794.39 887.071 2794.69 887.71 2794.84 888.414 2794.84 889.185 2794.84 890.149 2794.66 891.043 2794.3 891.868 2793.94 892.693 2793.4 893.407 2792.68 894.009 2791.95 894.611 2791.06 895.081 2790 895.418 2788.94 895.755 2787.7 895.924 2786.28 895.924 2785.16 895.924 2784.02 895.813 2782.87 895.59 2781.71 895.367 2780.61 895.075 2779.58 894.714L2779.58 890.811 2781.91 890.811C2782.1 891.413 2782.33 891.928 2782.6 892.356 2782.86 892.783 2783.17 893.133 2783.53 893.404 2783.88 893.675 2784.29 893.87 2784.75 893.991 2785.22 894.111 2785.75 894.172 2786.34 894.172 2787.89 894.172 2789.07 893.801 2789.87 893.06 2790.67 892.32 2791.07 891.197 2791.07 889.691 2791.07 888.089 2790.54 886.876 2789.49 886.051 2788.43 885.226 2786.87 884.813 2784.8 884.813L2783.21 884.813 2783.21 883.079C2784.47 883.018 2785.57 882.841 2786.49 882.546 2787.41 882.251 2788.18 881.868 2788.79 881.399 2789.41 880.929 2789.86 880.381 2790.17 879.755 2790.47 879.128 2790.62 878.46 2790.62 877.749 2790.62 876.593 2790.27 875.681 2789.59 875.012 2788.9 874.344 2787.91 874.009 2786.61 874.009 2785.51 874.009 2784.59 874.31 2783.85 874.913 2783.11 875.515 2782.54 876.412 2782.14 877.605L2779.85 877.605 2779.85 874.046C2781.27 873.443 2782.61 872.989 2783.87 872.682 2785.13 872.374 2786.34 872.221 2787.49 872.221Z" fill-rule="evenodd"/><text fill="#000000" fill-opacity="0" font-family="Arial,Arial_MSFontService,sans-serif" font-size="23.7031" x="2779.58" y="892.961">3</text><g clip-path="url(#clip32)"><path d="M2814.96 894.847 2845.04 894.847 2845.04 898.094 2814.96 898.094Z" fill-rule="evenodd"/><text fill="#000000" fill-opacity="0" font-family="Arial,Arial_MSFontService,sans-serif" font-size="3.24707" x="2814.96" y="897.688">âˆ’</text></g><g clip-path="url(#clip33)"><path d="M2875.98 877.049 2877.32 877.049C2877.22 878.611 2877.17 880.776 2877.17 883.543L2877.17 904.393C2877.17 905.337 2877.23 906.049 2877.33 906.529 2877.44 907.009 2877.62 907.4 2877.89 907.701 2878.16 908.002 2878.55 908.238 2879.05 908.409 2879.56 908.58 2880.19 908.71 2880.96 908.799 2881.72 908.889 2882.73 908.95 2883.98 908.983L2883.98 910.765 2865.94 910.765 2865.94 908.983C2867.75 908.901 2869.04 908.791 2869.81 908.653 2870.59 908.515 2871.18 908.307 2871.58 908.03 2871.99 907.754 2872.29 907.363 2872.47 906.859 2872.66 906.354 2872.75 905.532 2872.75 904.393L2872.75 884.593C2872.75 883.942 2872.64 883.466 2872.41 883.165 2872.18 882.864 2871.85 882.713 2871.41 882.713 2870.89 882.713 2870.15 882.982 2869.19 883.519 2868.23 884.056 2867.04 884.796 2865.62 885.74L2864.55 883.86Z" fill-rule="evenodd"/><text fill="#000000" fill-opacity="0" font-family="Arial,Arial_MSFontService,sans-serif" font-size="33.7158" x="2864.55" y="906.55">1</text></g><path d="M2705.02 860.259 2796.52 860.259 2888.02 860.259 2888.02 863.259 2796.52 863.259 2705.02 863.259Z" fill-rule="evenodd"/></g></svg>