<svg width="1789" height="1102" xmlns="http://www.w3.org/2000/svg" xmlns:xlink="http://www.w3.org/1999/xlink" overflow="hidden"><defs><clipPath id="clip0"><rect x="2591" y="2512" width="1789" height="1102"/></clipPath><clipPath id="clip1"><rect x="2591" y="2512" width="1788" height="1100"/></clipPath><clipPath id="clip2"><rect x="2591" y="2512" width="1788" height="1100"/></clipPath><clipPath id="clip3"><rect x="2591" y="2512" width="1788" height="1100"/></clipPath><clipPath id="clip4"><rect x="2591" y="2512" width="1788" height="1100"/></clipPath><clipPath id="clip5"><rect x="2591" y="2512" width="1788" height="1100"/></clipPath><clipPath id="clip6"><rect x="2591" y="2512" width="1788" height="1100"/></clipPath><clipPath id="clip7"><rect x="2591" y="2512" width="1788" height="1100"/></clipPath><clipPath id="clip8"><rect x="2775" y="2715" width="1320" height="744"/></clipPath><clipPath id="clip9"><rect x="2775" y="2715" width="1320" height="744"/></clipPath><clipPath id="clip10"><rect x="2591" y="2512" width="1788" height="1100"/></clipPath><clipPath id="clip11"><rect x="2591" y="2512" width="1788" height="1100"/></clipPath><clipPath id="clip12"><rect x="2591" y="2512" width="1788" height="1100"/></clipPath><clipPath id="clip13"><rect x="2591" y="2512" width="1788" height="1100"/></clipPath><clipPath id="clip14"><rect x="2591" y="2512" width="1788" height="1100"/></clipPath><clipPath id="clip15"><rect x="2591" y="2512" width="1788" height="1100"/></clipPath><clipPath id="clip16"><rect x="2591" y="2512" width="1788" height="1100"/></clipPath><clipPath id="clip17"><rect x="2591" y="2512" width="1788" height="1100"/></clipPath><clipPath id="clip18"><rect x="2591" y="2512" width="1788" height="1100"/></clipPath><clipPath id="clip19"><rect x="2591" y="2512" width="1788" height="1100"/></clipPath><clipPath id="clip20"><rect x="2591" y="2512" width="1788" height="1100"/></clipPath><clipPath id="clip21"><rect x="2591" y="2512" width="1788" height="1100"/></clipPath><clipPath id="clip22"><rect x="2591" y="2512" width="1788" height="1100"/></clipPath><clipPath id="clip23"><rect x="2591" y="2512" width="1788" height="1100"/></clipPath><clipPath id="clip24"><rect x="2591" y="2512" width="1788" height="1100"/></clipPath><clipPath id="clip25"><rect x="2591" y="2512" width="1788" height="1100"/></clipPath><clipPath id="clip26"><rect x="2591" y="2512" width="1788" height="1100"/></clipPath><clipPath id="clip27"><rect x="2591" y="2512" width="1788" height="1100"/></clipPath><clipPath id="clip28"><rect x="2591" y="2512" width="1788" height="1100"/></clipPath><clipPath id="clip29"><rect x="2591" y="2512" width="1788" height="1100"/></clipPath><clipPath id="clip30"><rect x="2591" y="2512" width="1788" height="1100"/></clipPath><clipPath id="clip31"><rect x="2591" y="2512" width="1788" height="1100"/></clipPath><clipPath id="clip32"><rect x="2591" y="2512" width="1788" height="1100"/></clipPath><clipPath id="clip33"><rect x="2591" y="2512" width="1788" height="1100"/></clipPath><clipPath id="clip34"><rect x="2591" y="2512" width="1788" height="1100"/></clipPath><clipPath id="clip35"><rect x="2591" y="2512" width="1788" height="1100"/></clipPath><clipPath id="clip36"><rect x="2591" y="2512" width="1788" height="1100"/></clipPath><clipPath id="clip37"><rect x="2591" y="2512" width="1788" height="1100"/></clipPath><clipPath id="clip38"><rect x="2591" y="2512" width="1788" height="1100"/></clipPath><clipPath id="clip39"><rect x="2591" y="2512" width="1788" height="1100"/></clipPath><clipPath id="clip40"><rect x="2591" y="2512" width="1788" height="1100"/></clipPath></defs><g clip-path="url(#clip0)" transform="translate(-2591 -2512)"><rect x="2592" y="2513" width="1787" height="1100" fill="#FFFFFF"/><g clip-path="url(#clip1)"><rect x="2775" y="2715" width="1320" height="745" fill="#FFFFFF"/></g><g clip-path="url(#clip2)"><path d="M2775.5 3353.61 4095.5 3353.61M2775.5 3246.61 4095.5 3246.61M2775.5 3140.6 4095.5 3140.6M2775.5 3034.6 4095.5 3034.6M2775.5 2927.6 4095.5 2927.6M2775.5 2821.59 4095.5 2821.59M2775.5 2715.5 4095.5 2715.5" stroke="#D9D9D9" stroke-width="3.4375" stroke-linejoin="round" stroke-miterlimit="10" fill="none"/></g><g clip-path="url(#clip3)"><path d="M2940.6 2715.5 2940.6 3459.5M3105.6 2715.5 3105.6 3459.5M3270.61 2715.5 3270.61 3459.5M3435.61 2715.5 3435.61 3459.5M3600.62 2715.5 3600.62 3459.5M3765.62 2715.5 3765.62 3459.5M3930.63 2715.5 3930.63 3459.5M4095.5 2715.5 4095.5 3459.5" stroke="#D9D9D9" stroke-width="3.4375" stroke-linejoin="round" stroke-miterlimit="10" fill="none"/></g><g clip-path="url(#clip4)"><path d="M0 0 0.000360892 744" stroke="#BFBFBF" stroke-width="3.4375" stroke-linejoin="round" stroke-miterlimit="10" fill="none" fill-rule="evenodd" transform="matrix(1 0 0 -1 2775.5 3459.5)"/></g><g clip-path="url(#clip5)"><path d="M2775.5 3459.5 4095.5 3459.5" stroke="#BFBFBF" stroke-width="3.4375" stroke-linejoin="round" stroke-miterlimit="10" fill="none" fill-rule="evenodd"/></g><g clip-path="url(#clip6)"><path d="M3938.87 3114.81 3965.87 3114.81 3965.87 3141.81 3938.87 3141.81Z" stroke="#ED7D31" stroke-width="2.29167" stroke-linejoin="round" stroke-miterlimit="10" fill="#ED7D31"/><path d="M3371.88 3285.81 3398.87 3285.81 3398.87 3312.81 3371.88 3312.81Z" stroke="#ED7D31" stroke-width="2.29167" stroke-linejoin="round" stroke-miterlimit="10" fill="#ED7D31"/><path d="M3269.87 3302.81 3296.87 3302.81 3296.87 3329.81 3269.87 3329.81Z" stroke="#ED7D31" stroke-width="2.29167" stroke-linejoin="round" stroke-miterlimit="10" fill="#ED7D31"/><path d="M3245.87 3304.81 3272.87 3304.81 3272.87 3331.81 3245.87 3331.81Z" stroke="#ED7D31" stroke-width="2.29167" stroke-linejoin="round" stroke-miterlimit="10" fill="#ED7D31"/><path d="M3147.87 3334.81 3174.87 3334.81 3174.87 3361.81 3147.87 3361.81Z" stroke="#ED7D31" stroke-width="2.29167" stroke-linejoin="round" stroke-miterlimit="10" fill="#ED7D31"/><path d="M3127.88 3346.81 3154.87 3346.81 3154.87 3373.81 3127.88 3373.81Z" stroke="#ED7D31" stroke-width="2.29167" stroke-linejoin="round" stroke-miterlimit="10" fill="#ED7D31"/><path d="M2976.88 3384.81 3003.87 3384.81 3003.87 3411.81 2976.88 3411.81Z" stroke="#ED7D31" stroke-width="2.29167" stroke-linejoin="round" stroke-miterlimit="10" fill="#ED7D31"/><path d="M2876.88 3413.81 2903.87 3413.81 2903.87 3440.81 2876.88 3440.81Z" stroke="#ED7D31" stroke-width="2.29167" stroke-linejoin="round" stroke-miterlimit="10" fill="#ED7D31"/></g><g clip-path="url(#clip7)"><path d="M3639.37 2865.31C3639.37 2871.39 3634.45 2876.31 3628.37 2876.31 3622.3 2876.31 3617.38 2871.39 3617.38 2865.31 3617.38 2859.24 3622.3 2854.31 3628.37 2854.31 3634.45 2854.31 3639.37 2859.24 3639.37 2865.31Z" stroke="#4472C4" stroke-width="3.4375" stroke-linejoin="round" stroke-miterlimit="10" fill="#4472C4"/><path d="M3295.37 3078.31C3295.37 3084.39 3290.45 3089.31 3284.37 3089.31 3278.3 3089.31 3273.37 3084.39 3273.37 3078.31 3273.37 3072.24 3278.3 3067.31 3284.37 3067.31 3290.45 3067.31 3295.37 3072.24 3295.37 3078.31Z" stroke="#4472C4" stroke-width="3.4375" stroke-linejoin="round" stroke-miterlimit="10" fill="#4472C4"/><path d="M3257.37 3089.31C3257.37 3095.39 3252.45 3100.31 3246.37 3100.31 3240.3 3100.31 3235.37 3095.39 3235.37 3089.31 3235.37 3083.24 3240.3 3078.31 3246.37 3078.31 3252.45 3078.31 3257.37 3083.24 3257.37 3089.31Z" stroke="#4472C4" stroke-width="3.4375" stroke-linejoin="round" stroke-miterlimit="10" fill="#4472C4"/><path d="M3152.37 3174.31C3152.37 3180.39 3147.45 3185.31 3141.37 3185.31 3135.3 3185.31 3130.37 3180.39 3130.37 3174.31 3130.37 3168.24 3135.3 3163.31 3141.37 3163.31 3147.45 3163.31 3152.37 3168.24 3152.37 3174.31Z" stroke="#4472C4" stroke-width="3.4375" stroke-linejoin="round" stroke-miterlimit="10" fill="#4472C4"/><path d="M3001.37 3294.31C3001.37 3300.39 2996.45 3305.31 2990.37 3305.31 2984.3 3305.31 2979.38 3300.39 2979.38 3294.31 2979.38 3288.24 2984.3 3283.31 2990.37 3283.31 2996.45 3283.31 3001.37 3288.24 3001.37 3294.31Z" stroke="#4472C4" stroke-width="3.4375" stroke-linejoin="round" stroke-miterlimit="10" fill="#4472C4"/><path d="M2901.37 3369.31C2901.37 3375.39 2896.45 3380.31 2890.37 3380.31 2884.3 3380.31 2879.38 3375.39 2879.38 3369.31 2879.38 3363.24 2884.3 3358.31 2890.37 3358.31 2896.45 3358.31 2901.37 3363.24 2901.37 3369.31Z" stroke="#4472C4" stroke-width="3.4375" stroke-linejoin="round" stroke-miterlimit="10" fill="#4472C4"/><path d="M2902.37 3372.31C2902.37 3378.39 2897.45 3383.31 2891.37 3383.31 2885.3 3383.31 2880.38 3378.39 2880.38 3372.31 2880.38 3366.24 2885.3 3361.31 2891.37 3361.31 2897.45 3361.31 2902.37 3366.24 2902.37 3372.31Z" stroke="#4472C4" stroke-width="3.4375" stroke-linejoin="round" stroke-miterlimit="10" fill="#4472C4"/></g><g clip-path="url(#clip8)"><path d="M0 0 1062 296" stroke="#ED7D31" stroke-width="2.29167" stroke-linecap="round" stroke-linejoin="round" stroke-miterlimit="10" stroke-dasharray="4.58333 4.58333" fill="none" fill-rule="evenodd" transform="matrix(1 0 0 -1 2891 3428)"/></g><g clip-path="url(#clip9)"><path d="M0 0 738 540" stroke="#4472C4" stroke-width="6.875" stroke-linecap="round" stroke-linejoin="round" stroke-miterlimit="10" stroke-dasharray="0 13.75" fill="none" fill-rule="evenodd" transform="matrix(1 0 0 -1 2890.5 3375.5)"/></g><g clip-path="url(#clip10)"><text font-family="Calibri,Calibri_MSFontService,sans-serif" font-weight="400" font-size="46" transform="matrix(1 0 0 1 3662.97 3102)">y = 4.32E</text></g><g clip-path="url(#clip11)"><text font-family="Calibri,Calibri_MSFontService,sans-serif" font-weight="400" font-size="46" transform="matrix(1 0 0 1 3830.93 3102)">-</text></g><g clip-path="url(#clip12)"><text font-family="Calibri,Calibri_MSFontService,sans-serif" font-weight="400" font-size="46" transform="matrix(1 0 0 1 3844.95 3102)">04x</text></g><g clip-path="url(#clip13)"><text font-family="Calibri,Calibri_MSFontService,sans-serif" font-weight="400" font-size="46" transform="matrix(1 0 0 1 3339.44 2851)">y = 1.14E</text></g><g clip-path="url(#clip14)"><text font-family="Calibri,Calibri_MSFontService,sans-serif" font-weight="400" font-size="46" transform="matrix(1 0 0 1 3507.4 2851)">-</text></g><g clip-path="url(#clip15)"><text font-family="Calibri,Calibri_MSFontService,sans-serif" font-weight="400" font-size="46" transform="matrix(1 0 0 1 3521.43 2851)">03x</text></g><g clip-path="url(#clip16)"><text fill="#595959" font-family="Calibri,Calibri_MSFontService,sans-serif" font-weight="400" font-size="41" transform="matrix(1 0 0 1 2716.06 3471)">0</text></g><g clip-path="url(#clip17)"><text fill="#595959" font-family="Calibri,Calibri_MSFontService,sans-serif" font-weight="400" font-size="41" transform="matrix(1 0 0 1 2663.86 3365)">0.05</text></g><g clip-path="url(#clip18)"><text fill="#595959" font-family="Calibri,Calibri_MSFontService,sans-serif" font-weight="400" font-size="41" transform="matrix(1 0 0 1 2684.76 3259)">0.1</text></g><g clip-path="url(#clip19)"><text fill="#595959" font-family="Calibri,Calibri_MSFontService,sans-serif" font-weight="400" font-size="41" transform="matrix(1 0 0 1 2663.86 3152)">0.15</text></g><g clip-path="url(#clip20)"><text fill="#595959" font-family="Calibri,Calibri_MSFontService,sans-serif" font-weight="400" font-size="41" transform="matrix(1 0 0 1 2684.76 3046)">0.2</text></g><g clip-path="url(#clip21)"><text fill="#595959" font-family="Calibri,Calibri_MSFontService,sans-serif" font-weight="400" font-size="41" transform="matrix(1 0 0 1 2663.86 2940)">0.25</text></g><g clip-path="url(#clip22)"><text fill="#595959" font-family="Calibri,Calibri_MSFontService,sans-serif" font-weight="400" font-size="41" transform="matrix(1 0 0 1 2684.76 2833)">0.3</text></g><g clip-path="url(#clip23)"><text fill="#595959" font-family="Calibri,Calibri_MSFontService,sans-serif" font-weight="400" font-size="41" transform="matrix(1 0 0 1 2663.86 2727)">0.35</text></g><g clip-path="url(#clip24)"><text fill="#595959" font-family="Calibri,Calibri_MSFontService,sans-serif" font-weight="400" font-size="41" transform="matrix(1 0 0 1 2764.78 3525)">0</text></g><g clip-path="url(#clip25)"><text fill="#595959" font-family="Calibri,Calibri_MSFontService,sans-serif" font-weight="400" font-size="41" transform="matrix(1 0 0 1 2919.34 3525)">50</text></g><g clip-path="url(#clip26)"><text fill="#595959" font-family="Calibri,Calibri_MSFontService,sans-serif" font-weight="400" font-size="41" transform="matrix(1 0 0 1 3073.91 3525)">100</text></g><g clip-path="url(#clip27)"><text fill="#595959" font-family="Calibri,Calibri_MSFontService,sans-serif" font-weight="400" font-size="41" transform="matrix(1 0 0 1 3238.92 3525)">150</text></g><g clip-path="url(#clip28)"><text fill="#595959" font-family="Calibri,Calibri_MSFontService,sans-serif" font-weight="400" font-size="41" transform="matrix(1 0 0 1 3403.94 3525)">200</text></g><g clip-path="url(#clip29)"><text fill="#595959" font-family="Calibri,Calibri_MSFontService,sans-serif" font-weight="400" font-size="41" transform="matrix(1 0 0 1 3568.95 3525)">250</text></g><g clip-path="url(#clip30)"><text fill="#595959" font-family="Calibri,Calibri_MSFontService,sans-serif" font-weight="400" font-size="41" transform="matrix(1 0 0 1 3733.96 3525)">300</text></g><g clip-path="url(#clip31)"><text fill="#595959" font-family="Calibri,Calibri_MSFontService,sans-serif" font-weight="400" font-size="41" transform="matrix(1 0 0 1 3898.98 3525)">350</text></g><g clip-path="url(#clip32)"><text fill="#595959" font-family="Calibri,Calibri_MSFontService,sans-serif" font-weight="400" font-size="41" transform="matrix(1 0 0 1 4063.99 3525)">400</text></g><g clip-path="url(#clip33)"><text font-family="Calibri,Calibri_MSFontService,sans-serif" font-weight="700" font-size="46" transform="matrix(6.12323e-17 -1 1 6.12323e-17 2642.75 3197)">Is / mA rms</text></g><g clip-path="url(#clip34)"><text font-family="Calibri,Calibri_MSFontService,sans-serif" font-weight="700" font-size="46" transform="matrix(1 0 0 1 3323.04 3594)">Ip / mA rms</text></g><g clip-path="url(#clip35)"><text fill="#595959" font-family="Calibri,Calibri_MSFontService,sans-serif" font-weight="400" font-size="64" transform="matrix(1 0 0 1 2841.02 2608)">Current through load R against current of Primary </text></g><g clip-path="url(#clip36)"><text fill="#595959" font-family="Calibri,Calibri_MSFontService,sans-serif" font-weight="400" font-size="64" transform="matrix(1 0 0 1 3173.73 2686)">circuit (gradient = M/Ls)</text></g><g clip-path="url(#clip37)"><path d="M4124 3046 4151 3046 4151 3073 4124 3073Z" stroke="#ED7D31" stroke-width="2.29167" stroke-linejoin="round" stroke-miterlimit="10" fill="#ED7D31"/></g><g clip-path="url(#clip38)"><text font-family="Calibri,Calibri_MSFontService,sans-serif" font-weight="400" font-size="46" transform="matrix(1 0 0 1 4161.57 3074)">No Shell</text></g><g clip-path="url(#clip39)"><path d="M4149 3143C4149 3149.07 4144.08 3154 4138 3154 4131.92 3154 4127 3149.07 4127 3143 4127 3136.92 4131.92 3132 4138 3132 4144.08 3132 4149 3136.92 4149 3143Z" stroke="#4472C4" stroke-width="3.4375" stroke-linejoin="round" stroke-miterlimit="10" fill="#4472C4"/></g><g clip-path="url(#clip40)"><text font-family="Calibri,Calibri_MSFontService,sans-serif" font-weight="400" font-size="46" transform="matrix(1 0 0 1 4161.57 3157)">Full Shell</text></g><rect x="2592" y="2513" width="1787" height="1100" stroke="#898989" stroke-width="2.29167" stroke-linejoin="round" stroke-miterlimit="10" fill="none"/></g></svg>