<svg width="1766" height="992" xmlns="http://www.w3.org/2000/svg" xmlns:xlink="http://www.w3.org/1999/xlink" overflow="hidden"><defs><clipPath id="clip0"><rect x="112" y="2419" width="1766" height="992"/></clipPath><clipPath id="clip1"><rect x="113" y="2420" width="1763" height="990"/></clipPath><clipPath id="clip2"><rect x="113" y="2420" width="1763" height="990"/></clipPath><clipPath id="clip3"><rect x="113" y="2420" width="1763" height="990"/></clipPath><clipPath id="clip4"><rect x="113" y="2420" width="1763" height="990"/></clipPath><clipPath id="clip5"><rect x="113" y="2420" width="1763" height="990"/></clipPath><clipPath id="clip6"><rect x="113" y="2420" width="1763" height="990"/></clipPath><clipPath id="clip7"><rect x="113" y="2420" width="1763" height="990"/></clipPath><clipPath id="clip8"><rect x="113" y="2420" width="1763" height="990"/></clipPath><clipPath id="clip9"><rect x="113" y="2420" width="1763" height="990"/></clipPath><clipPath id="clip10"><rect x="113" y="2420" width="1763" height="990"/></clipPath><clipPath id="clip11"><rect x="113" y="2420" width="1763" height="990"/></clipPath><clipPath id="clip12"><rect x="113" y="2420" width="1763" height="990"/></clipPath><clipPath id="clip13"><rect x="113" y="2420" width="1763" height="990"/></clipPath><clipPath id="clip14"><rect x="113" y="2420" width="1763" height="990"/></clipPath><clipPath id="clip15"><rect x="113" y="2420" width="1763" height="990"/></clipPath><clipPath id="clip16"><rect x="113" y="2420" width="1763" height="990"/></clipPath><clipPath id="clip17"><rect x="113" y="2420" width="1763" height="990"/></clipPath><clipPath id="clip18"><rect x="113" y="2420" width="1763" height="990"/></clipPath><clipPath id="clip19"><rect x="113" y="2420" width="1763" height="990"/></clipPath><clipPath id="clip20"><rect x="113" y="2420" width="1763" height="990"/></clipPath><clipPath id="clip21"><rect x="113" y="2420" width="1763" height="990"/></clipPath><clipPath id="clip22"><rect x="113" y="2420" width="1763" height="990"/></clipPath><clipPath id="clip23"><rect x="113" y="2420" width="1763" height="990"/></clipPath><clipPath id="clip24"><rect x="113" y="2420" width="1763" height="990"/></clipPath><clipPath id="clip25"><rect x="113" y="2420" width="1763" height="990"/></clipPath><clipPath id="clip26"><rect x="113" y="2420" width="1763" height="990"/></clipPath><clipPath id="clip27"><rect x="113" y="2420" width="1763" height="990"/></clipPath><clipPath id="clip28"><rect x="113" y="2420" width="1763" height="990"/></clipPath><clipPath id="clip29"><rect x="113" y="2420" width="1763" height="990"/></clipPath><clipPath id="clip30"><rect x="113" y="2420" width="1763" height="990"/></clipPath><clipPath id="clip31"><rect x="113" y="2420" width="1763" height="990"/></clipPath><clipPath id="clip32"><rect x="113" y="2420" width="1763" height="990"/></clipPath></defs><g clip-path="url(#clip0)" transform="translate(-112 -2419)"><rect x="113" y="2420" width="1764" height="990" fill="#FFFFFF"/><g clip-path="url(#clip1)"><rect x="314" y="2567" width="1300" height="714" fill="#FFFFFF"/></g><g clip-path="url(#clip2)"><path d="M313.5 3161.6 1614.5 3161.6M313.5 3042.6 1614.5 3042.6M313.5 2923.6 1614.5 2923.6M313.5 2804.59 1614.5 2804.59M313.5 2685.59 1614.5 2685.59M313.5 2567.5 1614.5 2567.5" stroke="#D9D9D9" stroke-width="3.4375" stroke-linejoin="round" stroke-miterlimit="10" fill="none"/></g><g clip-path="url(#clip3)"><path d="M499.517 2567.5 499.517 3280.5M685.523 2567.5 685.523 3280.5M871.529 2567.5 871.529 3280.5M1056.53 2567.5 1056.53 3280.5M1242.54 2567.5 1242.54 3280.5M1428.55 2567.5 1428.55 3280.5M1614.5 2567.5 1614.5 3280.5" stroke="#D9D9D9" stroke-width="3.4375" stroke-linejoin="round" stroke-miterlimit="10" fill="none"/></g><g clip-path="url(#clip4)"><path d="M0 0 0.000360892 713" stroke="#BFBFBF" stroke-width="3.4375" stroke-linejoin="round" stroke-miterlimit="10" fill="none" fill-rule="evenodd" transform="matrix(1 0 0 -1 313.5 3280.5)"/></g><g clip-path="url(#clip5)"><path d="M313.5 3280.5 1614.5 3280.5" stroke="#BFBFBF" stroke-width="3.4375" stroke-linejoin="round" stroke-miterlimit="10" fill="none" fill-rule="evenodd"/></g><g clip-path="url(#clip6)"><path d="M510.437 2968 484.437 2942M484.437 2968 510.437 2942" stroke="#FFC000" stroke-width="2.29167" stroke-linejoin="round" stroke-miterlimit="10" fill="#FFC000"/><path d="M704.437 2941 678.437 2915M678.437 2941 704.437 2915" stroke="#FFC000" stroke-width="2.29167" stroke-linejoin="round" stroke-miterlimit="10" fill="#FFC000"/><path d="M1476.44 2927 1450.44 2901M1450.44 2927 1476.44 2901" stroke="#FFC000" stroke-width="2.29167" stroke-linejoin="round" stroke-miterlimit="10" fill="#FFC000"/></g><g clip-path="url(#clip7)"><path d="M382.438 3026 409.437 3026 409.437 3053 382.438 3053Z" stroke="#ED7D31" stroke-width="2.29167" stroke-linejoin="round" stroke-miterlimit="10" fill="#ED7D31"/><path d="M482.437 3043 509.437 3043 509.437 3070 482.437 3070Z" stroke="#ED7D31" stroke-width="2.29167" stroke-linejoin="round" stroke-miterlimit="10" fill="#ED7D31"/><path d="M483.437 3027 510.437 3027 510.437 3054 483.437 3054Z" stroke="#ED7D31" stroke-width="2.29167" stroke-linejoin="round" stroke-miterlimit="10" fill="#ED7D31"/><path d="M593.437 3018 620.437 3018 620.437 3045 593.437 3045Z" stroke="#ED7D31" stroke-width="2.29167" stroke-linejoin="round" stroke-miterlimit="10" fill="#ED7D31"/><path d="M598.438 3023 625.437 3023 625.437 3050 598.438 3050Z" stroke="#ED7D31" stroke-width="2.29167" stroke-linejoin="round" stroke-miterlimit="10" fill="#ED7D31"/><path d="M672.437 3038 699.437 3038 699.437 3065 672.437 3065Z" stroke="#ED7D31" stroke-width="2.29167" stroke-linejoin="round" stroke-miterlimit="10" fill="#ED7D31"/><path d="M902.437 3028 929.437 3028 929.437 3055 902.437 3055Z" stroke="#ED7D31" stroke-width="2.29167" stroke-linejoin="round" stroke-miterlimit="10" fill="#ED7D31"/><path d="M1436.44 3035 1463.44 3035 1463.44 3062 1436.44 3062Z" stroke="#ED7D31" stroke-width="2.29167" stroke-linejoin="round" stroke-miterlimit="10" fill="#ED7D31"/></g><g clip-path="url(#clip8)"><path d="M396.437 2673 409.437 2686 396.437 2699 383.437 2686Z" stroke="#4472C4" stroke-width="2.29167" stroke-linejoin="round" stroke-miterlimit="10" fill="#4472C4"/><path d="M496.437 2628 509.437 2641 496.437 2654 483.437 2641Z" stroke="#4472C4" stroke-width="2.29167" stroke-linejoin="round" stroke-miterlimit="10" fill="#4472C4"/><path d="M607.437 2596 620.437 2609 607.437 2622 594.437 2609Z" stroke="#4472C4" stroke-width="2.29167" stroke-linejoin="round" stroke-miterlimit="10" fill="#4472C4"/><path d="M686.437 2602 699.437 2615 686.437 2628 673.437 2615Z" stroke="#4472C4" stroke-width="2.29167" stroke-linejoin="round" stroke-miterlimit="10" fill="#4472C4"/><path d="M916.437 2612 929.437 2625 916.437 2638 903.437 2625Z" stroke="#4472C4" stroke-width="2.29167" stroke-linejoin="round" stroke-miterlimit="10" fill="#4472C4"/><path d="M1450.44 2594 1463.44 2607 1450.44 2620 1437.44 2607Z" stroke="#4472C4" stroke-width="2.29167" stroke-linejoin="round" stroke-miterlimit="10" fill="#4472C4"/><path d="M1450.44 2622 1463.44 2635 1450.44 2648 1437.44 2635Z" stroke="#4472C4" stroke-width="2.29167" stroke-linejoin="round" stroke-miterlimit="10" fill="#4472C4"/></g><g clip-path="url(#clip9)"><text fill="#595959" font-family="Calibri,Calibri_MSFontService,sans-serif" font-weight="400" font-size="41" transform="matrix(1 0 0 1 254.711 3292)">0</text></g><g clip-path="url(#clip10)"><text fill="#595959" font-family="Calibri,Calibri_MSFontService,sans-serif" font-weight="400" font-size="41" transform="matrix(1 0 0 1 223.406 3173)">0.5</text></g><g clip-path="url(#clip11)"><text fill="#595959" font-family="Calibri,Calibri_MSFontService,sans-serif" font-weight="400" font-size="41" transform="matrix(1 0 0 1 254.711 3054)">1</text></g><g clip-path="url(#clip12)"><text fill="#595959" font-family="Calibri,Calibri_MSFontService,sans-serif" font-weight="400" font-size="41" transform="matrix(1 0 0 1 223.406 2935)">1.5</text></g><g clip-path="url(#clip13)"><text fill="#595959" font-family="Calibri,Calibri_MSFontService,sans-serif" font-weight="400" font-size="41" transform="matrix(1 0 0 1 254.711 2817)">2</text></g><g clip-path="url(#clip14)"><text fill="#595959" font-family="Calibri,Calibri_MSFontService,sans-serif" font-weight="400" font-size="41" transform="matrix(1 0 0 1 223.406 2698)">2.5</text></g><g clip-path="url(#clip15)"><text fill="#595959" font-family="Calibri,Calibri_MSFontService,sans-serif" font-weight="400" font-size="41" transform="matrix(1 0 0 1 254.711 2579)">3</text></g><g clip-path="url(#clip16)"><text fill="#595959" font-family="Calibri,Calibri_MSFontService,sans-serif" font-weight="400" font-size="41" transform="matrix(1 0 0 1 303.427 3346)">0</text></g><g clip-path="url(#clip17)"><text fill="#595959" font-family="Calibri,Calibri_MSFontService,sans-serif" font-weight="400" font-size="41" transform="matrix(1 0 0 1 489.163 3346)">5</text></g><g clip-path="url(#clip18)"><text fill="#595959" font-family="Calibri,Calibri_MSFontService,sans-serif" font-weight="400" font-size="41" transform="matrix(1 0 0 1 664.448 3346)">10</text></g><g clip-path="url(#clip19)"><text fill="#595959" font-family="Calibri,Calibri_MSFontService,sans-serif" font-weight="400" font-size="41" transform="matrix(1 0 0 1 850.184 3346)">15</text></g><g clip-path="url(#clip20)"><text fill="#595959" font-family="Calibri,Calibri_MSFontService,sans-serif" font-weight="400" font-size="41" transform="matrix(1 0 0 1 1035.92 3346)">20</text></g><g clip-path="url(#clip21)"><text fill="#595959" font-family="Calibri,Calibri_MSFontService,sans-serif" font-weight="400" font-size="41" transform="matrix(1 0 0 1 1221.65 3346)">25</text></g><g clip-path="url(#clip22)"><text fill="#595959" font-family="Calibri,Calibri_MSFontService,sans-serif" font-weight="400" font-size="41" transform="matrix(1 0 0 1 1407.39 3346)">30</text></g><g clip-path="url(#clip23)"><text fill="#595959" font-family="Calibri,Calibri_MSFontService,sans-serif" font-weight="400" font-size="41" transform="matrix(1 0 0 1 1593.13 3346)">35</text></g><g clip-path="url(#clip24)"><text font-family="Calibri,Calibri_MSFontService,sans-serif" font-weight="700" font-size="46" transform="matrix(6.12323e-17 -1 1 6.12323e-17 197.717 3037)">M_rel/L_rel</text></g><g clip-path="url(#clip25)"><text font-family="Calibri,Calibri_MSFontService,sans-serif" font-weight="700" font-size="46" transform="matrix(1 0 0 1 810.112 3391)">Frequency / kHz</text></g><g clip-path="url(#clip26)"><text fill="#595959" font-family="Calibri,Calibri_MSFontService,sans-serif" font-weight="400" font-size="64" transform="matrix(1 0 0 1 844.055 2515)">parallel RLC</text></g><g clip-path="url(#clip27)"><path d="M1672 2905 1646 2879M1646 2905 1672 2879" stroke="#FFC000" stroke-width="2.29167" stroke-linejoin="round" stroke-miterlimit="10" fill="#FFC000"/></g><g clip-path="url(#clip28)"><text font-family="Calibri,Calibri_MSFontService,sans-serif" font-weight="400" font-size="46" transform="matrix(1 0 0 1 1682.61 2906)">Cu only</text></g><g clip-path="url(#clip29)"><path d="M1645 2933 1672 2933 1672 2960 1645 2960Z" stroke="#ED7D31" stroke-width="2.29167" stroke-linejoin="round" stroke-miterlimit="10" fill="#ED7D31"/></g><g clip-path="url(#clip30)"><text font-family="Calibri,Calibri_MSFontService,sans-serif" font-weight="400" font-size="46" transform="matrix(1 0 0 1 1682.61 2961)">No Shell</text></g><g clip-path="url(#clip31)"><path d="M1659 2989 1672 3002 1659 3015 1646 3002Z" stroke="#4472C4" stroke-width="2.29167" stroke-linejoin="round" stroke-miterlimit="10" fill="#4472C4"/></g><g clip-path="url(#clip32)"><text font-family="Calibri,Calibri_MSFontService,sans-serif" font-weight="400" font-size="46" transform="matrix(1 0 0 1 1682.61 3016)">Full Shell</text></g><rect x="113" y="2420" width="1764" height="990" stroke="#898989" stroke-width="2.29167" stroke-linejoin="round" stroke-miterlimit="10" fill="none"/></g></svg>