<svg width="2705" height="992" xmlns="http://www.w3.org/2000/svg" xmlns:xlink="http://www.w3.org/1999/xlink" overflow="hidden"><defs><clipPath id="clip0"><rect x="944" y="1553" width="2705" height="992"/></clipPath><clipPath id="clip1"><rect x="943" y="1555" width="1331" height="990"/></clipPath><clipPath id="clip2"><rect x="943" y="1555" width="1331" height="990"/></clipPath><clipPath id="clip3"><rect x="943" y="1555" width="1331" height="990"/></clipPath><clipPath id="clip4"><rect x="943" y="1555" width="1331" height="990"/></clipPath><clipPath id="clip5"><rect x="1162" y="1580" width="1067" height="840"/></clipPath><clipPath id="clip6"><rect x="1162" y="1580" width="1067" height="840"/></clipPath><clipPath id="clip7"><rect x="1162" y="1580" width="1067" height="840"/></clipPath><clipPath id="clip8"><rect x="1162" y="1580" width="1067" height="840"/></clipPath><clipPath id="clip9"><rect x="1162" y="1580" width="1067" height="840"/></clipPath><clipPath id="clip10"><rect x="1162" y="1580" width="1067" height="840"/></clipPath><clipPath id="clip11"><rect x="1162" y="1580" width="1067" height="840"/></clipPath><clipPath id="clip12"><rect x="1162" y="1580" width="1067" height="840"/></clipPath><clipPath id="clip13"><rect x="1162" y="1580" width="1067" height="840"/></clipPath><clipPath id="clip14"><rect x="1162" y="1580" width="1067" height="840"/></clipPath><clipPath id="clip15"><rect x="1162" y="1580" width="1067" height="840"/></clipPath><clipPath id="clip16"><rect x="1162" y="1580" width="1067" height="840"/></clipPath><clipPath id="clip17"><rect x="1162" y="1580" width="1067" height="840"/></clipPath><clipPath id="clip18"><rect x="1162" y="1580" width="1067" height="840"/></clipPath><clipPath id="clip19"><rect x="1162" y="1580" width="1067" height="840"/></clipPath><clipPath id="clip20"><rect x="1162" y="1580" width="1067" height="840"/></clipPath><clipPath id="clip21"><rect x="1162" y="1580" width="1067" height="840"/></clipPath><clipPath id="clip22"><rect x="1162" y="1580" width="1067" height="840"/></clipPath><clipPath id="clip23"><rect x="1162" y="1580" width="1067" height="840"/></clipPath><clipPath id="clip24"><rect x="1162" y="1580" width="1064" height="843"/></clipPath><clipPath id="clip25"><rect x="1162" y="1580" width="1064" height="843"/></clipPath><clipPath id="clip26"><rect x="1162" y="1580" width="1064" height="843"/></clipPath><clipPath id="clip27"><rect x="1162" y="1580" width="1064" height="843"/></clipPath><clipPath id="clip28"><rect x="1162" y="1580" width="1064" height="843"/></clipPath><clipPath id="clip29"><rect x="1162" y="1580" width="1064" height="843"/></clipPath><clipPath id="clip30"><rect x="1162" y="1580" width="1064" height="843"/></clipPath><clipPath id="clip31"><rect x="1162" y="1580" width="1064" height="843"/></clipPath><clipPath id="clip32"><rect x="1162" y="1580" width="1064" height="843"/></clipPath><clipPath id="clip33"><rect x="1162" y="1580" width="1064" height="843"/></clipPath><clipPath id="clip34"><rect x="1162" y="1580" width="1067" height="840"/></clipPath><clipPath id="clip35"><rect x="1162" y="1580" width="1067" height="840"/></clipPath><clipPath id="clip36"><rect x="1162" y="1580" width="1067" height="840"/></clipPath><clipPath id="clip37"><rect x="1162" y="1580" width="1067" height="840"/></clipPath><clipPath id="clip38"><rect x="1162" y="1580" width="1067" height="840"/></clipPath><clipPath id="clip39"><rect x="1162" y="1580" width="1067" height="840"/></clipPath><clipPath id="clip40"><rect x="1162" y="1580" width="1067" height="840"/></clipPath><clipPath id="clip41"><rect x="1162" y="1580" width="1067" height="840"/></clipPath><clipPath id="clip42"><rect x="1162" y="1580" width="1067" height="840"/></clipPath><clipPath id="clip43"><rect x="1162" y="1580" width="1067" height="840"/></clipPath><clipPath id="clip44"><rect x="1162" y="1580" width="1067" height="840"/></clipPath><clipPath id="clip45"><rect x="1162" y="1580" width="1067" height="840"/></clipPath><clipPath id="clip46"><rect x="1162" y="1580" width="1067" height="840"/></clipPath><clipPath id="clip47"><rect x="1162" y="1580" width="1067" height="840"/></clipPath><clipPath id="clip48"><rect x="1162" y="1580" width="1067" height="840"/></clipPath><clipPath id="clip49"><rect x="1162" y="1580" width="1067" height="840"/></clipPath><clipPath id="clip50"><rect x="1162" y="1580" width="1067" height="840"/></clipPath><clipPath id="clip51"><rect x="1162" y="1580" width="1067" height="840"/></clipPath><clipPath id="clip52"><rect x="1162" y="1580" width="1067" height="840"/></clipPath><clipPath id="clip53"><rect x="1162" y="1580" width="1067" height="840"/></clipPath><clipPath id="clip54"><rect x="943" y="1555" width="1331" height="990"/></clipPath><clipPath id="clip55"><rect x="943" y="1555" width="1331" height="990"/></clipPath><clipPath id="clip56"><rect x="943" y="1555" width="1331" height="990"/></clipPath><clipPath id="clip57"><rect x="943" y="1555" width="1331" height="990"/></clipPath><clipPath id="clip58"><rect x="1162" y="1580" width="1064" height="840"/></clipPath><clipPath id="clip59"><rect x="1162" y="1580" width="1064" height="840"/></clipPath><clipPath id="clip60"><rect x="1162" y="1580" width="1064" height="840"/></clipPath><clipPath id="clip61"><rect x="1162" y="1580" width="1064" height="840"/></clipPath><clipPath id="clip62"><rect x="1162" y="1580" width="1064" height="840"/></clipPath><clipPath id="clip63"><rect x="1162" y="1580" width="1064" height="840"/></clipPath><clipPath id="clip64"><rect x="1162" y="1580" width="1064" height="840"/></clipPath><clipPath id="clip65"><rect x="943" y="1555" width="1331" height="990"/></clipPath><clipPath id="clip66"><rect x="943" y="1555" width="1331" height="990"/></clipPath><clipPath id="clip67"><rect x="943" y="1555" width="1331" height="990"/></clipPath><clipPath id="clip68"><rect x="943" y="1555" width="1331" height="990"/></clipPath><clipPath id="clip69"><rect x="943" y="1555" width="1331" height="990"/></clipPath><clipPath id="clip70"><rect x="943" y="1555" width="1331" height="990"/></clipPath><clipPath id="clip71"><rect x="943" y="1555" width="1331" height="990"/></clipPath><clipPath id="clip72"><rect x="943" y="1555" width="1331" height="990"/></clipPath><clipPath id="clip73"><rect x="943" y="1555" width="1331" height="990"/></clipPath><clipPath id="clip74"><rect x="943" y="1555" width="1331" height="990"/></clipPath><clipPath id="clip75"><rect x="943" y="1555" width="1331" height="990"/></clipPath><clipPath id="clip76"><rect x="943" y="1555" width="1331" height="990"/></clipPath><clipPath id="clip77"><rect x="943" y="1555" width="1331" height="990"/></clipPath><clipPath id="clip78"><rect x="943" y="1555" width="1331" height="990"/></clipPath><clipPath id="clip79"><rect x="943" y="1555" width="1331" height="990"/></clipPath><clipPath id="clip80"><rect x="943" y="1555" width="1331" height="990"/></clipPath><clipPath id="clip81"><rect x="943" y="1555" width="1331" height="990"/></clipPath><clipPath id="clip82"><rect x="943" y="1555" width="1331" height="990"/></clipPath><clipPath id="clip83"><rect x="943" y="1555" width="1331" height="990"/></clipPath><clipPath id="clip84"><rect x="943" y="1555" width="1331" height="990"/></clipPath><clipPath id="clip85"><rect x="943" y="1555" width="1331" height="990"/></clipPath><clipPath id="clip86"><rect x="943" y="1555" width="1331" height="990"/></clipPath><clipPath id="clip87"><rect x="943" y="1555" width="1331" height="990"/></clipPath><clipPath id="clip88"><rect x="943" y="1555" width="1331" height="990"/></clipPath><clipPath id="clip89"><rect x="943" y="1555" width="1331" height="990"/></clipPath><clipPath id="clip90"><rect x="943" y="1555" width="1331" height="990"/></clipPath><clipPath id="clip91"><rect x="943" y="1555" width="1331" height="990"/></clipPath><clipPath id="clip92"><rect x="943" y="1555" width="1331" height="990"/></clipPath><clipPath id="clip93"><rect x="943" y="1555" width="1331" height="990"/></clipPath><clipPath id="clip94"><rect x="943" y="1555" width="1331" height="990"/></clipPath><clipPath id="clip95"><rect x="943" y="1555" width="1331" height="990"/></clipPath><clipPath id="clip96"><rect x="943" y="1555" width="1331" height="990"/></clipPath><clipPath id="clip97"><rect x="2253" y="1553" width="1396" height="990"/></clipPath><clipPath id="clip98"><rect x="2253" y="1553" width="1396" height="990"/></clipPath><clipPath id="clip99"><rect x="2253" y="1553" width="1396" height="990"/></clipPath><clipPath id="clip100"><rect x="2253" y="1553" width="1396" height="990"/></clipPath><clipPath id="clip101"><rect x="2475" y="1578" width="1110" height="845"/></clipPath><clipPath id="clip102"><rect x="2475" y="1578" width="1110" height="845"/></clipPath><clipPath id="clip103"><rect x="2475" y="1578" width="1110" height="845"/></clipPath><clipPath id="clip104"><rect x="2475" y="1578" width="1110" height="845"/></clipPath><clipPath id="clip105"><rect x="2475" y="1578" width="1110" height="845"/></clipPath><clipPath id="clip106"><rect x="2475" y="1578" width="1110" height="845"/></clipPath><clipPath id="clip107"><rect x="2475" y="1578" width="1110" height="845"/></clipPath><clipPath id="clip108"><rect x="2475" y="1578" width="1110" height="845"/></clipPath><clipPath id="clip109"><rect x="2475" y="1578" width="1110" height="845"/></clipPath><clipPath id="clip110"><rect x="2475" y="1578" width="1110" height="845"/></clipPath><clipPath id="clip111"><rect x="2475" y="1578" width="1110" height="845"/></clipPath><clipPath id="clip112"><rect x="2475" y="1578" width="1110" height="845"/></clipPath><clipPath id="clip113"><rect x="2475" y="1578" width="1110" height="845"/></clipPath><clipPath id="clip114"><rect x="2475" y="1578" width="1110" height="845"/></clipPath><clipPath id="clip115"><rect x="2475" y="1578" width="1110" height="845"/></clipPath><clipPath id="clip116"><rect x="2475" y="1578" width="1110" height="845"/></clipPath><clipPath id="clip117"><rect x="2475" y="1578" width="1110" height="845"/></clipPath><clipPath id="clip118"><rect x="2475" y="1578" width="1110" height="845"/></clipPath><clipPath id="clip119"><rect x="2475" y="1578" width="1110" height="845"/></clipPath><clipPath id="clip120"><rect x="2475" y="1578" width="1110" height="845"/></clipPath><clipPath id="clip121"><rect x="2475" y="1578" width="1110" height="845"/></clipPath><clipPath id="clip122"><rect x="2475" y="1578" width="1110" height="845"/></clipPath><clipPath id="clip123"><rect x="2475" y="1578" width="1110" height="845"/></clipPath><clipPath id="clip124"><rect x="2475" y="1578" width="1110" height="845"/></clipPath><clipPath id="clip125"><rect x="2475" y="1578" width="1110" height="845"/></clipPath><clipPath id="clip126"><rect x="2475" y="1578" width="1110" height="845"/></clipPath><clipPath id="clip127"><rect x="2475" y="1578" width="1110" height="845"/></clipPath><clipPath id="clip128"><rect x="2475" y="1578" width="1110" height="845"/></clipPath><clipPath id="clip129"><rect x="2253" y="1553" width="1396" height="990"/></clipPath><clipPath id="clip130"><rect x="2253" y="1553" width="1396" height="990"/></clipPath><clipPath id="clip131"><rect x="2253" y="1553" width="1396" height="990"/></clipPath><clipPath id="clip132"><rect x="2253" y="1553" width="1396" height="990"/></clipPath><clipPath id="clip133"><rect x="2253" y="1553" width="1396" height="990"/></clipPath><clipPath id="clip134"><rect x="2253" y="1553" width="1396" height="990"/></clipPath><clipPath id="clip135"><rect x="2253" y="1553" width="1396" height="990"/></clipPath><clipPath id="clip136"><rect x="2253" y="1553" width="1396" height="990"/></clipPath><clipPath id="clip137"><rect x="2253" y="1553" width="1396" height="990"/></clipPath><clipPath id="clip138"><rect x="2253" y="1553" width="1396" height="990"/></clipPath><clipPath id="clip139"><rect x="2253" y="1553" width="1396" height="990"/></clipPath><clipPath id="clip140"><rect x="2253" y="1553" width="1396" height="990"/></clipPath><clipPath id="clip141"><rect x="2253" y="1553" width="1396" height="990"/></clipPath><clipPath id="clip142"><rect x="2253" y="1553" width="1396" height="990"/></clipPath><clipPath id="clip143"><rect x="2253" y="1553" width="1396" height="990"/></clipPath><clipPath id="clip144"><rect x="2253" y="1553" width="1396" height="990"/></clipPath><clipPath id="clip145"><rect x="2253" y="1553" width="1396" height="990"/></clipPath><clipPath id="clip146"><rect x="2253" y="1553" width="1396" height="990"/></clipPath><clipPath id="clip147"><rect x="2253" y="1553" width="1396" height="990"/></clipPath><clipPath id="clip148"><rect x="2253" y="1553" width="1396" height="990"/></clipPath></defs><g clip-path="url(#clip0)" transform="translate(-944 -1553)"><rect x="944" y="1555" width="1331" height="990" fill="#FFFFFF"/><g clip-path="url(#clip1)"><path d="M1162.5 2315.58 2226.5 2315.58M1162.5 2210.57 2226.5 2210.57M1162.5 2105.57 2226.5 2105.57M1162.5 2000.57 2226.5 2000.57M1162.5 1895.56 2226.5 1895.56M1162.5 1790.56 2226.5 1790.56M1162.5 1685.56 2226.5 1685.56M1162.5 1580.5 2226.5 1580.5" stroke="#D9D9D9" stroke-width="3.4375" stroke-linejoin="round" stroke-miterlimit="10" fill="none"/></g><g clip-path="url(#clip2)"><path d="M1314.54 1580.5 1314.54 2420.5M1466.55 1580.5 1466.55 2420.5M1618.55 1580.5 1618.55 2420.5M1770.56 1580.5 1770.56 2420.5M1922.56 1580.5 1922.56 2420.5M2074.57 1580.5 2074.57 2420.5M2226.5 1580.5 2226.5 2420.5" stroke="#D9D9D9" stroke-width="3.4375" stroke-linejoin="round" stroke-miterlimit="10" fill="none"/></g><g clip-path="url(#clip3)"><path d="M0 0 0.000360892 840" stroke="#BFBFBF" stroke-width="3.4375" stroke-linejoin="round" stroke-miterlimit="10" fill="none" fill-rule="evenodd" transform="matrix(1 0 0 -1 1162.5 2420.5)"/></g><g clip-path="url(#clip4)"><path d="M1162.5 2420.5 2226.5 2420.5" stroke="#BFBFBF" stroke-width="3.4375" stroke-linejoin="round" stroke-miterlimit="10" fill="none" fill-rule="evenodd"/></g><g clip-path="url(#clip5)"><path d="M1223.54 2403.58 1223.54 2403.5M1223.54 2403.58 1223.54 2402.5M1213.5 2403.5 1233.5 2403.5M1213.5 2402.5 1233.5 2402.5" stroke="#595959" stroke-width="3.4375" stroke-linejoin="round" stroke-miterlimit="10" fill="none"/></g><g clip-path="url(#clip6)"><path d="M1253.54 2395.58 1253.54 2396.5M1253.54 2395.58 1253.54 2395.5M1243.5 2396.5 1264.5 2396.5M1243.5 2395.5 1264.5 2395.5" stroke="#595959" stroke-width="3.4375" stroke-linejoin="round" stroke-miterlimit="10" fill="none"/></g><g clip-path="url(#clip7)"><path d="M1284.54 2387.58 1284.54 2388.5M1284.54 2387.58 1284.54 2386.5M1274.5 2388.5 1294.5 2388.5M1274.5 2386.5 1294.5 2386.5" stroke="#595959" stroke-width="3.4375" stroke-linejoin="round" stroke-miterlimit="10" fill="none"/></g><g clip-path="url(#clip8)"><path d="M1314.54 2379.58 1314.54 2380.5M1314.54 2379.58 1314.54 2378.5M1304.5 2380.5 1325.5 2380.5M1304.5 2378.5 1325.5 2378.5" stroke="#595959" stroke-width="3.4375" stroke-linejoin="round" stroke-miterlimit="10" fill="none"/></g><g clip-path="url(#clip9)"><path d="M1375.55 2362.58 1375.55 2363.5M1375.55 2362.58 1375.55 2362.5M1365.5 2363.5 1385.5 2363.5M1365.5 2362.5 1385.5 2362.5" stroke="#595959" stroke-width="3.4375" stroke-linejoin="round" stroke-miterlimit="10" fill="none"/></g><g clip-path="url(#clip10)"><path d="M1466.55 2338.58 1466.55 2339.5M1466.55 2338.58 1466.55 2337.5M1456.5 2339.5 1476.5 2339.5M1456.5 2337.5 1476.5 2337.5" stroke="#595959" stroke-width="3.4375" stroke-linejoin="round" stroke-miterlimit="10" fill="none"/></g><g clip-path="url(#clip11)"><path d="M1618.55 2298.58 1618.55 2300.5M1618.55 2298.58 1618.55 2296.5M1608.5 2300.5 1628.5 2300.5M1608.5 2296.5 1628.5 2296.5" stroke="#595959" stroke-width="3.4375" stroke-linejoin="round" stroke-miterlimit="10" fill="none"/></g><g clip-path="url(#clip12)"><path d="M1770.56 2258.57 1770.56 2260.5M1770.56 2258.57 1770.56 2256.5M1760.5 2260.5 1780.5 2260.5M1760.5 2256.5 1780.5 2256.5" stroke="#595959" stroke-width="3.4375" stroke-linejoin="round" stroke-miterlimit="10" fill="none"/></g><g clip-path="url(#clip13)"><path d="M1922.56 2216.57 1922.56 2218.5M1922.56 2216.57 1922.56 2214.5M1912.5 2218.5 1932.5 2218.5M1912.5 2214.5 1932.5 2214.5" stroke="#595959" stroke-width="3.4375" stroke-linejoin="round" stroke-miterlimit="10" fill="none"/></g><g clip-path="url(#clip14)"><path d="M2074.57 2176.57 2074.57 2177.5M2074.57 2176.57 2074.57 2176.5M2064.5 2177.5 2084.5 2177.5M2064.5 2176.5 2084.5 2176.5" stroke="#595959" stroke-width="3.4375" stroke-linejoin="round" stroke-miterlimit="10" fill="none"/></g><g clip-path="url(#clip15)"><path d="M1223.54 2371.58 1223.54 2373.5M1223.54 2371.58 1223.54 2369.5M1213.5 2373.5 1233.5 2373.5M1213.5 2369.5 1233.5 2369.5" stroke="#595959" stroke-width="3.4375" stroke-linejoin="round" stroke-miterlimit="10" fill="none"/></g><g clip-path="url(#clip16)"><path d="M1253.54 2349.58 1253.54 2351.5M1253.54 2349.58 1253.54 2346.5M1243.5 2351.5 1264.5 2351.5M1243.5 2346.5 1264.5 2346.5" stroke="#595959" stroke-width="3.4375" stroke-linejoin="round" stroke-miterlimit="10" fill="none"/></g><g clip-path="url(#clip17)"><path d="M1284.54 2323.58 1284.54 2325.5M1284.54 2323.58 1284.54 2321.5M1274.5 2325.5 1294.5 2325.5M1274.5 2321.5 1294.5 2321.5" stroke="#595959" stroke-width="3.4375" stroke-linejoin="round" stroke-miterlimit="10" fill="none"/></g><g clip-path="url(#clip18)"><path d="M1314.54 2299.58 1314.54 2301.5M1314.54 2299.58 1314.54 2297.5M1304.5 2301.5 1325.5 2301.5M1304.5 2297.5 1325.5 2297.5" stroke="#595959" stroke-width="3.4375" stroke-linejoin="round" stroke-miterlimit="10" fill="none"/></g><g clip-path="url(#clip19)"><path d="M1375.55 2248.57 1375.55 2252.5M1375.55 2248.57 1375.55 2245.5M1365.5 2252.5 1385.5 2252.5M1365.5 2245.5 1385.5 2245.5" stroke="#595959" stroke-width="3.4375" stroke-linejoin="round" stroke-miterlimit="10" fill="none"/></g><g clip-path="url(#clip20)"><path d="M1466.55 2173.57 1466.55 2178.5M1466.55 2173.57 1466.55 2169.5M1456.5 2178.5 1476.5 2178.5M1456.5 2169.5 1476.5 2169.5" stroke="#595959" stroke-width="3.4375" stroke-linejoin="round" stroke-miterlimit="10" fill="none"/></g><g clip-path="url(#clip21)"><path d="M1618.55 2049.57 1618.55 2056.5M1618.55 2049.57 1618.55 2043.5M1608.5 2056.5 1628.5 2056.5M1608.5 2043.5 1628.5 2043.5" stroke="#595959" stroke-width="3.4375" stroke-linejoin="round" stroke-miterlimit="10" fill="none"/></g><g clip-path="url(#clip22)"><path d="M1922.56 1808.56 1922.56 1828.5M1922.56 1808.56 1922.56 1788.5M1912.5 1828.5 1932.5 1828.5M1912.5 1788.5 1932.5 1788.5" stroke="#595959" stroke-width="3.4375" stroke-linejoin="round" stroke-miterlimit="10" fill="none"/></g><g clip-path="url(#clip23)"><path d="M2074.57 1684.56 2074.57 1706.5M2074.57 1684.56 2074.57 1662.5M2064.5 1706.5 2084.5 1706.5M2064.5 1662.5 2084.5 1662.5" stroke="#595959" stroke-width="3.4375" stroke-linejoin="round" stroke-miterlimit="10" fill="none"/></g><g clip-path="url(#clip24)"><path d="M1223.54 2399.58 1223.5 2399.58M1223.54 2399.58 1224.5 2399.58M1223.5 2389.5 1223.5 2409.5M1224.5 2389.5 1224.5 2409.5" stroke="#595959" stroke-width="3.4375" stroke-linejoin="round" stroke-miterlimit="10" fill="none"/></g><g clip-path="url(#clip25)"><path d="M1253.54 2388.58 1253.5 2388.58M1253.54 2388.58 1254.5 2388.58M1253.5 2378.5 1253.5 2398.5M1254.5 2378.5 1254.5 2398.5" stroke="#595959" stroke-width="3.4375" stroke-linejoin="round" stroke-miterlimit="10" fill="none"/></g><g clip-path="url(#clip26)"><path d="M1284.54 2376.58 1284.5 2376.58M1284.54 2376.58 1285.5 2376.58M1284.5 2365.5 1284.5 2386.5M1285.5 2365.5 1285.5 2386.5" stroke="#595959" stroke-width="3.4375" stroke-linejoin="round" stroke-miterlimit="10" fill="none"/></g><g clip-path="url(#clip27)"><path d="M1314.54 2364.58 1314.5 2364.58M1314.54 2364.58 1315.5 2364.58M1314.5 2354.5 1314.5 2374.5M1315.5 2354.5 1315.5 2374.5" stroke="#595959" stroke-width="3.4375" stroke-linejoin="round" stroke-miterlimit="10" fill="none"/></g><g clip-path="url(#clip28)"><path d="M1375.55 2340.58 1375.5 2340.58M1375.55 2340.58 1376.5 2340.58M1375.5 2330.5 1375.5 2350.5M1376.5 2330.5 1376.5 2350.5" stroke="#595959" stroke-width="3.4375" stroke-linejoin="round" stroke-miterlimit="10" fill="none"/></g><g clip-path="url(#clip29)"><path d="M1466.55 2304.58 1466.5 2304.58M1466.55 2304.58 1467.5 2304.58M1466.5 2294.5 1466.5 2314.5M1467.5 2294.5 1467.5 2314.5" stroke="#595959" stroke-width="3.4375" stroke-linejoin="round" stroke-miterlimit="10" fill="none"/></g><g clip-path="url(#clip30)"><path d="M1618.55 2243.57 1618.5 2243.57M1618.55 2243.57 1619.5 2243.57M1618.5 2233.5 1618.5 2254.5M1619.5 2233.5 1619.5 2254.5" stroke="#595959" stroke-width="3.4375" stroke-linejoin="round" stroke-miterlimit="10" fill="none"/></g><g clip-path="url(#clip31)"><path d="M1770.56 2183.57 1770.5 2183.57M1770.56 2183.57 1771.5 2183.57M1770.5 2173.5 1770.5 2193.5M1771.5 2173.5 1771.5 2193.5" stroke="#595959" stroke-width="3.4375" stroke-linejoin="round" stroke-miterlimit="10" fill="none"/></g><g clip-path="url(#clip32)"><path d="M1922.56 2122.57 1922.5 2122.57M1922.56 2122.57 1923.5 2122.57M1922.5 2112.5 1922.5 2132.5M1923.5 2112.5 1923.5 2132.5" stroke="#595959" stroke-width="3.4375" stroke-linejoin="round" stroke-miterlimit="10" fill="none"/></g><g clip-path="url(#clip33)"><path d="M2074.57 2092.57 2074.5 2092.57M2074.57 2092.57 2075.5 2092.57M2074.5 2082.5 2074.5 2102.5M2075.5 2082.5 2075.5 2102.5" stroke="#595959" stroke-width="3.4375" stroke-linejoin="round" stroke-miterlimit="10" fill="none"/></g><g clip-path="url(#clip34)"><path d="M1223.54 2399.58 1223.54 2400.5M1223.54 2399.58 1223.54 2399.5M1213.5 2400.5 1233.5 2400.5M1213.5 2399.5 1233.5 2399.5" stroke="#595959" stroke-width="3.4375" stroke-linejoin="round" stroke-miterlimit="10" fill="none"/></g><g clip-path="url(#clip35)"><path d="M1253.54 2388.58 1253.54 2389.5M1253.54 2388.58 1253.54 2388.5M1243.5 2389.5 1264.5 2389.5M1243.5 2388.5 1264.5 2388.5" stroke="#595959" stroke-width="3.4375" stroke-linejoin="round" stroke-miterlimit="10" fill="none"/></g><g clip-path="url(#clip36)"><path d="M1284.54 2376.58 1284.54 2376.5M1284.54 2376.58 1284.54 2375.5M1274.5 2376.5 1294.5 2376.5M1274.5 2375.5 1294.5 2375.5" stroke="#595959" stroke-width="3.4375" stroke-linejoin="round" stroke-miterlimit="10" fill="none"/></g><g clip-path="url(#clip37)"><path d="M1314.54 2364.58 1314.54 2365.5M1314.54 2364.58 1314.54 2364.5M1304.5 2365.5 1325.5 2365.5M1304.5 2364.5 1325.5 2364.5" stroke="#595959" stroke-width="3.4375" stroke-linejoin="round" stroke-miterlimit="10" fill="none"/></g><g clip-path="url(#clip38)"><path d="M1375.55 2340.58 1375.55 2341.5M1375.55 2340.58 1375.55 2340.5M1365.5 2341.5 1385.5 2341.5M1365.5 2340.5 1385.5 2340.5" stroke="#595959" stroke-width="3.4375" stroke-linejoin="round" stroke-miterlimit="10" fill="none"/></g><g clip-path="url(#clip39)"><path d="M1466.55 2304.58 1466.55 2305.5M1466.55 2304.58 1466.55 2304.5M1456.5 2305.5 1476.5 2305.5M1456.5 2304.5 1476.5 2304.5" stroke="#595959" stroke-width="3.4375" stroke-linejoin="round" stroke-miterlimit="10" fill="none"/></g><g clip-path="url(#clip40)"><path d="M1618.55 2243.57 1618.55 2244.5M1618.55 2243.57 1618.55 2243.5M1608.5 2244.5 1628.5 2244.5M1608.5 2243.5 1628.5 2243.5" stroke="#595959" stroke-width="3.4375" stroke-linejoin="round" stroke-miterlimit="10" fill="none"/></g><g clip-path="url(#clip41)"><path d="M1770.56 2183.57 1770.56 2184.5M1770.56 2183.57 1770.56 2183.5M1760.5 2184.5 1780.5 2184.5M1760.5 2183.5 1780.5 2183.5" stroke="#595959" stroke-width="3.4375" stroke-linejoin="round" stroke-miterlimit="10" fill="none"/></g><g clip-path="url(#clip42)"><path d="M1922.56 2122.57 1922.56 2123.5M1922.56 2122.57 1922.56 2122.5M1912.5 2123.5 1932.5 2123.5M1912.5 2122.5 1932.5 2122.5" stroke="#595959" stroke-width="3.4375" stroke-linejoin="round" stroke-miterlimit="10" fill="none"/></g><g clip-path="url(#clip43)"><path d="M2074.57 2092.57 2074.57 2093.5M2074.57 2092.57 2074.57 2092.5M2064.5 2093.5 2084.5 2093.5M2064.5 2092.5 2084.5 2092.5" stroke="#595959" stroke-width="3.4375" stroke-linejoin="round" stroke-miterlimit="10" fill="none"/></g><g clip-path="url(#clip44)"><path d="M1223.54 2376.58 1223.54 2377.5M1223.54 2376.58 1223.54 2376.5M1213.5 2377.5 1233.5 2377.5M1213.5 2376.5 1233.5 2376.5" stroke="#595959" stroke-width="3.4375" stroke-linejoin="round" stroke-miterlimit="10" fill="none"/></g><g clip-path="url(#clip45)"><path d="M1253.54 2358.58 1253.54 2359.5M1253.54 2358.58 1253.54 2358.5M1243.5 2359.5 1264.5 2359.5M1243.5 2358.5 1264.5 2358.5" stroke="#595959" stroke-width="3.4375" stroke-linejoin="round" stroke-miterlimit="10" fill="none"/></g><g clip-path="url(#clip46)"><path d="M1284.54 2337.58 1284.54 2337.5M1284.54 2337.58 1284.54 2336.5M1274.5 2337.5 1294.5 2337.5M1274.5 2336.5 1294.5 2336.5" stroke="#595959" stroke-width="3.4375" stroke-linejoin="round" stroke-miterlimit="10" fill="none"/></g><g clip-path="url(#clip47)"><path d="M1314.54 2317.58 1314.54 2318.5M1314.54 2317.58 1314.54 2317.5M1304.5 2318.5 1325.5 2318.5M1304.5 2317.5 1325.5 2317.5" stroke="#595959" stroke-width="3.4375" stroke-linejoin="round" stroke-miterlimit="10" fill="none"/></g><g clip-path="url(#clip48)"><path d="M1375.55 2277.57 1375.55 2278.5M1375.55 2277.57 1375.55 2277.5M1365.5 2278.5 1385.5 2278.5M1365.5 2277.5 1385.5 2277.5" stroke="#595959" stroke-width="3.4375" stroke-linejoin="round" stroke-miterlimit="10" fill="none"/></g><g clip-path="url(#clip49)"><path d="M1466.55 2217.57 1466.55 2217.5M1466.55 2217.57 1466.55 2216.5M1456.5 2217.5 1476.5 2217.5M1456.5 2216.5 1476.5 2216.5" stroke="#595959" stroke-width="3.4375" stroke-linejoin="round" stroke-miterlimit="10" fill="none"/></g><g clip-path="url(#clip50)"><path d="M1618.55 2117.57 1618.55 2118.5M1618.55 2117.57 1618.55 2117.5M1608.5 2118.5 1628.5 2118.5M1608.5 2117.5 1628.5 2117.5" stroke="#595959" stroke-width="3.4375" stroke-linejoin="round" stroke-miterlimit="10" fill="none"/></g><g clip-path="url(#clip51)"><path d="M1770.56 2021.57 1770.56 2022.5M1770.56 2021.57 1770.56 2021.5M1760.5 2022.5 1780.5 2022.5M1760.5 2021.5 1780.5 2021.5" stroke="#595959" stroke-width="3.4375" stroke-linejoin="round" stroke-miterlimit="10" fill="none"/></g><g clip-path="url(#clip52)"><path d="M1922.56 1923.56 1922.56 1923.5M1922.56 1923.56 1922.56 1922.5M1912.5 1923.5 1932.5 1923.5M1912.5 1922.5 1932.5 1922.5" stroke="#595959" stroke-width="3.4375" stroke-linejoin="round" stroke-miterlimit="10" fill="none"/></g><g clip-path="url(#clip53)"><path d="M2074.57 1825.56 2074.57 1826.5M2074.57 1825.56 2074.57 1825.5M2064.5 1826.5 2084.5 1826.5M2064.5 1825.5 2084.5 1825.5" stroke="#595959" stroke-width="3.4375" stroke-linejoin="round" stroke-miterlimit="10" fill="none"/></g><g clip-path="url(#clip54)"><path d="M1234.49 2403.57C1234.49 2409.65 1229.57 2414.57 1223.49 2414.57 1217.42 2414.57 1212.49 2409.65 1212.49 2403.57 1212.49 2397.5 1217.42 2392.57 1223.49 2392.57 1229.57 2392.57 1234.49 2397.5 1234.49 2403.57Z" stroke="#ED7D31" stroke-width="3.4375" stroke-linejoin="round" stroke-miterlimit="10" fill="#ED7D31"/><path d="M1264.49 2395.57C1264.49 2401.65 1259.57 2406.57 1253.49 2406.57 1247.42 2406.57 1242.49 2401.65 1242.49 2395.57 1242.49 2389.5 1247.42 2384.57 1253.49 2384.57 1259.57 2384.57 1264.49 2389.5 1264.49 2395.57Z" stroke="#ED7D31" stroke-width="3.4375" stroke-linejoin="round" stroke-miterlimit="10" fill="#ED7D31"/><path d="M1295.49 2387.57C1295.49 2393.65 1290.57 2398.57 1284.49 2398.57 1278.42 2398.57 1273.49 2393.65 1273.49 2387.57 1273.49 2381.5 1278.42 2376.57 1284.49 2376.57 1290.57 2376.57 1295.49 2381.5 1295.49 2387.57Z" stroke="#ED7D31" stroke-width="3.4375" stroke-linejoin="round" stroke-miterlimit="10" fill="#ED7D31"/><path d="M1325.49 2379.57C1325.49 2385.65 1320.57 2390.57 1314.49 2390.57 1308.42 2390.57 1303.49 2385.65 1303.49 2379.57 1303.49 2373.5 1308.42 2368.57 1314.49 2368.57 1320.57 2368.57 1325.49 2373.5 1325.49 2379.57Z" stroke="#ED7D31" stroke-width="3.4375" stroke-linejoin="round" stroke-miterlimit="10" fill="#ED7D31"/><path d="M1386.49 2362.57C1386.49 2368.65 1381.57 2373.57 1375.49 2373.57 1369.42 2373.57 1364.49 2368.65 1364.49 2362.57 1364.49 2356.5 1369.42 2351.57 1375.49 2351.57 1381.57 2351.57 1386.49 2356.5 1386.49 2362.57Z" stroke="#ED7D31" stroke-width="3.4375" stroke-linejoin="round" stroke-miterlimit="10" fill="#ED7D31"/><path d="M1477.49 2338.57C1477.49 2344.65 1472.57 2349.57 1466.49 2349.57 1460.42 2349.57 1455.49 2344.65 1455.49 2338.57 1455.49 2332.5 1460.42 2327.57 1466.49 2327.57 1472.57 2327.57 1477.49 2332.5 1477.49 2338.57Z" stroke="#ED7D31" stroke-width="3.4375" stroke-linejoin="round" stroke-miterlimit="10" fill="#ED7D31"/><path d="M1629.49 2298.57C1629.49 2304.65 1624.56 2309.57 1618.49 2309.57 1612.42 2309.57 1607.49 2304.65 1607.49 2298.57 1607.49 2292.5 1612.42 2287.57 1618.49 2287.57 1624.56 2287.57 1629.49 2292.5 1629.49 2298.57Z" stroke="#ED7D31" stroke-width="3.4375" stroke-linejoin="round" stroke-miterlimit="10" fill="#ED7D31"/><path d="M1781.49 2258.57C1781.49 2264.65 1776.57 2269.57 1770.49 2269.57 1764.42 2269.57 1759.49 2264.65 1759.49 2258.57 1759.49 2252.5 1764.42 2247.57 1770.49 2247.57 1776.57 2247.57 1781.49 2252.5 1781.49 2258.57Z" stroke="#ED7D31" stroke-width="3.4375" stroke-linejoin="round" stroke-miterlimit="10" fill="#ED7D31"/><path d="M1933.49 2216.57C1933.49 2222.65 1928.57 2227.57 1922.49 2227.57 1916.42 2227.57 1911.49 2222.65 1911.49 2216.57 1911.49 2210.5 1916.42 2205.57 1922.49 2205.57 1928.57 2205.57 1933.49 2210.5 1933.49 2216.57Z" stroke="#ED7D31" stroke-width="3.4375" stroke-linejoin="round" stroke-miterlimit="10" fill="#ED7D31"/><path d="M2085.49 2176.57C2085.49 2182.65 2080.57 2187.57 2074.49 2187.57 2068.42 2187.57 2063.49 2182.65 2063.49 2176.57 2063.49 2170.5 2068.42 2165.57 2074.49 2165.57 2080.57 2165.57 2085.49 2170.5 2085.49 2176.57Z" stroke="#ED7D31" stroke-width="3.4375" stroke-linejoin="round" stroke-miterlimit="10" fill="#ED7D31"/></g><g clip-path="url(#clip55)"><path d="M1234.49 2371.57C1234.49 2377.65 1229.57 2382.57 1223.49 2382.57 1217.42 2382.57 1212.49 2377.65 1212.49 2371.57 1212.49 2365.5 1217.42 2360.57 1223.49 2360.57 1229.57 2360.57 1234.49 2365.5 1234.49 2371.57Z" stroke="#2E75B6" stroke-width="3.4375" stroke-linejoin="round" stroke-miterlimit="10" fill="#2E75B6"/><path d="M1264.49 2349.57C1264.49 2355.65 1259.57 2360.57 1253.49 2360.57 1247.42 2360.57 1242.49 2355.65 1242.49 2349.57 1242.49 2343.5 1247.42 2338.57 1253.49 2338.57 1259.57 2338.57 1264.49 2343.5 1264.49 2349.57Z" stroke="#2E75B6" stroke-width="3.4375" stroke-linejoin="round" stroke-miterlimit="10" fill="#2E75B6"/><path d="M1295.49 2323.57C1295.49 2329.65 1290.57 2334.57 1284.49 2334.57 1278.42 2334.57 1273.49 2329.65 1273.49 2323.57 1273.49 2317.5 1278.42 2312.57 1284.49 2312.57 1290.57 2312.57 1295.49 2317.5 1295.49 2323.57Z" stroke="#2E75B6" stroke-width="3.4375" stroke-linejoin="round" stroke-miterlimit="10" fill="#2E75B6"/><path d="M1325.49 2299.57C1325.49 2305.65 1320.57 2310.57 1314.49 2310.57 1308.42 2310.57 1303.49 2305.65 1303.49 2299.57 1303.49 2293.5 1308.42 2288.57 1314.49 2288.57 1320.57 2288.57 1325.49 2293.5 1325.49 2299.57Z" stroke="#2E75B6" stroke-width="3.4375" stroke-linejoin="round" stroke-miterlimit="10" fill="#2E75B6"/><path d="M1386.49 2248.57C1386.49 2254.65 1381.57 2259.57 1375.49 2259.57 1369.42 2259.57 1364.49 2254.65 1364.49 2248.57 1364.49 2242.5 1369.42 2237.57 1375.49 2237.57 1381.57 2237.57 1386.49 2242.5 1386.49 2248.57Z" stroke="#2E75B6" stroke-width="3.4375" stroke-linejoin="round" stroke-miterlimit="10" fill="#2E75B6"/><path d="M1477.49 2173.57C1477.49 2179.65 1472.57 2184.57 1466.49 2184.57 1460.42 2184.57 1455.49 2179.65 1455.49 2173.57 1455.49 2167.5 1460.42 2162.57 1466.49 2162.57 1472.57 2162.57 1477.49 2167.5 1477.49 2173.57Z" stroke="#2E75B6" stroke-width="3.4375" stroke-linejoin="round" stroke-miterlimit="10" fill="#2E75B6"/><path d="M1629.49 2049.57C1629.49 2055.65 1624.56 2060.57 1618.49 2060.57 1612.42 2060.57 1607.49 2055.65 1607.49 2049.57 1607.49 2043.5 1612.42 2038.57 1618.49 2038.57 1624.56 2038.57 1629.49 2043.5 1629.49 2049.57Z" stroke="#2E75B6" stroke-width="3.4375" stroke-linejoin="round" stroke-miterlimit="10" fill="#2E75B6"/><path d="M1781.49 1936.57C1781.49 1942.65 1776.57 1947.57 1770.49 1947.57 1764.42 1947.57 1759.49 1942.65 1759.49 1936.57 1759.49 1930.5 1764.42 1925.57 1770.49 1925.57 1776.57 1925.57 1781.49 1930.5 1781.49 1936.57Z" stroke="#2E75B6" stroke-width="3.4375" stroke-linejoin="round" stroke-miterlimit="10" fill="#2E75B6"/><path d="M1933.49 1808.57C1933.49 1814.65 1928.57 1819.57 1922.49 1819.57 1916.42 1819.57 1911.49 1814.65 1911.49 1808.57 1911.49 1802.5 1916.42 1797.57 1922.49 1797.57 1928.57 1797.57 1933.49 1802.5 1933.49 1808.57Z" stroke="#2E75B6" stroke-width="3.4375" stroke-linejoin="round" stroke-miterlimit="10" fill="#2E75B6"/><path d="M2085.49 1684.57C2085.49 1690.65 2080.57 1695.57 2074.49 1695.57 2068.42 1695.57 2063.49 1690.65 2063.49 1684.57 2063.49 1678.5 2068.42 1673.57 2074.49 1673.57 2080.57 1673.57 2085.49 1678.5 2085.49 1684.57Z" stroke="#2E75B6" stroke-width="3.4375" stroke-linejoin="round" stroke-miterlimit="10" fill="#2E75B6"/></g><g clip-path="url(#clip56)"><path d="M1234.49 2399.57C1234.49 2405.65 1229.57 2410.57 1223.49 2410.57 1217.42 2410.57 1212.49 2405.65 1212.49 2399.57 1212.49 2393.5 1217.42 2388.57 1223.49 2388.57 1229.57 2388.57 1234.49 2393.5 1234.49 2399.57Z" stroke="#FFC000" stroke-width="3.4375" stroke-linejoin="round" stroke-miterlimit="10" fill="#FFC000"/><path d="M1264.49 2388.57C1264.49 2394.65 1259.57 2399.57 1253.49 2399.57 1247.42 2399.57 1242.49 2394.65 1242.49 2388.57 1242.49 2382.5 1247.42 2377.57 1253.49 2377.57 1259.57 2377.57 1264.49 2382.5 1264.49 2388.57Z" stroke="#FFC000" stroke-width="3.4375" stroke-linejoin="round" stroke-miterlimit="10" fill="#FFC000"/><path d="M1295.49 2376.57C1295.49 2382.65 1290.57 2387.57 1284.49 2387.57 1278.42 2387.57 1273.49 2382.65 1273.49 2376.57 1273.49 2370.5 1278.42 2365.57 1284.49 2365.57 1290.57 2365.57 1295.49 2370.5 1295.49 2376.57Z" stroke="#FFC000" stroke-width="3.4375" stroke-linejoin="round" stroke-miterlimit="10" fill="#FFC000"/><path d="M1325.49 2364.57C1325.49 2370.65 1320.57 2375.57 1314.49 2375.57 1308.42 2375.57 1303.49 2370.65 1303.49 2364.57 1303.49 2358.5 1308.42 2353.57 1314.49 2353.57 1320.57 2353.57 1325.49 2358.5 1325.49 2364.57Z" stroke="#FFC000" stroke-width="3.4375" stroke-linejoin="round" stroke-miterlimit="10" fill="#FFC000"/><path d="M1386.49 2340.57C1386.49 2346.65 1381.57 2351.57 1375.49 2351.57 1369.42 2351.57 1364.49 2346.65 1364.49 2340.57 1364.49 2334.5 1369.42 2329.57 1375.49 2329.57 1381.57 2329.57 1386.49 2334.5 1386.49 2340.57Z" stroke="#FFC000" stroke-width="3.4375" stroke-linejoin="round" stroke-miterlimit="10" fill="#FFC000"/><path d="M1477.49 2304.57C1477.49 2310.65 1472.57 2315.57 1466.49 2315.57 1460.42 2315.57 1455.49 2310.65 1455.49 2304.57 1455.49 2298.5 1460.42 2293.57 1466.49 2293.57 1472.57 2293.57 1477.49 2298.5 1477.49 2304.57Z" stroke="#FFC000" stroke-width="3.4375" stroke-linejoin="round" stroke-miterlimit="10" fill="#FFC000"/><path d="M1629.49 2243.57C1629.49 2249.65 1624.56 2254.57 1618.49 2254.57 1612.42 2254.57 1607.49 2249.65 1607.49 2243.57 1607.49 2237.5 1612.42 2232.57 1618.49 2232.57 1624.56 2232.57 1629.49 2237.5 1629.49 2243.57Z" stroke="#FFC000" stroke-width="3.4375" stroke-linejoin="round" stroke-miterlimit="10" fill="#FFC000"/><path d="M1781.49 2183.57C1781.49 2189.65 1776.57 2194.57 1770.49 2194.57 1764.42 2194.57 1759.49 2189.65 1759.49 2183.57 1759.49 2177.5 1764.42 2172.57 1770.49 2172.57 1776.57 2172.57 1781.49 2177.5 1781.49 2183.57Z" stroke="#FFC000" stroke-width="3.4375" stroke-linejoin="round" stroke-miterlimit="10" fill="#FFC000"/><path d="M1933.49 2122.57C1933.49 2128.65 1928.57 2133.57 1922.49 2133.57 1916.42 2133.57 1911.49 2128.65 1911.49 2122.57 1911.49 2116.5 1916.42 2111.57 1922.49 2111.57 1928.57 2111.57 1933.49 2116.5 1933.49 2122.57Z" stroke="#FFC000" stroke-width="3.4375" stroke-linejoin="round" stroke-miterlimit="10" fill="#FFC000"/><path d="M2085.49 2092.57C2085.49 2098.65 2080.57 2103.57 2074.49 2103.57 2068.42 2103.57 2063.49 2098.65 2063.49 2092.57 2063.49 2086.5 2068.42 2081.57 2074.49 2081.57 2080.57 2081.57 2085.49 2086.5 2085.49 2092.57Z" stroke="#FFC000" stroke-width="3.4375" stroke-linejoin="round" stroke-miterlimit="10" fill="#FFC000"/></g><g clip-path="url(#clip57)"><path d="M1234.49 2376.57C1234.49 2382.65 1229.57 2387.57 1223.49 2387.57 1217.42 2387.57 1212.49 2382.65 1212.49 2376.57 1212.49 2370.5 1217.42 2365.57 1223.49 2365.57 1229.57 2365.57 1234.49 2370.5 1234.49 2376.57Z" stroke="#A5A5A5" stroke-width="3.4375" stroke-linejoin="round" stroke-miterlimit="10" fill="#A5A5A5"/><path d="M1264.49 2358.57C1264.49 2364.65 1259.57 2369.57 1253.49 2369.57 1247.42 2369.57 1242.49 2364.65 1242.49 2358.57 1242.49 2352.5 1247.42 2347.57 1253.49 2347.57 1259.57 2347.57 1264.49 2352.5 1264.49 2358.57Z" stroke="#A5A5A5" stroke-width="3.4375" stroke-linejoin="round" stroke-miterlimit="10" fill="#A5A5A5"/><path d="M1295.49 2337.57C1295.49 2343.65 1290.57 2348.57 1284.49 2348.57 1278.42 2348.57 1273.49 2343.65 1273.49 2337.57 1273.49 2331.5 1278.42 2326.57 1284.49 2326.57 1290.57 2326.57 1295.49 2331.5 1295.49 2337.57Z" stroke="#A5A5A5" stroke-width="3.4375" stroke-linejoin="round" stroke-miterlimit="10" fill="#A5A5A5"/><path d="M1325.49 2317.57C1325.49 2323.65 1320.57 2328.57 1314.49 2328.57 1308.42 2328.57 1303.49 2323.65 1303.49 2317.57 1303.49 2311.5 1308.42 2306.57 1314.49 2306.57 1320.57 2306.57 1325.49 2311.5 1325.49 2317.57Z" stroke="#A5A5A5" stroke-width="3.4375" stroke-linejoin="round" stroke-miterlimit="10" fill="#A5A5A5"/><path d="M1386.49 2277.57C1386.49 2283.65 1381.57 2288.57 1375.49 2288.57 1369.42 2288.57 1364.49 2283.65 1364.49 2277.57 1364.49 2271.5 1369.42 2266.57 1375.49 2266.57 1381.57 2266.57 1386.49 2271.5 1386.49 2277.57Z" stroke="#A5A5A5" stroke-width="3.4375" stroke-linejoin="round" stroke-miterlimit="10" fill="#A5A5A5"/><path d="M1477.49 2217.57C1477.49 2223.65 1472.57 2228.57 1466.49 2228.57 1460.42 2228.57 1455.49 2223.65 1455.49 2217.57 1455.49 2211.5 1460.42 2206.57 1466.49 2206.57 1472.57 2206.57 1477.49 2211.5 1477.49 2217.57Z" stroke="#A5A5A5" stroke-width="3.4375" stroke-linejoin="round" stroke-miterlimit="10" fill="#A5A5A5"/><path d="M1629.49 2117.57C1629.49 2123.65 1624.56 2128.57 1618.49 2128.57 1612.42 2128.57 1607.49 2123.65 1607.49 2117.57 1607.49 2111.5 1612.42 2106.57 1618.49 2106.57 1624.56 2106.57 1629.49 2111.5 1629.49 2117.57Z" stroke="#A5A5A5" stroke-width="3.4375" stroke-linejoin="round" stroke-miterlimit="10" fill="#A5A5A5"/><path d="M1781.49 2021.57C1781.49 2027.65 1776.57 2032.57 1770.49 2032.57 1764.42 2032.57 1759.49 2027.65 1759.49 2021.57 1759.49 2015.5 1764.42 2010.57 1770.49 2010.57 1776.57 2010.57 1781.49 2015.5 1781.49 2021.57Z" stroke="#A5A5A5" stroke-width="3.4375" stroke-linejoin="round" stroke-miterlimit="10" fill="#A5A5A5"/><path d="M1933.49 1923.57C1933.49 1929.65 1928.57 1934.57 1922.49 1934.57 1916.42 1934.57 1911.49 1929.65 1911.49 1923.57 1911.49 1917.5 1916.42 1912.57 1922.49 1912.57 1928.57 1912.57 1933.49 1917.5 1933.49 1923.57Z" stroke="#A5A5A5" stroke-width="3.4375" stroke-linejoin="round" stroke-miterlimit="10" fill="#A5A5A5"/><path d="M2085.49 1826.57C2085.49 1832.65 2080.57 1837.57 2074.49 1837.57 2068.42 1837.57 2063.49 1832.65 2063.49 1826.57 2063.49 1820.5 2068.42 1815.57 2074.49 1815.57 2080.57 1815.57 2085.49 1820.5 2085.49 1826.57Z" stroke="#A5A5A5" stroke-width="3.4375" stroke-linejoin="round" stroke-miterlimit="10" fill="#A5A5A5"/></g><g clip-path="url(#clip58)"><path d="M0 0 851 227" stroke="#4472C4" stroke-width="6.875" stroke-linecap="round" stroke-linejoin="round" stroke-miterlimit="10" stroke-dasharray="0 13.75" fill="none" fill-rule="evenodd" transform="matrix(1 0 0 -1 1223.5 2403.5)"/></g><g clip-path="url(#clip59)"><path d="M0 0 851 228" stroke="#ED7D31" stroke-width="6.875" stroke-linecap="round" stroke-linejoin="round" stroke-miterlimit="10" stroke-dasharray="0 13.75" fill="none" fill-rule="evenodd" transform="matrix(1 0 0 -1 1223.5 2404.5)"/></g><g clip-path="url(#clip60)"><path d="M0 0 851 687" stroke="#ED7D31" stroke-width="6.875" stroke-linecap="round" stroke-linejoin="round" stroke-miterlimit="10" stroke-dasharray="0 13.75" fill="none" fill-rule="evenodd" transform="matrix(1 0 0 -1 1223.5 2372.5)"/></g><g clip-path="url(#clip61)"><path d="M0 0 851 685" stroke="#2E75B6" stroke-width="6.875" stroke-linecap="round" stroke-linejoin="round" stroke-miterlimit="10" stroke-dasharray="0 13.75" fill="none" fill-rule="evenodd" transform="matrix(1 0 0 -1 1223.5 2371.5)"/></g><g clip-path="url(#clip62)"><path d="M0 0 851 321" stroke="#A5A5A5" stroke-width="6.875" stroke-linecap="round" stroke-linejoin="round" stroke-miterlimit="10" stroke-dasharray="0 13.75" fill="none" fill-rule="evenodd" transform="matrix(1 0 0 -1 1223.5 2397.5)"/></g><g clip-path="url(#clip63)"><path d="M0 0 851 321" stroke="#FFC000" stroke-width="6.875" stroke-linecap="round" stroke-linejoin="round" stroke-miterlimit="10" stroke-dasharray="0 13.75" fill="none" fill-rule="evenodd" transform="matrix(1 0 0 -1 1223.5 2397.5)"/></g><g clip-path="url(#clip64)"><path d="M0 0 851 558" stroke="#A5A5A5" stroke-width="6.875" stroke-linecap="round" stroke-linejoin="round" stroke-miterlimit="10" stroke-dasharray="0 13.75" fill="none" fill-rule="evenodd" transform="matrix(1 0 0 -1 1223.5 2380.5)"/></g><g clip-path="url(#clip65)"><text fill="#595959" font-family="Calibri,Calibri_MSFontService,sans-serif" font-weight="400" font-size="41" transform="matrix(1 0 0 1 2021.07 2233)">y = 0.0039x</text></g><g clip-path="url(#clip66)"><text fill="#595959" font-family="Calibri,Calibri_MSFontService,sans-serif" font-weight="400" font-size="41" transform="matrix(1 0 0 1 2025.66 1752)">y = 0.0117x</text></g><g clip-path="url(#clip67)"><text fill="#595959" font-family="Calibri,Calibri_MSFontService,sans-serif" font-weight="400" font-size="41" transform="matrix(1 0 0 1 2030.24 2050)">y = 0.0055x</text></g><g clip-path="url(#clip68)"><text fill="#595959" font-family="Calibri,Calibri_MSFontService,sans-serif" font-weight="400" font-size="41" transform="matrix(1 0 0 1 2030.24 1894)">y = 0.0095x</text></g><g clip-path="url(#clip69)"><text fill="#595959" font-family="Calibri,Calibri_MSFontService,sans-serif" font-weight="400" font-size="41" transform="matrix(1 0 0 1 1103.61 2432)">0</text></g><g clip-path="url(#clip70)"><text fill="#595959" font-family="Calibri,Calibri_MSFontService,sans-serif" font-weight="400" font-size="41" transform="matrix(1 0 0 1 1051.4 2327)">0.05</text></g><g clip-path="url(#clip71)"><text fill="#595959" font-family="Calibri,Calibri_MSFontService,sans-serif" font-weight="400" font-size="41" transform="matrix(1 0 0 1 1072.3 2222)">0.1</text></g><g clip-path="url(#clip72)"><text fill="#595959" font-family="Calibri,Calibri_MSFontService,sans-serif" font-weight="400" font-size="41" transform="matrix(1 0 0 1 1051.4 2117)">0.15</text></g><g clip-path="url(#clip73)"><text fill="#595959" font-family="Calibri,Calibri_MSFontService,sans-serif" font-weight="400" font-size="41" transform="matrix(1 0 0 1 1072.3 2012)">0.2</text></g><g clip-path="url(#clip74)"><text fill="#595959" font-family="Calibri,Calibri_MSFontService,sans-serif" font-weight="400" font-size="41" transform="matrix(1 0 0 1 1051.4 1907)">0.25</text></g><g clip-path="url(#clip75)"><text fill="#595959" font-family="Calibri,Calibri_MSFontService,sans-serif" font-weight="400" font-size="41" transform="matrix(1 0 0 1 1072.3 1802)">0.3</text></g><g clip-path="url(#clip76)"><text fill="#595959" font-family="Calibri,Calibri_MSFontService,sans-serif" font-weight="400" font-size="41" transform="matrix(1 0 0 1 1051.4 1697)">0.35</text></g><g clip-path="url(#clip77)"><text fill="#595959" font-family="Calibri,Calibri_MSFontService,sans-serif" font-weight="400" font-size="41" transform="matrix(1 0 0 1 1072.3 1592)">0.4</text></g><g clip-path="url(#clip78)"><text fill="#595959" font-family="Calibri,Calibri_MSFontService,sans-serif" font-weight="400" font-size="41" transform="matrix(1 0 0 1 1152.32 2486)">0</text></g><g clip-path="url(#clip79)"><text fill="#595959" font-family="Calibri,Calibri_MSFontService,sans-serif" font-weight="400" font-size="41" transform="matrix(1 0 0 1 1304.26 2486)">5</text></g><g clip-path="url(#clip80)"><text fill="#595959" font-family="Calibri,Calibri_MSFontService,sans-serif" font-weight="400" font-size="41" transform="matrix(1 0 0 1 1445.74 2486)">10</text></g><g clip-path="url(#clip81)"><text fill="#595959" font-family="Calibri,Calibri_MSFontService,sans-serif" font-weight="400" font-size="41" transform="matrix(1 0 0 1 1597.67 2486)">15</text></g><g clip-path="url(#clip82)"><text fill="#595959" font-family="Calibri,Calibri_MSFontService,sans-serif" font-weight="400" font-size="41" transform="matrix(1 0 0 1 1749.6 2486)">20</text></g><g clip-path="url(#clip83)"><text fill="#595959" font-family="Calibri,Calibri_MSFontService,sans-serif" font-weight="400" font-size="41" transform="matrix(1 0 0 1 1901.53 2486)">25</text></g><g clip-path="url(#clip84)"><text fill="#595959" font-family="Calibri,Calibri_MSFontService,sans-serif" font-weight="400" font-size="41" transform="matrix(1 0 0 1 2053.47 2486)">30</text></g><g clip-path="url(#clip85)"><text fill="#595959" font-family="Calibri,Calibri_MSFontService,sans-serif" font-weight="400" font-size="41" transform="matrix(1 0 0 1 2205.4 2486)">35</text></g><g clip-path="url(#clip86)"><text fill="#595959" font-family="Calibri,Calibri_MSFontService,sans-serif" font-weight="400" font-size="46" transform="matrix(6.12323e-17 -1 1 6.12323e-17 1014.86 2140)">Vs/Ip  /  Ohm</text></g><g clip-path="url(#clip87)"><text fill="#595959" font-family="Calibri,Calibri_MSFontService,sans-serif" font-weight="400" font-size="46" transform="matrix(1 0 0 1 1544.08 2526)">Frequency / kHz</text></g><g clip-path="url(#clip88)"><rect x="1265.5" y="1620.5" width="268" height="309" stroke="#000000" stroke-width="3.4375" stroke-linejoin="round" stroke-miterlimit="10" fill="#FFFFFF"/></g><g clip-path="url(#clip89)"><path d="M1332 1659C1332 1665.07 1327.07 1670 1321 1670 1314.92 1670 1310 1665.07 1310 1659 1310 1652.92 1314.92 1648 1321 1648 1327.07 1648 1332 1652.92 1332 1659Z" stroke="#ED7D31" stroke-width="3.4375" stroke-linejoin="round" stroke-miterlimit="10" fill="#ED7D31"/></g><g clip-path="url(#clip90)"><text fill="#595959" font-family="Calibri,Calibri_MSFontService,sans-serif" font-weight="400" font-size="41" transform="matrix(1 0 0 1 1342.32 1671)">No Shell</text></g><g clip-path="url(#clip91)"><path d="M1332 1736C1332 1742.07 1327.07 1747 1321 1747 1314.92 1747 1310 1742.07 1310 1736 1310 1729.92 1314.92 1725 1321 1725 1327.07 1725 1332 1729.92 1332 1736Z" stroke="#2E75B6" stroke-width="3.4375" stroke-linejoin="round" stroke-miterlimit="10" fill="#2E75B6"/></g><g clip-path="url(#clip92)"><text fill="#595959" font-family="Calibri,Calibri_MSFontService,sans-serif" font-weight="400" font-size="41" transform="matrix(1 0 0 1 1342.32 1748)">Full Shell</text></g><g clip-path="url(#clip93)"><path d="M1332 1813C1332 1819.07 1327.07 1824 1321 1824 1314.92 1824 1310 1819.07 1310 1813 1310 1806.92 1314.92 1802 1321 1802 1327.07 1802 1332 1806.92 1332 1813Z" stroke="#FFC000" stroke-width="3.4375" stroke-linejoin="round" stroke-miterlimit="10" fill="#FFC000"/></g><g clip-path="url(#clip94)"><text fill="#595959" font-family="Calibri,Calibri_MSFontService,sans-serif" font-weight="400" font-size="41" transform="matrix(1 0 0 1 1342.32 1825)">Cu only</text></g><g clip-path="url(#clip95)"><path d="M1332 1891C1332 1897.07 1327.07 1902 1321 1902 1314.92 1902 1310 1897.07 1310 1891 1310 1884.92 1314.92 1880 1321 1880 1327.07 1880 1332 1884.92 1332 1891Z" stroke="#A5A5A5" stroke-width="3.4375" stroke-linejoin="round" stroke-miterlimit="10" fill="#A5A5A5"/></g><g clip-path="url(#clip96)"><text fill="#595959" font-family="Calibri,Calibri_MSFontService,sans-serif" font-weight="400" font-size="41" transform="matrix(1 0 0 1 1342.32 1903)">18 Mu</text></g><rect x="2254" y="1553" width="1395" height="990" fill="#FFFFFF"/><g clip-path="url(#clip97)"><path d="M2475.5 2254.57 3582.5 2254.57M2475.5 2085.57 3582.5 2085.57M2475.5 1916.56 3582.5 1916.56M2475.5 1747.56 3582.5 1747.56M2475.5 1578.5 3582.5 1578.5" stroke="#D9D9D9" stroke-width="3.4375" stroke-linejoin="round" stroke-miterlimit="10" fill="none"/></g><g clip-path="url(#clip98)"><path d="M2633.59 1578.5 2633.59 2423.5M2791.59 1578.5 2791.59 2423.5M2949.6 1578.5 2949.6 2423.5M3107.6 1578.5 3107.6 2423.5M3265.61 1578.5 3265.61 2423.5M3423.61 1578.5 3423.61 2423.5M3582.5 1578.5 3582.5 2423.5" stroke="#D9D9D9" stroke-width="3.4375" stroke-linejoin="round" stroke-miterlimit="10" fill="none"/></g><g clip-path="url(#clip99)"><path d="M0 0 0.000360892 845" stroke="#BFBFBF" stroke-width="3.4375" stroke-linejoin="round" stroke-miterlimit="10" fill="none" fill-rule="evenodd" transform="matrix(1 0 0 -1 2475.5 2423.5)"/></g><g clip-path="url(#clip100)"><path d="M2475.5 2423.5 3582.5 2423.5" stroke="#BFBFBF" stroke-width="3.4375" stroke-linejoin="round" stroke-miterlimit="10" fill="none" fill-rule="evenodd"/></g><g clip-path="url(#clip101)"><path d="M2538.58 1793.56 2538.58 1800.5M2538.58 1793.56 2538.58 1786.5M2528.5 1800.5 2549.5 1800.5M2528.5 1786.5 2549.5 1786.5" stroke="#595959" stroke-width="3.4375" stroke-linejoin="round" stroke-miterlimit="10" fill="none"/></g><g clip-path="url(#clip102)"><path d="M2570.58 1781.56 2570.58 1788.5M2570.58 1781.56 2570.58 1775.5M2560.5 1788.5 2580.5 1788.5M2560.5 1775.5 2580.5 1775.5" stroke="#595959" stroke-width="3.4375" stroke-linejoin="round" stroke-miterlimit="10" fill="none"/></g><g clip-path="url(#clip103)"><path d="M2601.59 1767.56 2601.59 1769.5M2601.59 1767.56 2601.59 1765.5M2591.5 1769.5 2612.5 1769.5M2591.5 1765.5 2612.5 1765.5" stroke="#595959" stroke-width="3.4375" stroke-linejoin="round" stroke-miterlimit="10" fill="none"/></g><g clip-path="url(#clip104)"><path d="M2633.59 1757.56 2633.59 1761.5M2633.59 1757.56 2633.59 1753.5M2623.5 1761.5 2643.5 1761.5M2623.5 1753.5 2643.5 1753.5" stroke="#595959" stroke-width="3.4375" stroke-linejoin="round" stroke-miterlimit="10" fill="none"/></g><g clip-path="url(#clip105)"><path d="M2696.59 1751.56 2696.59 1756.5M2696.59 1751.56 2696.59 1746.5M2686.5 1756.5 2707.5 1756.5M2686.5 1746.5 2707.5 1746.5" stroke="#595959" stroke-width="3.4375" stroke-linejoin="round" stroke-miterlimit="10" fill="none"/></g><g clip-path="url(#clip106)"><path d="M2791.59 1743.56 2791.59 1750.5M2791.59 1743.56 2791.59 1735.5M2781.5 1750.5 2802.5 1750.5M2781.5 1735.5 2802.5 1735.5" stroke="#595959" stroke-width="3.4375" stroke-linejoin="round" stroke-miterlimit="10" fill="none"/></g><g clip-path="url(#clip107)"><path d="M2949.6 1736.56 2949.6 1737.5M2949.6 1736.56 2949.6 1736.5M2939.5 1737.5 2960.5 1737.5M2939.5 1736.5 2960.5 1736.5" stroke="#595959" stroke-width="3.4375" stroke-linejoin="round" stroke-miterlimit="10" fill="none"/></g><g clip-path="url(#clip108)"><path d="M3265.61 1746.56 3265.61 1771.5M3265.61 1746.56 3265.61 1722.5M3255.5 1771.5 3276.5 1771.5M3255.5 1722.5 3276.5 1722.5" stroke="#595959" stroke-width="3.4375" stroke-linejoin="round" stroke-miterlimit="10" fill="none"/></g><g clip-path="url(#clip109)"><path d="M3423.61 1739.56 3423.61 1773.5M3423.61 1739.56 3423.61 1705.5M3413.5 1773.5 3434.5 1773.5M3413.5 1705.5 3434.5 1705.5" stroke="#595959" stroke-width="3.4375" stroke-linejoin="round" stroke-miterlimit="10" fill="none"/></g><g clip-path="url(#clip110)"><path d="M2538.58 2343.58 2538.58 2356.5M2538.58 2343.58 2538.58 2330.5M2528.5 2356.5 2549.5 2356.5M2528.5 2330.5 2549.5 2330.5" stroke="#595959" stroke-width="3.4375" stroke-linejoin="round" stroke-miterlimit="10" fill="none"/></g><g clip-path="url(#clip111)"><path d="M2570.58 2319.58 2570.58 2332.5M2570.58 2319.58 2570.58 2306.5M2560.5 2332.5 2580.5 2332.5M2560.5 2306.5 2580.5 2306.5" stroke="#595959" stroke-width="3.4375" stroke-linejoin="round" stroke-miterlimit="10" fill="none"/></g><g clip-path="url(#clip112)"><path d="M2601.59 2301.58 2601.59 2312.5M2601.59 2301.58 2601.59 2290.5M2591.5 2312.5 2612.5 2312.5M2591.5 2290.5 2612.5 2290.5" stroke="#595959" stroke-width="3.4375" stroke-linejoin="round" stroke-miterlimit="10" fill="none"/></g><g clip-path="url(#clip113)"><path d="M2633.59 2292.58 2633.59 2303.5M2633.59 2292.58 2633.59 2281.5M2623.5 2303.5 2643.5 2303.5M2623.5 2281.5 2643.5 2281.5" stroke="#595959" stroke-width="3.4375" stroke-linejoin="round" stroke-miterlimit="10" fill="none"/></g><g clip-path="url(#clip114)"><path d="M2696.59 2288.58 2696.59 2295.5M2696.59 2288.58 2696.59 2280.5M2686.5 2295.5 2707.5 2295.5M2686.5 2280.5 2707.5 2280.5" stroke="#595959" stroke-width="3.4375" stroke-linejoin="round" stroke-miterlimit="10" fill="none"/></g><g clip-path="url(#clip115)"><path d="M2791.59 2279.57 2791.59 2284.5M2791.59 2279.57 2791.59 2274.5M2781.5 2284.5 2802.5 2284.5M2781.5 2274.5 2802.5 2274.5" stroke="#595959" stroke-width="3.4375" stroke-linejoin="round" stroke-miterlimit="10" fill="none"/></g><g clip-path="url(#clip116)"><path d="M2949.6 2268.57 2949.6 2277.5M2949.6 2268.57 2949.6 2260.5M2939.5 2277.5 2960.5 2277.5M2939.5 2260.5 2960.5 2260.5" stroke="#595959" stroke-width="3.4375" stroke-linejoin="round" stroke-miterlimit="10" fill="none"/></g><g clip-path="url(#clip117)"><path d="M3107.6 2263.57 3107.6 2269.5M3107.6 2263.57 3107.6 2258.5M3097.5 2269.5 3118.5 2269.5M3097.5 2258.5 3118.5 2258.5" stroke="#595959" stroke-width="3.4375" stroke-linejoin="round" stroke-miterlimit="10" fill="none"/></g><g clip-path="url(#clip118)"><path d="M3265.61 2265.57 3265.61 2269.5M3265.61 2265.57 3265.61 2261.5M3255.5 2269.5 3276.5 2269.5M3255.5 2261.5 3276.5 2261.5" stroke="#595959" stroke-width="3.4375" stroke-linejoin="round" stroke-miterlimit="10" fill="none"/></g><g clip-path="url(#clip119)"><path d="M2538.58 1910.56 2538.58 1936.5M2538.58 1910.56 2538.58 1885.5M2528.5 1936.5 2549.5 1936.5M2528.5 1885.5 2549.5 1885.5" stroke="#595959" stroke-width="3.4375" stroke-linejoin="round" stroke-miterlimit="10" fill="none"/></g><g clip-path="url(#clip120)"><path d="M2570.58 1922.56 2570.58 1946.5M2570.58 1922.56 2570.58 1898.5M2560.5 1946.5 2580.5 1946.5M2560.5 1898.5 2580.5 1898.5" stroke="#595959" stroke-width="3.4375" stroke-linejoin="round" stroke-miterlimit="10" fill="none"/></g><g clip-path="url(#clip121)"><path d="M2601.59 1917.56 2601.59 1937.5M2601.59 1917.56 2601.59 1898.5M2591.5 1937.5 2612.5 1937.5M2591.5 1898.5 2612.5 1898.5" stroke="#595959" stroke-width="3.4375" stroke-linejoin="round" stroke-miterlimit="10" fill="none"/></g><g clip-path="url(#clip122)"><path d="M2633.59 1919.56 2633.59 1938.5M2633.59 1919.56 2633.59 1899.5M2623.5 1938.5 2643.5 1938.5M2623.5 1899.5 2643.5 1899.5" stroke="#595959" stroke-width="3.4375" stroke-linejoin="round" stroke-miterlimit="10" fill="none"/></g><g clip-path="url(#clip123)"><path d="M2696.59 1928.56 2696.59 1941.5M2696.59 1928.56 2696.59 1916.5M2686.5 1941.5 2707.5 1941.5M2686.5 1916.5 2707.5 1916.5" stroke="#595959" stroke-width="3.4375" stroke-linejoin="round" stroke-miterlimit="10" fill="none"/></g><g clip-path="url(#clip124)"><path d="M2791.59 1926.56 2791.59 1934.5M2791.59 1926.56 2791.59 1918.5M2781.5 1934.5 2802.5 1934.5M2781.5 1918.5 2802.5 1918.5" stroke="#595959" stroke-width="3.4375" stroke-linejoin="round" stroke-miterlimit="10" fill="none"/></g><g clip-path="url(#clip125)"><path d="M2949.6 1930.56 2949.6 1944.5M2949.6 1930.56 2949.6 1916.5M2939.5 1944.5 2960.5 1944.5M2939.5 1916.5 2960.5 1916.5" stroke="#595959" stroke-width="3.4375" stroke-linejoin="round" stroke-miterlimit="10" fill="none"/></g><g clip-path="url(#clip126)"><path d="M3107.6 1934.56 3107.6 1944.5M3107.6 1934.56 3107.6 1924.5M3097.5 1944.5 3118.5 1944.5M3097.5 1924.5 3118.5 1924.5" stroke="#595959" stroke-width="3.4375" stroke-linejoin="round" stroke-miterlimit="10" fill="none"/></g><g clip-path="url(#clip127)"><path d="M3265.61 1940.56 3265.61 1947.5M3265.61 1940.56 3265.61 1933.5M3255.5 1947.5 3276.5 1947.5M3255.5 1933.5 3276.5 1933.5" stroke="#595959" stroke-width="3.4375" stroke-linejoin="round" stroke-miterlimit="10" fill="none"/></g><g clip-path="url(#clip128)"><path d="M3423.61 1934.56 3423.61 1937.5M3423.61 1934.56 3423.61 1932.5M3413.5 1937.5 3434.5 1937.5M3413.5 1932.5 3434.5 1932.5" stroke="#595959" stroke-width="3.4375" stroke-linejoin="round" stroke-miterlimit="10" fill="none"/></g><g clip-path="url(#clip129)"><path d="M2549.05 1793.99C2549.05 1800.06 2544.12 1804.98 2538.05 1804.98 2531.97 1804.98 2527.05 1800.06 2527.05 1793.99 2527.05 1787.91 2531.97 1782.99 2538.05 1782.99 2544.12 1782.99 2549.05 1787.91 2549.05 1793.99Z" stroke="#4472C4" stroke-width="3.4375" stroke-linejoin="round" stroke-miterlimit="10" fill="#4472C4"/><path d="M2581.05 1781.99C2581.05 1788.06 2576.12 1792.98 2570.05 1792.98 2563.97 1792.98 2559.05 1788.06 2559.05 1781.99 2559.05 1775.91 2563.97 1770.99 2570.05 1770.99 2576.12 1770.99 2581.05 1775.91 2581.05 1781.99Z" stroke="#4472C4" stroke-width="3.4375" stroke-linejoin="round" stroke-miterlimit="10" fill="#4472C4"/><path d="M2613.05 1767.99C2613.05 1774.06 2608.12 1778.98 2602.05 1778.98 2595.97 1778.98 2591.05 1774.06 2591.05 1767.99 2591.05 1761.91 2595.97 1756.99 2602.05 1756.99 2608.12 1756.99 2613.05 1761.91 2613.05 1767.99Z" stroke="#4472C4" stroke-width="3.4375" stroke-linejoin="round" stroke-miterlimit="10" fill="#4472C4"/><path d="M2644.05 1757.99C2644.05 1764.06 2639.12 1768.98 2633.05 1768.98 2626.97 1768.98 2622.05 1764.06 2622.05 1757.99 2622.05 1751.91 2626.97 1746.99 2633.05 1746.99 2639.12 1746.99 2644.05 1751.91 2644.05 1757.99Z" stroke="#4472C4" stroke-width="3.4375" stroke-linejoin="round" stroke-miterlimit="10" fill="#4472C4"/><path d="M2707.05 1751.98C2707.05 1758.06 2702.12 1762.98 2696.05 1762.98 2689.97 1762.98 2685.05 1758.06 2685.05 1751.98 2685.05 1745.91 2689.97 1740.99 2696.05 1740.99 2702.12 1740.99 2707.05 1745.91 2707.05 1751.98Z" stroke="#4472C4" stroke-width="3.4375" stroke-linejoin="round" stroke-miterlimit="10" fill="#4472C4"/><path d="M2802.05 1743.99C2802.05 1750.06 2797.12 1754.98 2791.05 1754.98 2784.97 1754.98 2780.05 1750.06 2780.05 1743.99 2780.05 1737.91 2784.97 1732.99 2791.05 1732.99 2797.12 1732.99 2802.05 1737.91 2802.05 1743.99Z" stroke="#4472C4" stroke-width="3.4375" stroke-linejoin="round" stroke-miterlimit="10" fill="#4472C4"/><path d="M2960.05 1736.99C2960.05 1743.06 2955.12 1747.98 2949.05 1747.98 2942.97 1747.98 2938.05 1743.06 2938.05 1736.99 2938.05 1730.91 2942.97 1725.99 2949.05 1725.99 2955.12 1725.99 2960.05 1730.91 2960.05 1736.99Z" stroke="#4472C4" stroke-width="3.4375" stroke-linejoin="round" stroke-miterlimit="10" fill="#4472C4"/><path d="M3118.05 1745.99C3118.05 1752.06 3113.12 1756.98 3107.05 1756.98 3100.97 1756.98 3096.05 1752.06 3096.05 1745.99 3096.05 1739.91 3100.97 1734.99 3107.05 1734.99 3113.12 1734.99 3118.05 1739.91 3118.05 1745.99Z" stroke="#4472C4" stroke-width="3.4375" stroke-linejoin="round" stroke-miterlimit="10" fill="#4472C4"/><path d="M3276.05 1746.99C3276.05 1753.06 3271.12 1757.98 3265.05 1757.98 3258.97 1757.98 3254.05 1753.06 3254.05 1746.99 3254.05 1740.91 3258.97 1735.99 3265.05 1735.99 3271.12 1735.99 3276.05 1740.91 3276.05 1746.99Z" stroke="#4472C4" stroke-width="3.4375" stroke-linejoin="round" stroke-miterlimit="10" fill="#4472C4"/><path d="M3435.05 1739.98C3435.05 1746.06 3430.12 1750.98 3424.05 1750.98 3417.97 1750.98 3413.05 1746.06 3413.05 1739.98 3413.05 1733.91 3417.97 1728.99 3424.05 1728.99 3430.12 1728.99 3435.05 1733.91 3435.05 1739.98Z" stroke="#4472C4" stroke-width="3.4375" stroke-linejoin="round" stroke-miterlimit="10" fill="#4472C4"/></g><g clip-path="url(#clip130)"><path d="M2549.05 2343.99C2549.05 2350.06 2544.12 2354.98 2538.05 2354.98 2531.97 2354.98 2527.05 2350.06 2527.05 2343.99 2527.05 2337.91 2531.97 2332.99 2538.05 2332.99 2544.12 2332.99 2549.05 2337.91 2549.05 2343.99Z" stroke="#FFC000" stroke-width="3.4375" stroke-linejoin="round" stroke-miterlimit="10" fill="#FFC000"/><path d="M2581.05 2319.99C2581.05 2326.06 2576.12 2330.98 2570.05 2330.98 2563.97 2330.98 2559.05 2326.06 2559.05 2319.99 2559.05 2313.91 2563.97 2308.99 2570.05 2308.99 2576.12 2308.99 2581.05 2313.91 2581.05 2319.99Z" stroke="#FFC000" stroke-width="3.4375" stroke-linejoin="round" stroke-miterlimit="10" fill="#FFC000"/><path d="M2613.05 2301.98C2613.05 2308.06 2608.12 2312.98 2602.05 2312.98 2595.97 2312.98 2591.05 2308.06 2591.05 2301.98 2591.05 2295.91 2595.97 2290.99 2602.05 2290.99 2608.12 2290.99 2613.05 2295.91 2613.05 2301.98Z" stroke="#FFC000" stroke-width="3.4375" stroke-linejoin="round" stroke-miterlimit="10" fill="#FFC000"/><path d="M2644.05 2292.98C2644.05 2299.06 2639.12 2303.98 2633.05 2303.98 2626.97 2303.98 2622.05 2299.06 2622.05 2292.98 2622.05 2286.91 2626.97 2281.99 2633.05 2281.99 2639.12 2281.99 2644.05 2286.91 2644.05 2292.98Z" stroke="#FFC000" stroke-width="3.4375" stroke-linejoin="round" stroke-miterlimit="10" fill="#FFC000"/><path d="M2707.05 2288.99C2707.05 2295.06 2702.12 2299.98 2696.05 2299.98 2689.97 2299.98 2685.05 2295.06 2685.05 2288.99 2685.05 2282.91 2689.97 2277.99 2696.05 2277.99 2702.12 2277.99 2707.05 2282.91 2707.05 2288.99Z" stroke="#FFC000" stroke-width="3.4375" stroke-linejoin="round" stroke-miterlimit="10" fill="#FFC000"/><path d="M2802.05 2279.98C2802.05 2286.06 2797.12 2290.98 2791.05 2290.98 2784.97 2290.98 2780.05 2286.06 2780.05 2279.98 2780.05 2273.91 2784.97 2268.99 2791.05 2268.99 2797.12 2268.99 2802.05 2273.91 2802.05 2279.98Z" stroke="#FFC000" stroke-width="3.4375" stroke-linejoin="round" stroke-miterlimit="10" fill="#FFC000"/><path d="M2960.05 2268.98C2960.05 2275.06 2955.12 2279.98 2949.05 2279.98 2942.97 2279.98 2938.05 2275.06 2938.05 2268.98 2938.05 2262.91 2942.97 2257.99 2949.05 2257.99 2955.12 2257.99 2960.05 2262.91 2960.05 2268.98Z" stroke="#FFC000" stroke-width="3.4375" stroke-linejoin="round" stroke-miterlimit="10" fill="#FFC000"/><path d="M3118.05 2264.99C3118.05 2271.06 3113.12 2275.98 3107.05 2275.98 3100.97 2275.98 3096.05 2271.06 3096.05 2264.99 3096.05 2258.91 3100.97 2253.99 3107.05 2253.99 3113.12 2253.99 3118.05 2258.91 3118.05 2264.99Z" stroke="#FFC000" stroke-width="3.4375" stroke-linejoin="round" stroke-miterlimit="10" fill="#FFC000"/><path d="M3276.05 2265.99C3276.05 2272.06 3271.12 2276.98 3265.05 2276.98 3258.97 2276.98 3254.05 2272.06 3254.05 2265.99 3254.05 2259.91 3258.97 2254.99 3265.05 2254.99 3271.12 2254.99 3276.05 2259.91 3276.05 2265.99Z" stroke="#FFC000" stroke-width="3.4375" stroke-linejoin="round" stroke-miterlimit="10" fill="#FFC000"/></g><g clip-path="url(#clip131)"><path d="M2549.05 1910.99C2549.05 1917.06 2544.12 1921.98 2538.05 1921.98 2531.97 1921.98 2527.05 1917.06 2527.05 1910.99 2527.05 1904.91 2531.97 1899.99 2538.05 1899.99 2544.12 1899.99 2549.05 1904.91 2549.05 1910.99Z" stroke="#A5A5A5" stroke-width="3.4375" stroke-linejoin="round" stroke-miterlimit="10" fill="#A5A5A5"/><path d="M2581.05 1922.99C2581.05 1929.06 2576.12 1933.98 2570.05 1933.98 2563.97 1933.98 2559.05 1929.06 2559.05 1922.99 2559.05 1916.91 2563.97 1911.99 2570.05 1911.99 2576.12 1911.99 2581.05 1916.91 2581.05 1922.99Z" stroke="#A5A5A5" stroke-width="3.4375" stroke-linejoin="round" stroke-miterlimit="10" fill="#A5A5A5"/><path d="M2613.05 1917.98C2613.05 1924.06 2608.12 1928.98 2602.05 1928.98 2595.97 1928.98 2591.05 1924.06 2591.05 1917.98 2591.05 1911.91 2595.97 1906.99 2602.05 1906.99 2608.12 1906.99 2613.05 1911.91 2613.05 1917.98Z" stroke="#A5A5A5" stroke-width="3.4375" stroke-linejoin="round" stroke-miterlimit="10" fill="#A5A5A5"/><path d="M2644.05 1919.99C2644.05 1926.06 2639.12 1930.98 2633.05 1930.98 2626.97 1930.98 2622.05 1926.06 2622.05 1919.99 2622.05 1913.91 2626.97 1908.99 2633.05 1908.99 2639.12 1908.99 2644.05 1913.91 2644.05 1919.99Z" stroke="#A5A5A5" stroke-width="3.4375" stroke-linejoin="round" stroke-miterlimit="10" fill="#A5A5A5"/><path d="M2707.05 1928.98C2707.05 1935.06 2702.12 1939.98 2696.05 1939.98 2689.97 1939.98 2685.05 1935.06 2685.05 1928.98 2685.05 1922.91 2689.97 1917.99 2696.05 1917.99 2702.12 1917.99 2707.05 1922.91 2707.05 1928.98Z" stroke="#A5A5A5" stroke-width="3.4375" stroke-linejoin="round" stroke-miterlimit="10" fill="#A5A5A5"/><path d="M2802.05 1926.98C2802.05 1933.06 2797.12 1937.98 2791.05 1937.98 2784.97 1937.98 2780.05 1933.06 2780.05 1926.98 2780.05 1920.91 2784.97 1915.99 2791.05 1915.99 2797.12 1915.99 2802.05 1920.91 2802.05 1926.98Z" stroke="#A5A5A5" stroke-width="3.4375" stroke-linejoin="round" stroke-miterlimit="10" fill="#A5A5A5"/><path d="M2960.05 1930.99C2960.05 1937.06 2955.12 1941.98 2949.05 1941.98 2942.97 1941.98 2938.05 1937.06 2938.05 1930.99 2938.05 1924.91 2942.97 1919.99 2949.05 1919.99 2955.12 1919.99 2960.05 1924.91 2960.05 1930.99Z" stroke="#A5A5A5" stroke-width="3.4375" stroke-linejoin="round" stroke-miterlimit="10" fill="#A5A5A5"/><path d="M3118.05 1934.99C3118.05 1941.06 3113.12 1945.98 3107.05 1945.98 3100.97 1945.98 3096.05 1941.06 3096.05 1934.99 3096.05 1928.91 3100.97 1923.99 3107.05 1923.99 3113.12 1923.99 3118.05 1928.91 3118.05 1934.99Z" stroke="#A5A5A5" stroke-width="3.4375" stroke-linejoin="round" stroke-miterlimit="10" fill="#A5A5A5"/><path d="M3276.05 1940.99C3276.05 1947.06 3271.12 1951.98 3265.05 1951.98 3258.97 1951.98 3254.05 1947.06 3254.05 1940.99 3254.05 1934.91 3258.97 1929.99 3265.05 1929.99 3271.12 1929.99 3276.05 1934.91 3276.05 1940.99Z" stroke="#A5A5A5" stroke-width="3.4375" stroke-linejoin="round" stroke-miterlimit="10" fill="#A5A5A5"/><path d="M3435.05 1934.99C3435.05 1941.06 3430.12 1945.98 3424.05 1945.98 3417.97 1945.98 3413.05 1941.06 3413.05 1934.99 3413.05 1928.91 3417.97 1923.99 3424.05 1923.99 3430.12 1923.99 3435.05 1928.91 3435.05 1934.99Z" stroke="#A5A5A5" stroke-width="3.4375" stroke-linejoin="round" stroke-miterlimit="10" fill="#A5A5A5"/></g><g clip-path="url(#clip132)"><text fill="#595959" font-family="Calibri,Calibri_MSFontService,sans-serif" font-weight="400" font-size="41" transform="matrix(1 0 0 1 2416.38 2435)">1</text></g><g clip-path="url(#clip133)"><text fill="#595959" font-family="Calibri,Calibri_MSFontService,sans-serif" font-weight="400" font-size="41" transform="matrix(1 0 0 1 2385.08 2266)">1.5</text></g><g clip-path="url(#clip134)"><text fill="#595959" font-family="Calibri,Calibri_MSFontService,sans-serif" font-weight="400" font-size="41" transform="matrix(1 0 0 1 2416.38 2097)">2</text></g><g clip-path="url(#clip135)"><text fill="#595959" font-family="Calibri,Calibri_MSFontService,sans-serif" font-weight="400" font-size="41" transform="matrix(1 0 0 1 2385.08 1928)">2.5</text></g><g clip-path="url(#clip136)"><text fill="#595959" font-family="Calibri,Calibri_MSFontService,sans-serif" font-weight="400" font-size="41" transform="matrix(1 0 0 1 2416.38 1759)">3</text></g><g clip-path="url(#clip137)"><text fill="#595959" font-family="Calibri,Calibri_MSFontService,sans-serif" font-weight="400" font-size="41" transform="matrix(1 0 0 1 2385.08 1590)">3.5</text></g><g clip-path="url(#clip138)"><text fill="#595959" font-family="Calibri,Calibri_MSFontService,sans-serif" font-weight="400" font-size="41" transform="matrix(1 0 0 1 2465.1 2489)">0</text></g><g clip-path="url(#clip139)"><text fill="#595959" font-family="Calibri,Calibri_MSFontService,sans-serif" font-weight="400" font-size="41" transform="matrix(1 0 0 1 2623.19 2489)">5</text></g><g clip-path="url(#clip140)"><text fill="#595959" font-family="Calibri,Calibri_MSFontService,sans-serif" font-weight="400" font-size="41" transform="matrix(1 0 0 1 2770.82 2489)">10</text></g><g clip-path="url(#clip141)"><text fill="#595959" font-family="Calibri,Calibri_MSFontService,sans-serif" font-weight="400" font-size="41" transform="matrix(1 0 0 1 2928.91 2489)">15</text></g><g clip-path="url(#clip142)"><text fill="#595959" font-family="Calibri,Calibri_MSFontService,sans-serif" font-weight="400" font-size="41" transform="matrix(1 0 0 1 3087 2489)">20</text></g><g clip-path="url(#clip143)"><text fill="#595959" font-family="Calibri,Calibri_MSFontService,sans-serif" font-weight="400" font-size="41" transform="matrix(1 0 0 1 3245.08 2489)">25</text></g><g clip-path="url(#clip144)"><text fill="#595959" font-family="Calibri,Calibri_MSFontService,sans-serif" font-weight="400" font-size="41" transform="matrix(1 0 0 1 3403.17 2489)">30</text></g><g clip-path="url(#clip145)"><text fill="#595959" font-family="Calibri,Calibri_MSFontService,sans-serif" font-weight="400" font-size="41" transform="matrix(1 0 0 1 3561.26 2489)">35</text></g><g clip-path="url(#clip146)"><text fill="#595959" font-family="Calibri,Calibri_MSFontService,sans-serif" font-weight="400" font-size="46" transform="matrix(6.12323e-17 -1 1 6.12323e-17 2317.08 2285)">Magnetic Concentration Factor </text></g><g clip-path="url(#clip147)"><text fill="#595959" font-family="Calibri,Calibri_MSFontService,sans-serif" font-weight="400" font-size="46" transform="matrix(6.12323e-17 -1 1 6.12323e-17 2373.08 2147)">(Mshell/Mnone)</text></g><g clip-path="url(#clip148)"><text fill="#595959" font-family="Calibri,Calibri_MSFontService,sans-serif" font-weight="400" font-size="46" transform="matrix(1 0 0 1 2878.39 2525)">Frequency / kHz</text></g></g></svg>