<svg width="1659" height="1134" xmlns="http://www.w3.org/2000/svg" xmlns:xlink="http://www.w3.org/1999/xlink" overflow="hidden"><defs><clipPath id="clip0"><rect x="123" y="222" width="1659" height="1134"/></clipPath><clipPath id="clip1"><rect x="123" y="223" width="1656" height="1131"/></clipPath><clipPath id="clip2"><rect x="123" y="223" width="1656" height="1131"/></clipPath><clipPath id="clip3"><rect x="123" y="223" width="1656" height="1131"/></clipPath><clipPath id="clip4"><rect x="123" y="223" width="1656" height="1131"/></clipPath><clipPath id="clip5"><rect x="315" y="277" width="1207" height="903"/></clipPath><clipPath id="clip6"><rect x="315" y="277" width="1207" height="903"/></clipPath><clipPath id="clip7"><rect x="315" y="277" width="1207" height="903"/></clipPath><clipPath id="clip8"><rect x="315" y="277" width="1207" height="903"/></clipPath><clipPath id="clip9"><rect x="123" y="223" width="1656" height="1131"/></clipPath><clipPath id="clip10"><rect x="123" y="223" width="1656" height="1131"/></clipPath><clipPath id="clip11"><rect x="123" y="223" width="1656" height="1131"/></clipPath><clipPath id="clip12"><rect x="123" y="223" width="1656" height="1131"/></clipPath><clipPath id="clip13"><rect x="123" y="223" width="1656" height="1131"/></clipPath><clipPath id="clip14"><rect x="123" y="223" width="1656" height="1131"/></clipPath><clipPath id="clip15"><rect x="123" y="223" width="1656" height="1131"/></clipPath><clipPath id="clip16"><rect x="123" y="223" width="1656" height="1131"/></clipPath><clipPath id="clip17"><rect x="123" y="223" width="1656" height="1131"/></clipPath><clipPath id="clip18"><rect x="123" y="223" width="1656" height="1131"/></clipPath><clipPath id="clip19"><rect x="123" y="223" width="1656" height="1131"/></clipPath><clipPath id="clip20"><rect x="123" y="223" width="1656" height="1131"/></clipPath><clipPath id="clip21"><rect x="123" y="223" width="1656" height="1131"/></clipPath><clipPath id="clip22"><rect x="123" y="223" width="1656" height="1131"/></clipPath><clipPath id="clip23"><rect x="123" y="223" width="1656" height="1131"/></clipPath><clipPath id="clip24"><rect x="123" y="223" width="1656" height="1131"/></clipPath><clipPath id="clip25"><rect x="123" y="223" width="1656" height="1131"/></clipPath><clipPath id="clip26"><rect x="123" y="223" width="1656" height="1131"/></clipPath><clipPath id="clip27"><rect x="123" y="223" width="1656" height="1131"/></clipPath><clipPath id="clip28"><rect x="123" y="223" width="1656" height="1131"/></clipPath><clipPath id="clip29"><rect x="123" y="223" width="1656" height="1131"/></clipPath><clipPath id="clip30"><rect x="123" y="223" width="1656" height="1131"/></clipPath><clipPath id="clip31"><rect x="123" y="223" width="1656" height="1131"/></clipPath><clipPath id="clip32"><rect x="123" y="223" width="1656" height="1131"/></clipPath><clipPath id="clip33"><rect x="123" y="223" width="1656" height="1131"/></clipPath><clipPath id="clip34"><rect x="123" y="223" width="1656" height="1131"/></clipPath><clipPath id="clip35"><rect x="123" y="223" width="1656" height="1131"/></clipPath><clipPath id="clip36"><rect x="123" y="223" width="1656" height="1131"/></clipPath><clipPath id="clip37"><rect x="123" y="223" width="1656" height="1131"/></clipPath><clipPath id="clip38"><rect x="123" y="223" width="1656" height="1131"/></clipPath><clipPath id="clip39"><rect x="123" y="223" width="1656" height="1131"/></clipPath></defs><g clip-path="url(#clip0)" transform="translate(-123 -222)"><rect x="124" y="223" width="1656" height="1131" fill="#FFFFFF"/><g clip-path="url(#clip1)"><path d="M315.5 1048.53 1519.5 1048.53M315.5 919.53 1519.5 919.53M315.5 791.526 1519.5 791.526M315.5 662.522 1519.5 662.522M315.5 534.518 1519.5 534.518M315.5 405.513 1519.5 405.513M315.5 277.5 1519.5 277.5" stroke="#D9D9D9" stroke-width="3.4375" stroke-linejoin="round" stroke-miterlimit="10" fill="none"/></g><g clip-path="url(#clip2)"><path d="M515.517 277.5 515.517 1176.5M716.524 277.5 716.524 1176.5M917.53 277.5 917.53 1176.5M1117.54 277.5 1117.54 1176.5M1318.54 277.5 1318.54 1176.5M1519.5 277.5 1519.5 1176.5" stroke="#D9D9D9" stroke-width="3.4375" stroke-linejoin="round" stroke-miterlimit="10" fill="none"/></g><g clip-path="url(#clip3)"><path d="M0 0 0.000360892 899" stroke="#BFBFBF" stroke-width="3.4375" stroke-linejoin="round" stroke-miterlimit="10" fill="none" fill-rule="evenodd" transform="matrix(1 0 0 -1 315.5 1176.5)"/></g><g clip-path="url(#clip4)"><path d="M315.5 1176.5 1519.5 1176.5" stroke="#BFBFBF" stroke-width="3.4375" stroke-linejoin="round" stroke-miterlimit="10" fill="none" fill-rule="evenodd"/></g><g clip-path="url(#clip5)"><path d="M315.5 1176.5 319.511 1163.54 323.511 1150.54 327.511 1136.54 331.511 1123.54 335.511 1110.54 339.511 1097.54 343.511 1083.54 347.512 1070.54 351.512 1057.53 355.512 1044.53 359.512 1032.53 375.513 981.532 395.513 921.53 415.514 865.529 435.514 813.527 455.515 765.525 475.516 723.524 495.516 685.523 515.517 653.522 535.518 625.521 555.518 602.52 575.519 583.519 596.52 567.519 616.52 555.518 636.521 546.518 656.522 540.518 676.522 536.518 696.523 535.5 716.524 535.518 736.524 536.518 756.525 539.518 776.526 543.518 796.526 548.518 816.527 554.518 836.528 561.519 856.528 567.519 876.529 575.519 897.53 582.519 917.53 590.52 937.531 598.52 957.532 606.52 977.532 614.52 997.533 623.521 1017.53 631.521 1037.53 639.521 1057.53 647.521 1077.54 655.522 1097.54 663.522 1117.54 671.522 1137.54 678.522 1157.54 686.523 1177.54 693.523 1197.54 701.523 1218.54 708.523 1238.54 715.524 1258.54 722.524 1278.54 728.524 1298.54 735.524 1318.54 742.525 1338.54 748.525 1358.5 754.525" stroke="#4472C4" stroke-width="4.58333" stroke-linecap="round" stroke-linejoin="round" stroke-miterlimit="10" stroke-opacity="0.8" fill="none"/></g><g clip-path="url(#clip6)"><path d="M315.5 1176.5 319.511 1049.53 323.511 927.531 327.511 816.527 331.511 716.524 335.511 629.521 339.511 555.518 343.511 494.516 347.512 446.515 351.512 408.514 355.512 381.513 359.512 361.512 375.513 344.5 395.513 392.513 415.514 462.515 435.514 531.518 455.515 593.52 475.516 647.521 495.516 693.523 515.517 733.524 535.518 767.525 555.518 797.526 575.519 822.527 596.52 845.528 616.52 865.529 636.521 883.529 656.522 899.53 676.522 913.53 696.523 926.531 716.524 938.531 736.5 949.531" stroke="#A5A5A5" stroke-width="4.58333" stroke-linecap="round" stroke-linejoin="round" stroke-miterlimit="10" stroke-opacity="0.8" fill="none"/></g><g clip-path="url(#clip7)"><path d="M315.5 1176.5 319.511 1102.54 323.511 1030.53 327.511 960.532 331.511 894.53 335.511 833.528 339.511 776.526 343.511 724.524 347.512 677.522 351.512 636.521 355.512 599.52 359.512 568.519 375.513 487.516 395.513 457.5 415.514 472.516 435.514 507.517 455.515 549.518 475.516 592.52 495.516 632.521 515.517 669.522 535.518 703.523 555.518 733.524 575.519 760.525 596.52 784.526 616.52 806.527 636.5 826.527" stroke="#FFC000" stroke-width="4.58333" stroke-linecap="round" stroke-linejoin="round" stroke-miterlimit="10" stroke-opacity="0.8" fill="none"/></g><g clip-path="url(#clip8)"><path d="M315.5 1176.5 319.511 1126.54 323.511 1077.54 327.511 1029.53 331.511 982.532 335.511 937.531 339.511 894.53 343.511 853.528 347.512 815.527 351.512 779.526 355.512 746.525 359.512 716.524 375.513 622.521 395.513 556.518 415.514 532.5 435.514 535.518 455.515 553.518 475.516 579.519 495.516 608.52 515.517 637.521 535.518 666.522 555.518 693.523 575.519 718.524 596.5 742.525" stroke="#00B050" stroke-width="4.58333" stroke-linecap="round" stroke-linejoin="round" stroke-miterlimit="10" stroke-opacity="0.8" fill="none"/></g><g clip-path="url(#clip9)"><path d="M386.25 968.937C386.25 975.012 381.325 979.936 375.25 979.936 369.175 979.936 364.25 975.012 364.25 968.937 364.25 962.862 369.175 957.937 375.25 957.937 381.325 957.937 386.25 962.862 386.25 968.937Z" stroke="#4472C4" stroke-width="3.4375" stroke-linejoin="round" stroke-miterlimit="10" fill="#4472C4"/><path d="M426.25 849.937C426.25 856.012 421.325 860.936 415.25 860.936 409.175 860.936 404.251 856.012 404.251 849.937 404.251 843.862 409.175 838.937 415.25 838.937 421.325 838.937 426.25 843.862 426.25 849.937Z" stroke="#4472C4" stroke-width="3.4375" stroke-linejoin="round" stroke-miterlimit="10" fill="#4472C4"/><path d="M787.25 545.937C787.25 552.012 782.325 556.936 776.25 556.936 770.175 556.936 765.251 552.012 765.251 545.937 765.251 539.862 770.175 534.937 776.25 534.937 782.325 534.937 787.25 539.862 787.25 545.937Z" stroke="#4472C4" stroke-width="3.4375" stroke-linejoin="round" stroke-miterlimit="10" fill="#4472C4"/><path d="M506.25 670.937C506.25 677.012 501.325 681.936 495.25 681.936 489.176 681.936 484.251 677.012 484.251 670.937 484.251 664.862 489.176 659.937 495.25 659.937 501.325 659.937 506.25 664.862 506.25 670.937Z" stroke="#4472C4" stroke-width="3.4375" stroke-linejoin="round" stroke-miterlimit="10" fill="#4472C4"/><path d="M587.25 574.937C587.25 581.012 582.325 585.936 576.25 585.936 570.175 585.936 565.251 581.012 565.251 574.937 565.251 568.862 570.175 563.937 576.25 563.937 582.325 563.937 587.25 568.862 587.25 574.937Z" stroke="#4472C4" stroke-width="3.4375" stroke-linejoin="round" stroke-miterlimit="10" fill="#4472C4"/><path d="M687.25 534.937C687.25 541.012 682.325 545.936 676.25 545.936 670.175 545.936 665.251 541.012 665.251 534.937 665.251 528.862 670.175 523.937 676.25 523.937 682.325 523.937 687.25 528.862 687.25 534.937Z" stroke="#4472C4" stroke-width="3.4375" stroke-linejoin="round" stroke-miterlimit="10" fill="#4472C4"/><path d="M607.25 560.937C607.25 567.012 602.325 571.936 596.25 571.936 590.175 571.936 585.25 567.012 585.25 560.937 585.25 554.862 590.175 549.937 596.25 549.937 602.325 549.937 607.25 554.862 607.25 560.937Z" stroke="#4472C4" stroke-width="3.4375" stroke-linejoin="round" stroke-miterlimit="10" fill="#4472C4"/><path d="M627.25 550.937C627.25 557.012 622.325 561.936 616.25 561.936 610.176 561.936 605.251 557.012 605.251 550.937 605.251 544.862 610.176 539.937 616.25 539.937 622.325 539.937 627.25 544.862 627.25 550.937Z" stroke="#4472C4" stroke-width="3.4375" stroke-linejoin="round" stroke-miterlimit="10" fill="#4472C4"/><path d="M647.25 542.937C647.25 549.012 642.325 553.936 636.25 553.936 630.175 553.936 625.251 549.012 625.251 542.937 625.251 536.862 630.175 531.937 636.25 531.937 642.325 531.937 647.25 536.862 647.25 542.937Z" stroke="#4472C4" stroke-width="3.4375" stroke-linejoin="round" stroke-miterlimit="10" fill="#4472C4"/><path d="M667.25 537.937C667.25 544.012 662.325 548.936 656.25 548.936 650.175 548.936 645.251 544.012 645.251 537.937 645.251 531.862 650.175 526.937 656.25 526.937 662.325 526.937 667.25 531.862 667.25 537.937Z" stroke="#4472C4" stroke-width="3.4375" stroke-linejoin="round" stroke-miterlimit="10" fill="#4472C4"/><path d="M687.25 534.937C687.25 541.012 682.325 545.936 676.25 545.936 670.175 545.936 665.251 541.012 665.251 534.937 665.251 528.862 670.175 523.937 676.25 523.937 682.325 523.937 687.25 528.862 687.25 534.937Z" stroke="#4472C4" stroke-width="3.4375" stroke-linejoin="round" stroke-miterlimit="10" fill="#4472C4"/><path d="M707.25 534.937C707.25 541.012 702.325 545.936 696.25 545.936 690.175 545.936 685.251 541.012 685.251 534.937 685.251 528.862 690.175 523.937 696.25 523.937 702.325 523.937 707.25 528.862 707.25 534.937Z" stroke="#4472C4" stroke-width="3.4375" stroke-linejoin="round" stroke-miterlimit="10" fill="#4472C4"/><path d="M727.25 534.937C727.25 541.012 722.325 545.936 716.25 545.936 710.175 545.936 705.25 541.012 705.25 534.937 705.25 528.862 710.175 523.937 716.25 523.937 722.325 523.937 727.25 528.862 727.25 534.937Z" stroke="#4472C4" stroke-width="3.4375" stroke-linejoin="round" stroke-miterlimit="10" fill="#4472C4"/><path d="M747.25 536.937C747.25 543.012 742.325 547.936 736.25 547.936 730.176 547.936 725.251 543.012 725.251 536.937 725.251 530.862 730.176 525.937 736.25 525.937 742.325 525.937 747.25 530.862 747.25 536.937Z" stroke="#4472C4" stroke-width="3.4375" stroke-linejoin="round" stroke-miterlimit="10" fill="#4472C4"/><path d="M767.25 539.937C767.25 546.012 762.325 550.936 756.25 550.936 750.175 550.936 745.251 546.012 745.251 539.937 745.251 533.862 750.175 528.937 756.25 528.937 762.325 528.937 767.25 533.862 767.25 539.937Z" stroke="#4472C4" stroke-width="3.4375" stroke-linejoin="round" stroke-miterlimit="10" fill="#4472C4"/><path d="M867.25 568.937C867.25 575.012 862.325 579.936 856.25 579.936 850.175 579.936 845.251 575.012 845.251 568.937 845.251 562.862 850.175 557.937 856.25 557.937 862.325 557.937 867.25 562.862 867.25 568.937Z" stroke="#4472C4" stroke-width="3.4375" stroke-linejoin="round" stroke-miterlimit="10" fill="#4472C4"/><path d="M988.25 618.937C988.25 625.012 983.325 629.936 977.25 629.936 971.175 629.936 966.251 625.012 966.251 618.937 966.251 612.862 971.175 607.937 977.25 607.937 983.325 607.937 988.25 612.862 988.25 618.937Z" stroke="#4472C4" stroke-width="3.4375" stroke-linejoin="round" stroke-miterlimit="10" fill="#4472C4"/><path d="M1188.25 698.937C1188.25 705.012 1183.33 709.936 1177.25 709.936 1171.18 709.936 1166.25 705.012 1166.25 698.937 1166.25 692.862 1171.18 687.937 1177.25 687.937 1183.33 687.937 1188.25 692.862 1188.25 698.937Z" stroke="#4472C4" stroke-width="3.4375" stroke-linejoin="round" stroke-miterlimit="10" fill="#4472C4"/><path d="M1389.25 763.937C1389.25 770.012 1384.33 774.936 1378.25 774.936 1372.18 774.936 1367.25 770.012 1367.25 763.937 1367.25 757.862 1372.18 752.937 1378.25 752.937 1384.33 752.937 1389.25 757.862 1389.25 763.937Z" stroke="#4472C4" stroke-width="3.4375" stroke-linejoin="round" stroke-miterlimit="10" fill="#4472C4"/></g><g clip-path="url(#clip10)"><path d="M627.25 851.937C627.25 858.012 622.325 862.936 616.25 862.936 610.176 862.936 605.251 858.012 605.251 851.937 605.251 845.862 610.176 840.937 616.25 840.937 622.325 840.937 627.25 845.862 627.25 851.937Z" stroke="#A5A5A5" stroke-width="3.4375" stroke-linejoin="round" stroke-miterlimit="10" fill="#A5A5A5"/><path d="M506.25 680.937C506.25 687.012 501.325 691.936 495.25 691.936 489.176 691.936 484.251 687.012 484.251 680.937 484.251 674.862 489.176 669.937 495.25 669.937 501.325 669.937 506.25 674.862 506.25 680.937Z" stroke="#A5A5A5" stroke-width="3.4375" stroke-linejoin="round" stroke-miterlimit="10" fill="#A5A5A5"/><path d="M546.25 752.937C546.25 759.012 541.325 763.936 535.25 763.936 529.175 763.936 524.251 759.012 524.251 752.937 524.251 746.862 529.175 741.937 535.25 741.937 541.325 741.937 546.25 746.862 546.25 752.937Z" stroke="#A5A5A5" stroke-width="3.4375" stroke-linejoin="round" stroke-miterlimit="10" fill="#A5A5A5"/><path d="M466.25 585.937C466.25 592.012 461.325 596.936 455.25 596.936 449.175 596.936 444.251 592.012 444.251 585.937 444.251 579.862 449.175 574.937 455.25 574.937 461.325 574.937 466.25 579.862 466.25 585.937Z" stroke="#A5A5A5" stroke-width="3.4375" stroke-linejoin="round" stroke-miterlimit="10" fill="#A5A5A5"/><path d="M426.25 467.937C426.25 474.012 421.325 478.936 415.25 478.936 409.175 478.936 404.251 474.012 404.251 467.937 404.251 461.862 409.175 456.937 415.25 456.937 421.325 456.937 426.25 461.862 426.25 467.937Z" stroke="#A5A5A5" stroke-width="3.4375" stroke-linejoin="round" stroke-miterlimit="10" fill="#A5A5A5"/><path d="M386.25 373.937C386.25 380.012 381.325 384.936 375.25 384.936 369.175 384.936 364.25 380.012 364.25 373.937 364.25 367.862 369.175 362.937 375.25 362.937 381.325 362.937 386.25 367.862 386.25 373.937Z" stroke="#A5A5A5" stroke-width="3.4375" stroke-linejoin="round" stroke-miterlimit="10" fill="#A5A5A5"/><path d="M390.25 376.937C390.25 383.012 385.325 387.936 379.25 387.936 373.175 387.936 368.251 383.012 368.251 376.937 368.251 370.862 373.175 365.937 379.25 365.937 385.325 365.937 390.25 370.862 390.25 376.937Z" stroke="#A5A5A5" stroke-width="3.4375" stroke-linejoin="round" stroke-miterlimit="10" fill="#A5A5A5"/><path d="M406.25 408.937C406.25 415.011 401.325 419.936 395.25 419.936 389.175 419.936 384.251 415.011 384.251 408.937 384.251 402.862 389.175 397.937 395.25 397.937 401.325 397.937 406.25 402.862 406.25 408.937Z" stroke="#A5A5A5" stroke-width="3.4375" stroke-linejoin="round" stroke-miterlimit="10" fill="#A5A5A5"/><path d="M330.25 1070.94C330.25 1077.01 325.325 1081.94 319.25 1081.94 313.176 1081.94 308.251 1077.01 308.251 1070.94 308.251 1064.86 313.176 1059.94 319.25 1059.94 325.325 1059.94 330.25 1064.86 330.25 1070.94Z" stroke="#A5A5A5" stroke-width="3.4375" stroke-linejoin="round" stroke-miterlimit="10" fill="#A5A5A5"/><path d="M366.25 469.937C366.25 476.012 361.325 480.936 355.25 480.936 349.175 480.936 344.251 476.012 344.251 469.937 344.251 463.862 349.175 458.937 355.25 458.937 361.325 458.937 366.25 463.862 366.25 469.937Z" stroke="#A5A5A5" stroke-width="3.4375" stroke-linejoin="round" stroke-miterlimit="10" fill="#A5A5A5"/></g><g clip-path="url(#clip11)"><path d="M386.25 505.937C386.25 512.012 381.325 516.936 375.25 516.936 369.175 516.936 364.25 512.012 364.25 505.937 364.25 499.862 369.175 494.937 375.25 494.937 381.325 494.937 386.25 499.862 386.25 505.937Z" stroke="#FFC000" stroke-width="3.4375" stroke-linejoin="round" stroke-miterlimit="10" fill="#FFC000"/><path d="M426.25 467.937C426.25 474.012 421.325 478.936 415.25 478.936 409.175 478.936 404.251 474.012 404.251 467.937 404.251 461.862 409.175 456.937 415.25 456.937 421.325 456.937 426.25 461.862 426.25 467.937Z" stroke="#FFC000" stroke-width="3.4375" stroke-linejoin="round" stroke-miterlimit="10" fill="#FFC000"/><path d="M466.25 524.937C466.25 531.012 461.325 535.936 455.25 535.936 449.175 535.936 444.251 531.012 444.251 524.937 444.251 518.862 449.175 513.937 455.25 513.937 461.325 513.937 466.25 518.862 466.25 524.937Z" stroke="#FFC000" stroke-width="3.4375" stroke-linejoin="round" stroke-miterlimit="10" fill="#FFC000"/><path d="M446.25 491.937C446.25 498.012 441.325 502.936 435.25 502.936 429.175 502.936 424.251 498.012 424.251 491.937 424.251 485.862 429.175 480.937 435.25 480.937 441.325 480.937 446.25 485.862 446.25 491.937Z" stroke="#FFC000" stroke-width="3.4375" stroke-linejoin="round" stroke-miterlimit="10" fill="#FFC000"/><path d="M406.25 465.937C406.25 472.012 401.325 476.936 395.25 476.936 389.175 476.936 384.251 472.012 384.251 465.937 384.251 459.862 389.175 454.937 395.25 454.937 401.325 454.937 406.25 459.862 406.25 465.937Z" stroke="#FFC000" stroke-width="3.4375" stroke-linejoin="round" stroke-miterlimit="10" fill="#FFC000"/><path d="M414.25 462.937C414.25 469.012 409.325 473.937 403.25 473.937 397.175 473.937 392.251 469.012 392.251 462.937 392.251 456.862 397.175 451.937 403.25 451.937 409.325 451.937 414.25 456.862 414.25 462.937Z" stroke="#FFC000" stroke-width="3.4375" stroke-linejoin="round" stroke-miterlimit="10" fill="#FFC000"/><path d="M418.25 462.937C418.25 469.012 413.325 473.937 407.25 473.937 401.176 473.937 396.251 469.012 396.251 462.937 396.251 456.862 401.176 451.937 407.25 451.937 413.325 451.937 418.25 456.862 418.25 462.937Z" stroke="#FFC000" stroke-width="3.4375" stroke-linejoin="round" stroke-miterlimit="10" fill="#FFC000"/></g><g clip-path="url(#clip12)"><path d="M418.25 552.937C418.25 559.012 413.325 563.936 407.25 563.936 401.176 563.936 396.251 559.012 396.251 552.937 396.251 546.862 401.176 541.937 407.25 541.937 413.325 541.937 418.25 546.862 418.25 552.937Z" stroke="#00B050" stroke-width="3.4375" stroke-linejoin="round" stroke-miterlimit="10" fill="#00B050"/><path d="M426.25 542.937C426.25 549.012 421.325 553.936 415.25 553.936 409.175 553.936 404.251 549.012 404.251 542.937 404.251 536.862 409.175 531.937 415.25 531.937 421.325 531.937 426.25 536.862 426.25 542.937Z" stroke="#00B050" stroke-width="3.4375" stroke-linejoin="round" stroke-miterlimit="10" fill="#00B050"/><path d="M466.25 540.937C466.25 547.011 461.325 551.936 455.25 551.936 449.175 551.936 444.251 547.011 444.251 540.937 444.251 534.862 449.175 529.937 455.25 529.937 461.325 529.937 466.25 534.862 466.25 540.937Z" stroke="#00B050" stroke-width="3.4375" stroke-linejoin="round" stroke-miterlimit="10" fill="#00B050"/><path d="M506.25 579.937C506.25 586.012 501.325 590.936 495.25 590.936 489.176 590.936 484.251 586.012 484.251 579.937 484.251 573.862 489.176 568.937 495.25 568.937 501.325 568.937 506.25 573.862 506.25 579.937Z" stroke="#00B050" stroke-width="3.4375" stroke-linejoin="round" stroke-miterlimit="10" fill="#00B050"/><path d="M446.25 534.937C446.25 541.012 441.325 545.936 435.25 545.936 429.175 545.936 424.251 541.012 424.251 534.937 424.251 528.862 429.175 523.937 435.25 523.937 441.325 523.937 446.25 528.862 446.25 534.937Z" stroke="#00B050" stroke-width="3.4375" stroke-linejoin="round" stroke-miterlimit="10" fill="#00B050"/><path d="M454.25 536.937C454.25 543.012 449.325 547.936 443.25 547.936 437.175 547.936 432.251 543.012 432.251 536.937 432.251 530.862 437.175 525.937 443.25 525.937 449.325 525.937 454.25 530.862 454.25 536.937Z" stroke="#00B050" stroke-width="3.4375" stroke-linejoin="round" stroke-miterlimit="10" fill="#00B050"/><path d="M438.25 535.937C438.25 542.012 433.325 546.936 427.25 546.936 421.175 546.936 416.251 542.012 416.251 535.937 416.251 529.862 421.175 524.937 427.25 524.937 433.325 524.937 438.25 529.862 438.25 535.937Z" stroke="#00B050" stroke-width="3.4375" stroke-linejoin="round" stroke-miterlimit="10" fill="#00B050"/></g><g clip-path="url(#clip13)"><text fill="#595959" font-family="Calibri,Calibri_MSFontService,sans-serif" font-weight="400" font-size="41" transform="matrix(1 0 0 1 256 1188)">0</text></g><g clip-path="url(#clip14)"><text fill="#595959" font-family="Calibri,Calibri_MSFontService,sans-serif" font-weight="400" font-size="41" transform="matrix(1 0 0 1 224.696 1060)">0.2</text></g><g clip-path="url(#clip15)"><text fill="#595959" font-family="Calibri,Calibri_MSFontService,sans-serif" font-weight="400" font-size="41" transform="matrix(1 0 0 1 224.696 931)">0.4</text></g><g clip-path="url(#clip16)"><text fill="#595959" font-family="Calibri,Calibri_MSFontService,sans-serif" font-weight="400" font-size="41" transform="matrix(1 0 0 1 224.696 803)">0.6</text></g><g clip-path="url(#clip17)"><text fill="#595959" font-family="Calibri,Calibri_MSFontService,sans-serif" font-weight="400" font-size="41" transform="matrix(1 0 0 1 224.696 674)">0.8</text></g><g clip-path="url(#clip18)"><text fill="#595959" font-family="Calibri,Calibri_MSFontService,sans-serif" font-weight="400" font-size="41" transform="matrix(1 0 0 1 256 546)">1</text></g><g clip-path="url(#clip19)"><text fill="#595959" font-family="Calibri,Calibri_MSFontService,sans-serif" font-weight="400" font-size="41" transform="matrix(1 0 0 1 224.696 417)">1.2</text></g><g clip-path="url(#clip20)"><text fill="#595959" font-family="Calibri,Calibri_MSFontService,sans-serif" font-weight="400" font-size="41" transform="matrix(1 0 0 1 224.696 289)">1.4</text></g><g clip-path="url(#clip21)"><text fill="#595959" font-family="Calibri,Calibri_MSFontService,sans-serif" font-weight="400" font-size="41" transform="matrix(1 0 0 1 304.717 1242)">0</text></g><g clip-path="url(#clip22)"><text fill="#595959" font-family="Calibri,Calibri_MSFontService,sans-serif" font-weight="400" font-size="41" transform="matrix(1 0 0 1 494.918 1242)">50</text></g><g clip-path="url(#clip23)"><text fill="#595959" font-family="Calibri,Calibri_MSFontService,sans-serif" font-weight="400" font-size="41" transform="matrix(1 0 0 1 685.118 1242)">100</text></g><g clip-path="url(#clip24)"><text fill="#595959" font-family="Calibri,Calibri_MSFontService,sans-serif" font-weight="400" font-size="41" transform="matrix(1 0 0 1 885.768 1242)">150</text></g><g clip-path="url(#clip25)"><text fill="#595959" font-family="Calibri,Calibri_MSFontService,sans-serif" font-weight="400" font-size="41" transform="matrix(1 0 0 1 1086.42 1242)">200</text></g><g clip-path="url(#clip26)"><text fill="#595959" font-family="Calibri,Calibri_MSFontService,sans-serif" font-weight="400" font-size="41" transform="matrix(1 0 0 1 1287.07 1242)">250</text></g><g clip-path="url(#clip27)"><text fill="#595959" font-family="Calibri,Calibri_MSFontService,sans-serif" font-weight="400" font-size="41" transform="matrix(1 0 0 1 1487.72 1242)">300</text></g><g clip-path="url(#clip28)"><text fill="#595959" font-family="Calibri,Calibri_MSFontService,sans-serif" font-weight="400" font-size="46" transform="matrix(6.12323e-17 -1 1 6.12323e-17 202.338 1128)">Relative Power Transfer Efficiency (a.u.)</text></g><g clip-path="url(#clip29)"><text fill="#595959" font-family="Calibri,Calibri_MSFontService,sans-serif" font-weight="400" font-size="46" transform="matrix(1 0 0 1 734.229 1307)">Load Resistance / Ohm</text></g><g clip-path="url(#clip30)"><path d="M1588 621C1588 627.075 1583.07 631.999 1577 631.999 1570.92 631.999 1566 627.075 1566 621 1566 614.925 1570.92 610 1577 610 1583.07 610 1588 614.925 1588 621Z" stroke="#4472C4" stroke-width="3.4375" stroke-linejoin="round" stroke-miterlimit="10" fill="#4472C4"/></g><g clip-path="url(#clip31)"><text fill="#595959" font-family="Calibri,Calibri_MSFontService,sans-serif" font-weight="400" font-size="41" transform="matrix(1 0 0 1 1631.12 633)">15 kHz</text></g><g clip-path="url(#clip32)"><path d="M1588 699C1588 705.075 1583.07 709.999 1577 709.999 1570.92 709.999 1566 705.075 1566 699 1566 692.925 1570.92 688 1577 688 1583.07 688 1588 692.925 1588 699Z" stroke="#A5A5A5" stroke-width="3.4375" stroke-linejoin="round" stroke-miterlimit="10" fill="#A5A5A5"/></g><g clip-path="url(#clip33)"><text fill="#595959" font-family="Calibri,Calibri_MSFontService,sans-serif" font-weight="400" font-size="41" transform="matrix(1 0 0 1 1631.12 711)">2 kHz</text></g><g clip-path="url(#clip34)"><path d="M1588 776C1588 782.075 1583.07 786.999 1577 786.999 1570.92 786.999 1566 782.075 1566 776 1566 769.925 1570.92 765 1577 765 1583.07 765 1588 769.925 1588 776Z" stroke="#FFC000" stroke-width="3.4375" stroke-linejoin="round" stroke-miterlimit="10" fill="#FFC000"/></g><g clip-path="url(#clip35)"><text fill="#595959" font-family="Calibri,Calibri_MSFontService,sans-serif" font-weight="400" font-size="41" transform="matrix(1 0 0 1 1631.12 788)">3 kHz</text></g><g clip-path="url(#clip36)"><path d="M1588 853C1588 859.075 1583.07 863.999 1577 863.999 1570.92 863.999 1566 859.075 1566 853 1566 846.925 1570.92 842 1577 842 1583.07 842 1588 846.925 1588 853Z" stroke="#00B050" stroke-width="3.4375" stroke-linejoin="round" stroke-miterlimit="10" fill="#00B050"/></g><g clip-path="url(#clip37)"><text fill="#595959" font-family="Calibri,Calibri_MSFontService,sans-serif" font-weight="400" font-size="41" transform="matrix(1 0 0 1 1631.12 865)">4 kHz</text></g><g clip-path="url(#clip38)"><path d="M1533.5 931.5 1621.5 931.5" stroke="#000000" stroke-width="9.16667" stroke-linecap="round" stroke-linejoin="round" stroke-miterlimit="10" fill="none" fill-rule="evenodd"/></g><g clip-path="url(#clip39)"><text fill="#595959" font-family="Calibri,Calibri_MSFontService,sans-serif" font-weight="400" font-size="41" transform="matrix(1 0 0 1 1631.12 943)">Theory</text></g><rect x="124.5" y="223.5" width="1656" height="1131" stroke="#D9D9D9" stroke-width="3.4375" stroke-linejoin="round" stroke-miterlimit="10" fill="none"/></g></svg>